GeoramaExtraExtended-Regular.ufo
<glyph name="exclam" format="2">
  <advance width="352.73999999999995"/>
  <unicode hex="0021"/>
  <outline>
    <contour>
      <point x="131.65" y="262.45" type="line"/>
      <point x="223.26" y="262.45" type="line"/>
      <point x="229.46" y="740.0" type="line"/>
      <point x="125.45" y="740.0" type="line"/>
    </contour>
    <contour>
      <point x="114.11" y="43.66" type="curve" smooth="yes"/>
      <point x="114.11" y="9.37"/>
      <point x="129.44" y="-3.41"/>
      <point x="176.36999999999998" y="-3.41" type="curve" smooth="yes"/>
      <point x="223.98999999999998" y="-3.41"/>
      <point x="238.63" y="9.37"/>
      <point x="238.63" y="43.66" type="curve" smooth="yes"/>
      <point x="238.63" y="78.26"/>
      <point x="223.98999999999998" y="91.04"/>
      <point x="176.36999999999998" y="91.04" type="curve" smooth="yes"/>
      <point x="128.75" y="91.04"/>
      <point x="114.11" y="78.26"/>
    </contour>
  </outline>
</glyph>
<glyph name="numbersign" format="2">
  <advance width="1038.96"/>
  <unicode hex="0023"/>
  <outline>
    <contour>
      <point x="156.06" y="457.33000000000004" type="line"/>
      <point x="315.96" y="457.33000000000004" type="line"/>
      <point x="255.90999999999997" y="233.73000000000002" type="line"/>
      <point x="104.53" y="233.73000000000002" type="line"/>
      <point x="104.53" y="171.09" type="line"/>
      <point x="239.99000000000004" y="171.09" type="line"/>
      <point x="195.12" y="0.0" type="line"/>
      <point x="305.02" y="0.0" type="line"/>
      <point x="349.89" y="171.09" type="line"/>
      <point x="600.5600000000001" y="171.09" type="line"/>
      <point x="555.69" y="0.0" type="line"/>
      <point x="665.59" y="0.0" type="line"/>
      <point x="710.46" y="171.09" type="line"/>
      <point x="883.21" y="171.09" type="line"/>
      <point x="883.21" y="233.73000000000002" type="line"/>
      <point x="726.38" y="233.73000000000002" type="line"/>
      <point x="786.4300000000001" y="457.33000000000004" type="line"/>
      <point x="934.7399999999999" y="457.33000000000004" type="line"/>
      <point x="934.7399999999999" y="519.35" type="line"/>
      <point x="801.35" y="519.35" type="line"/>
      <point x="850.05" y="700.0" type="line"/>
      <point x="740.15" y="700.0" type="line"/>
      <point x="691.45" y="519.35" type="line"/>
      <point x="440.78" y="519.35" type="line"/>
      <point x="489.47999999999996" y="700.0" type="line"/>
      <point x="379.58000000000004" y="700.0" type="line"/>
      <point x="330.88" y="519.35" type="line"/>
      <point x="156.06" y="519.35" type="line"/>
    </contour>
    <contour>
      <point x="425.86" y="457.33000000000004" type="line"/>
      <point x="676.53" y="457.33000000000004" type="line"/>
      <point x="616.4799999999999" y="233.73000000000002" type="line"/>
      <point x="365.81" y="233.73000000000002" type="line"/>
    </contour>
  </outline>
</glyph>
<glyph name="dollar" format="2">
  <advance width="1038.96"/>
  <unicode hex="0024"/>
  <outline>
    <contour>
      <point x="513.2" y="-10.0" type="curve" smooth="yes"/>
      <point x="800.9399999999999" y="-13.72"/>
      <point x="948.08" y="48.24"/>
      <point x="948.08" y="196.35999999999999" type="curve" smooth="yes"/>
      <point x="948.08" y="323.96000000000004"/>
      <point x="827.5600000000001" y="367.34000000000003"/>
      <point x="589.5799999999999" y="392.48" type="curve" smooth="yes"/>
      <point x="364.5" y="416.61999999999995"/>
      <point x="251.24" y="433.1"/>
      <point x="251.24" y="514.22" type="curve" smooth="yes"/>
      <point x="251.24" y="591.32"/>
      <point x="354.2" y="629.2399999999999"/>
      <point x="539.9399999999999" y="629.2399999999999" type="curve" smooth="yes"/>
      <point x="642.34" y="629.2399999999999"/>
      <point x="784.4399999999999" y="609.48"/>
      <point x="880.48" y="582.1" type="curve"/>
      <point x="898.88" y="664.0999999999999" type="line"/>
      <point x="797.78" y="691.24"/>
      <point x="658.88" y="710.0"/>
      <point x="544.8199999999999" y="710.0" type="curve" smooth="yes"/>
      <point x="288.56" y="708.62"/>
      <point x="142.2" y="645.86"/>
      <point x="142.2" y="503.68" type="curve" smooth="yes"/>
      <point x="142.2" y="374.7"/>
      <point x="259.94" y="332.52"/>
      <point x="480.94" y="309.24" type="curve" smooth="yes"/>
      <point x="715.5600000000001" y="283.86"/>
      <point x="837.5600000000001" y="268.28"/>
      <point x="837.5600000000001" y="187.06" type="curve" smooth="yes"/>
      <point x="837.5600000000001" y="101.92"/>
      <point x="745.4" y="68.28"/>
      <point x="540.3399999999999" y="68.28" type="curve" smooth="yes"/>
      <point x="417.28" y="68.28"/>
      <point x="237.48" y="97.03999999999999"/>
      <point x="111.14" y="136.28000000000003" type="curve"/>
      <point x="91.5" y="54.9" type="line"/>
      <point x="212.4" y="17.759999999999998"/>
      <point x="385.76" y="-8.76"/>
    </contour>
    <contour>
      <point x="503.96" y="-105.0" type="line"/>
      <point x="580.3799999999999" y="-105.0" type="line"/>
      <point x="580.3799999999999" y="0.5799999999999992" type="line"/>
      <point x="503.96" y="-1.28" type="line"/>
    </contour>
    <contour>
      <point x="503.96" y="700.6600000000001" type="line"/>
      <point x="580.3799999999999" y="701.2799999999999" type="line"/>
      <point x="580.3799999999999" y="805.0" type="line"/>
      <point x="503.96" y="805.0" type="line"/>
    </contour>
  </outline>
</glyph>
<glyph name="ampersand" format="2">
  <advance width="1043.3"/>
  <unicode hex="0026"/>
  <outline>
    <contour>
      <point x="912.9200000000001" y="-6.52" type="line"/>
      <point x="1041.34" y="6.5200000000000005" type="line"/>
      <point x="383.18" y="415.54" type="line" smooth="yes"/>
      <point x="319.14" y="455.40000000000003"/>
      <point x="284.24" y="491.38"/>
      <point x="284.24" y="535.22" type="curve" smooth="yes"/>
      <point x="284.24" y="601.14"/>
      <point x="357.73999999999995" y="640.4"/>
      <point x="500.62" y="640.4" type="curve" smooth="yes"/>
      <point x="623.8799999999999" y="640.4"/>
      <point x="704.34" y="602.8"/>
      <point x="704.34" y="531.5" type="curve" smooth="yes"/>
      <point x="704.34" y="475.24"/>
      <point x="664.2" y="439.44"/>
      <point x="579.4200000000001" y="424.06" type="curve"/>
      <point x="637.9799999999999" y="379.02" type="line"/>
      <point x="754.3199999999999" y="408.32"/>
      <point x="805.56" y="460.65999999999997"/>
      <point x="805.56" y="541.5600000000001" type="curve" smooth="yes"/>
      <point x="805.56" y="651.28"/>
      <point x="698.26" y="710.0"/>
      <point x="497.52" y="710.0" type="curve" smooth="yes"/>
      <point x="273.43999999999994" y="710.0"/>
      <point x="177.44" y="636.4599999999999"/>
      <point x="177.44" y="535.22" type="curve" smooth="yes"/>
      <point x="177.44" y="471.74"/>
      <point x="205.89999999999998" y="425.42"/>
      <point x="273.52" y="382.46000000000004" type="curve" smooth="yes"/>
    </contour>
    <contour>
      <point x="443.86" y="-10.0" type="curve" smooth="yes"/>
      <point x="570.82" y="-10.0"/>
      <point x="693.0" y="21.84"/>
      <point x="779.96" y="80.30000000000001" type="curve"/>
      <point x="720.8000000000001" y="131.46" type="line"/>
      <point x="661.26" y="87.44"/>
      <point x="569.26" y="60.84"/>
      <point x="455.02" y="60.84" type="curve" smooth="yes"/>
      <point x="276.28" y="60.84"/>
      <point x="163.39999999999998" y="117.92"/>
      <point x="163.39999999999998" y="217.22" type="curve" smooth="yes"/>
      <point x="163.39999999999998" y="286.9"/>
      <point x="218.66" y="334.78000000000003"/>
      <point x="322.55999999999995" y="360.34000000000003" type="curve"/>
      <point x="263.50000000000006" y="402.96" type="line"/>
      <point x="129.46" y="370.82"/>
      <point x="62.800000000000004" y="304.44"/>
      <point x="62.800000000000004" y="206.06" type="curve" smooth="yes"/>
      <point x="62.800000000000004" y="70.82"/>
      <point x="198.79999999999998" y="-10.0"/>
    </contour>
    <contour>
      <point x="838.9399999999999" y="110.24000000000001" type="line"/>
      <point x="906.14" y="166.61999999999998"/>
      <point x="947.68" y="236.62"/>
      <point x="947.68" y="319.62" type="curve" smooth="yes"/>
      <point x="947.68" y="341.0"/>
      <point x="944.3" y="355.66"/>
      <point x="938.78" y="374.56" type="curve"/>
      <point x="859.64" y="370.04" type="line"/>
      <point x="865.16" y="350.52"/>
      <point x="866.9200000000001" y="334.14"/>
      <point x="865.6800000000001" y="319.0" type="curve" smooth="yes"/>
      <point x="861.34" y="256.74"/>
      <point x="838.4" y="204.24"/>
      <point x="774.8199999999999" y="152.48000000000002" type="curve"/>
    </contour>
  </outline>
</glyph>
<glyph name="quotesingle" format="2">
  <advance width="225.82"/>
  <unicode hex="0027"/>
  <outline>
    <contour>
      <point x="73.11999999999999" y="427.0" type="line"/>
      <point x="152.7" y="427.0" type="line"/>
      <point x="159.25" y="700.0" type="line"/>
      <point x="66.57" y="700.0" type="line"/>
    </contour>
  </outline>
</glyph>
<glyph name="parenleft" format="2">
  <advance width="476.53999999999996"/>
  <unicode hex="0028"/>
  <outline>
    <contour>
      <point x="121.49000000000001" y="265.0" type="curve" smooth="yes"/>
      <point x="121.49000000000001" y="31.38"/>
      <point x="214.96" y="-185.27"/>
      <point x="441.29999999999995" y="-220.0" type="curve"/>
      <point x="441.29999999999995" y="-154.12" type="line"/>
      <point x="277.74" y="-116.64"/>
      <point x="210.31" y="55.26"/>
      <point x="210.31" y="265.0" type="curve" smooth="yes"/>
      <point x="210.31" y="474.74"/>
      <point x="277.74" y="646.64"/>
      <point x="441.29999999999995" y="684.12" type="curve"/>
      <point x="441.29999999999995" y="750.0" type="line"/>
      <point x="214.96" y="715.27"/>
      <point x="121.49000000000001" y="498.62"/>
    </contour>
  </outline>
</glyph>
<glyph name="parenright" format="2">
  <advance width="476.53999999999996"/>
  <unicode hex="0029"/>
  <outline>
    <contour>
      <point x="35.24" y="-154.12" type="curve"/>
      <point x="35.24" y="-220.0" type="line"/>
      <point x="261.58" y="-185.27"/>
      <point x="355.05" y="31.38"/>
      <point x="355.05" y="265.0" type="curve" smooth="yes"/>
      <point x="355.05" y="498.62"/>
      <point x="261.58" y="715.27"/>
      <point x="35.24" y="750.0" type="curve"/>
      <point x="35.24" y="684.12" type="line"/>
      <point x="198.8" y="646.64"/>
      <point x="266.22999999999996" y="474.74"/>
      <point x="266.22999999999996" y="265.0" type="curve" smooth="yes"/>
      <point x="266.22999999999996" y="55.26"/>
      <point x="198.8" y="-116.64"/>
    </contour>
  </outline>
</glyph>
<glyph name="asterisk" format="2">
  <advance width="476.54"/>
  <unicode hex="002A"/>
  <outline>
    <contour>
      <point x="121.29" y="302.01" type="line"/>
      <point x="238.96" y="451.97" type="line"/>
      <point x="353.87" y="301.32" type="line"/>
      <point x="392.28999999999996" y="327.98999999999995" type="line"/>
      <point x="286.13" y="487.21999999999997" type="line"/>
      <point x="463.23" y="548.74" type="line"/>
      <point x="448.61999999999995" y="592.57" type="line"/>
      <point x="268.8" y="543.59" type="line"/>
      <point x="264.15" y="730.0" type="line"/>
      <point x="213.76999999999998" y="730.0" type="line"/>
      <point x="209.12" y="543.59" type="line"/>
      <point x="27.919999999999998" y="592.57" type="line"/>
      <point x="13.309999999999999" y="548.74" type="line"/>
      <point x="191.79000000000002" y="487.21999999999997" type="line"/>
      <point x="82.18" y="329.37" type="line"/>
    </contour>
  </outline>
</glyph>
<glyph name="plus" format="2">
  <advance width="628.82"/>
  <unicode hex="002B"/>
  <outline>
    <contour>
      <point x="269.38" y="76.65" type="line"/>
      <point x="359.13" y="76.65" type="line"/>
      <point x="359.13" y="259.46999999999997" type="line"/>
      <point x="566.75" y="259.46999999999997" type="line"/>
      <point x="566.75" y="336.82000000000005" type="line"/>
      <point x="359.13" y="336.82000000000005" type="line"/>
      <point x="359.13" y="519.3299999999999" type="line"/>
      <point x="269.38" y="519.3299999999999" type="line"/>
      <point x="269.38" y="336.82000000000005" type="line"/>
      <point x="62.07" y="336.82000000000005" type="line"/>
      <point x="62.07" y="259.46999999999997" type="line"/>
      <point x="269.38" y="259.46999999999997" type="line"/>
    </contour>
  </outline>
</glyph>
<glyph name="comma" format="2">
  <advance width="273.39"/>
  <unicode hex="002C"/>
  <outline>
    <contour>
      <point x="92.05000000000001" y="53.730000000000004" type="line"/>
      <point x="99.57000000000001" y="33.11"/>
      <point x="104.02000000000001" y="10.799999999999999"/>
      <point x="104.02000000000001" y="-11.890000000000002" type="curve" smooth="yes"/>
      <point x="104.02000000000001" y="-75.16"/>
      <point x="75.91000000000001" y="-143.26"/>
      <point x="16.53" y="-181.14000000000001" type="curve"/>
      <point x="93.97000000000001" y="-200.0" type="line"/>
      <point x="167.69" y="-159.57"/>
      <point x="205.23999999999998" y="-83.88"/>
      <point x="205.23999999999998" y="-12.680000000000001" type="curve" smooth="yes"/>
      <point x="205.23999999999998" y="14.629999999999999"/>
      <point x="199.85999999999999" y="39.94"/>
      <point x="189.79" y="60.25000000000001" type="curve"/>
    </contour>
  </outline>
</glyph>
<glyph name="hyphen" format="2">
  <advance width="456.54"/>
  <unicode hex="002D"/>
  <outline>
    <contour>
      <point x="58.97" y="248.49" type="line"/>
      <point x="397.57" y="248.49" type="line"/>
      <point x="397.57" y="326.77000000000004" type="line"/>
      <point x="58.97" y="326.77000000000004" type="line"/>
    </contour>
  </outline>
</glyph>
<glyph name="period" format="2">
  <advance width="278.35"/>
  <unicode hex="002E"/>
  <outline>
    <contour>
      <point x="77.26" y="43.66" type="curve" smooth="yes"/>
      <point x="77.26" y="9.37"/>
      <point x="92.59" y="-3.41"/>
      <point x="139.52" y="-3.41" type="curve" smooth="yes"/>
      <point x="187.14000000000001" y="-3.41"/>
      <point x="201.78" y="9.37"/>
      <point x="201.78" y="43.66" type="curve" smooth="yes"/>
      <point x="201.78" y="78.26"/>
      <point x="187.14000000000001" y="91.04"/>
      <point x="139.52" y="91.04" type="curve" smooth="yes"/>
      <point x="91.9" y="91.04"/>
      <point x="77.26" y="78.26"/>
    </contour>
  </outline>
</glyph>
<glyph name="slash" format="2">
  <advance width="504.93"/>
  <unicode hex="002F"/>
  <outline>
    <contour>
      <point x="10.0" y="-210.0" type="line"/>
      <point x="94.93" y="-210.0" type="line"/>
      <point x="494.93" y="740.0" type="line"/>
      <point x="410.0" y="740.0" type="line"/>
    </contour>
  </outline>
</glyph>
<glyph name="zero" format="2">
  <advance width="1038.96"/>
  <unicode hex="0030"/>
  <outline>
    <contour>
      <point x="49.28" y="350.0" type="curve" smooth="yes"/>
      <point x="49.28" y="69.0"/>
      <point x="272.38" y="-10.0"/>
      <point x="519.48" y="-10.0" type="curve" smooth="yes"/>
      <point x="767.1999999999999" y="-10.0"/>
      <point x="989.6800000000001" y="69.0"/>
      <point x="989.6800000000001" y="350.0" type="curve" smooth="yes"/>
      <point x="989.6800000000001" y="631.0"/>
      <point x="767.1999999999999" y="710.0"/>
      <point x="519.48" y="710.0" type="curve" smooth="yes"/>
      <point x="272.38000000000005" y="710.0"/>
      <point x="49.28" y="631.0"/>
    </contour>
    <contour>
      <point x="161.04000000000002" y="350.0" type="curve" smooth="yes"/>
      <point x="161.04000000000002" y="570.36"/>
      <point x="330.74" y="635.4399999999999"/>
      <point x="519.48" y="635.4399999999999" type="curve" smooth="yes"/>
      <point x="708.8399999999999" y="635.4399999999999"/>
      <point x="878.54" y="570.3599999999999"/>
      <point x="878.54" y="350.0" type="curve" smooth="yes"/>
      <point x="878.54" y="129.64000000000001"/>
      <point x="708.8399999999999" y="64.56"/>
      <point x="519.48" y="64.56" type="curve" smooth="yes"/>
      <point x="330.74" y="64.56"/>
      <point x="161.04000000000002" y="129.64000000000001"/>
    </contour>
  </outline>
</glyph>
<glyph name="one" format="2">
  <advance width="1038.96"/>
  <unicode hex="0031"/>
  <outline>
    <contour>
      <point x="116.11" y="0.0" type="line"/>
      <point x="986.98" y="0.0" type="line"/>
      <point x="986.98" y="78.9" type="line"/>
      <point x="644.16" y="78.9" type="line"/>
      <point x="644.16" y="706.9" type="line"/>
      <point x="588.76" y="706.9" type="line"/>
      <point x="105.15" y="513.57" type="line"/>
      <point x="132.68" y="437.6000000000001" type="line"/>
      <point x="534.88" y="600.68" type="line"/>
      <point x="534.88" y="78.9" type="line"/>
      <point x="116.11" y="78.9" type="line"/>
    </contour>
  </outline>
</glyph>
<glyph name="two" format="2">
  <advance width="1038.96"/>
  <unicode hex="0032"/>
  <outline>
    <contour>
      <point x="97.38000000000001" y="61.02" type="curve"/>
      <point x="101.38000000000001" y="0.0" type="line"/>
      <point x="956.8600000000001" y="0.0" type="line"/>
      <point x="956.8600000000001" y="78.9" type="line"/>
      <point x="305.85999999999996" y="78.9" type="line"/>
      <point x="724.94" y="257.28"/>
      <point x="838.6800000000001" y="340.21999999999997"/>
      <point x="838.6800000000001" y="486.28000000000003" type="curve" smooth="yes"/>
      <point x="838.6800000000001" y="625.18"/>
      <point x="723.2800000000001" y="710.0"/>
      <point x="488.72" y="710.0" type="curve" smooth="yes"/>
      <point x="369.24" y="710.0"/>
      <point x="230.36" y="681.28"/>
      <point x="137.26" y="637.56" type="curve"/>
      <point x="166.34" y="561.9" type="line"/>
      <point x="259.82" y="602.7600000000001"/>
      <point x="371.76" y="626.1400000000001"/>
      <point x="480.04" y="626.1400000000001" type="curve" smooth="yes"/>
      <point x="657.2" y="626.1400000000001"/>
      <point x="730.02" y="568.4"/>
      <point x="730.02" y="476.97999999999996" type="curve" smooth="yes"/>
      <point x="730.02" y="361.34000000000003"/>
      <point x="627.08" y="295.76"/>
    </contour>
  </outline>
</glyph>
<glyph name="three" format="2">
  <advance width="1038.96"/>
  <unicode hex="0033"/>
  <outline>
    <contour>
      <point x="48.0" y="73.36" type="line"/>
      <point x="171.18" y="17.279999999999998"/>
      <point x="295.99999999999994" y="-9.0"/>
      <point x="472.24" y="-9.0" type="curve" smooth="yes"/>
      <point x="783.7399999999999" y="-9.0"/>
      <point x="954.3" y="71.14"/>
      <point x="954.3" y="210.0" type="curve" smooth="yes"/>
      <point x="954.3" y="301.8"/>
      <point x="866.18" y="360.32"/>
      <point x="706.9799999999999" y="368.52000000000004" type="curve"/>
      <point x="826.34" y="382.0"/>
      <point x="894.04" y="436.9"/>
      <point x="894.04" y="523.8" type="curve" smooth="yes"/>
      <point x="894.04" y="643.38"/>
      <point x="775.66" y="710.0"/>
      <point x="492.62000000000006" y="710.0" type="curve" smooth="yes"/>
      <point x="349.40000000000003" y="710.0"/>
      <point x="209.86" y="691.38"/>
      <point x="113.60000000000001" y="662.4200000000001" type="curve"/>
      <point x="129.38" y="585.3799999999999" type="line"/>
      <point x="232.45999999999998" y="613.7200000000001"/>
      <point x="354.5" y="630.48"/>
      <point x="476.5" y="630.48" type="curve" smooth="yes"/>
      <point x="689.74" y="630.48"/>
      <point x="787.8599999999999" y="587.98"/>
      <point x="787.8599999999999" y="510.02000000000004" type="curve" smooth="yes"/>
      <point x="787.8599999999999" y="435.34"/>
      <point x="699.6999999999999" y="397.6"/>
      <point x="511.61999999999995" y="397.6" type="curve" smooth="yes"/>
      <point x="281.56" y="397.6" type="line"/>
      <point x="281.56" y="328.0" type="line"/>
      <point x="498.22" y="328.0" type="line" smooth="yes"/>
      <point x="729.04" y="328.0"/>
      <point x="844.4" y="296.3"/>
      <point x="844.4" y="214.96" type="curve" smooth="yes"/>
      <point x="844.4" y="122.58"/>
      <point x="716.18" y="69.9"/>
      <point x="468.52000000000004" y="69.9" type="curve" smooth="yes"/>
      <point x="311.53999999999996" y="69.9"/>
      <point x="182.9" y="94.55999999999999"/>
      <point x="69.39999999999999" y="145.3" type="curve"/>
    </contour>
  </outline>
</glyph>
<glyph name="four" format="2">
  <advance width="1038.96"/>
  <unicode hex="0034"/>
  <outline>
    <contour>
      <point x="37.84" y="173.56" type="line"/>
      <point x="682.0400000000001" y="173.56" type="line"/>
      <point x="682.0400000000001" y="0.0" type="line"/>
      <point x="787.6" y="0.0" type="line"/>
      <point x="787.6" y="173.56" type="line"/>
      <point x="996.28" y="173.56" type="line"/>
      <point x="996.28" y="243.16" type="line"/>
      <point x="787.6" y="243.16" type="line"/>
      <point x="787.6" y="700.0" type="line"/>
      <point x="720.28" y="706.9" type="line"/>
      <point x="35.08" y="241.4" type="line"/>
    </contour>
    <contour>
      <point x="160.26" y="243.16" type="line"/>
      <point x="682.04" y="594.82" type="line"/>
      <point x="682.04" y="243.16" type="line"/>
    </contour>
  </outline>
</glyph>
<glyph name="five" format="2">
  <advance width="1038.96"/>
  <unicode hex="0035"/>
  <outline>
    <contour>
      <point x="70.35000000000001" y="73.05000000000001" type="line"/>
      <point x="183.24" y="18.939999999999998"/>
      <point x="296.88" y="-9.31"/>
      <point x="486.80000000000007" y="-9.31" type="curve" smooth="yes"/>
      <point x="797.77" y="-9.31"/>
      <point x="951.92" y="69.73"/>
      <point x="951.92" y="226.95999999999998" type="curve" smooth="yes"/>
      <point x="951.92" y="376.29"/>
      <point x="843.64" y="423.23"/>
      <point x="611.6800000000001" y="423.23" type="curve" smooth="yes"/>
      <point x="222.2" y="423.23" type="line"/>
      <point x="261.25" y="621.0999999999999" type="line"/>
      <point x="886.99" y="621.0999999999999" type="line"/>
      <point x="886.99" y="700.0" type="line"/>
      <point x="186.66" y="700.0" type="line"/>
      <point x="124.24999999999999" y="362.15000000000003" type="line"/>
      <point x="134.55999999999997" y="352.39" type="line"/>
      <point x="571.88" y="352.39" type="line" smooth="yes"/>
      <point x="784.0" y="352.39"/>
      <point x="845.12" y="313.76"/>
      <point x="845.12" y="222.93" type="curve" smooth="yes"/>
      <point x="845.12" y="120.96"/>
      <point x="744.82" y="67.42"/>
      <point x="483.08" y="67.42" type="curve" smooth="yes"/>
      <point x="301.50000000000006" y="67.42"/>
      <point x="190.00000000000003" y="96.91"/>
      <point x="93.37" y="143.13" type="curve"/>
    </contour>
  </outline>
</glyph>
<glyph name="six" format="2">
  <advance width="1038.96"/>
  <unicode hex="0036"/>
  <outline>
    <contour>
      <point x="551.76" y="-10.0" type="curve" smooth="yes"/>
      <point x="831.9200000000001" y="-10.0"/>
      <point x="988.78" y="74.52000000000001"/>
      <point x="988.78" y="225.62" type="curve" smooth="yes"/>
      <point x="988.78" y="372.1"/>
      <point x="847.46" y="444.34"/>
      <point x="603.12" y="444.34" type="curve" smooth="yes"/>
      <point x="430.71999999999997" y="444.34"/>
      <point x="251.1" y="407.02000000000004"/>
      <point x="148.16" y="350.84000000000003" type="curve"/>
      <point x="149.78" y="276.14" type="line"/>
      <point x="249.54" y="325.26"/>
      <point x="415.9" y="366.68"/>
      <point x="570.26" y="366.68" type="curve" smooth="yes"/>
      <point x="764.78" y="366.68"/>
      <point x="878.88" y="324.14"/>
      <point x="878.88" y="224.99999999999997" type="curve" smooth="yes"/>
      <point x="878.88" y="125.58"/>
      <point x="765.12" y="68.28"/>
      <point x="562.3" y="68.28" type="curve" smooth="yes"/>
      <point x="289.37999999999994" y="68.28"/>
      <point x="163.56" y="161.82"/>
      <point x="163.56" y="344.9" type="curve" smooth="yes"/>
      <point x="163.56" y="534.28"/>
      <point x="308.90000000000003" y="628.0000000000001"/>
      <point x="586.9999999999999" y="628.0000000000001" type="curve" smooth="yes"/>
      <point x="716.72" y="628.0000000000001"/>
      <point x="816.02" y="613.1"/>
      <point x="929.3799999999999" y="589.1" type="curve"/>
      <point x="945.78" y="668.62" type="line"/>
      <point x="843.2" y="693.62"/>
      <point x="727.16" y="710.0"/>
      <point x="575.22" y="710.0" type="curve" smooth="yes"/>
      <point x="239.47999999999996" y="710.0"/>
      <point x="53.660000000000004" y="579.9"/>
      <point x="53.660000000000004" y="343.18" type="curve" smooth="yes"/>
      <point x="53.660000000000004" y="109.14"/>
      <point x="213.38000000000002" y="-10.0"/>
    </contour>
  </outline>
</glyph>
<glyph name="seven" format="2">
  <advance width="1038.96"/>
  <unicode hex="0037"/>
  <outline>
    <contour>
      <point x="350.8" y="0.0" type="curve"/>
      <point x="463.8" y="0.0" type="line"/>
      <point x="466.28000000000003" y="122.08"/>
      <point x="525.0400000000001" y="216.94"/>
      <point x="648.0400000000001" y="339.94" type="curve" smooth="yes"/>
      <point x="942.2599999999999" y="634.64" type="line"/>
      <point x="942.2599999999999" y="700.0" type="line"/>
      <point x="93.05999999999999" y="700.0" type="line"/>
      <point x="93.05999999999999" y="617.9999999999999" type="line"/>
      <point x="803.7600000000001" y="617.9999999999999" type="line"/>
      <point x="563.4799999999999" y="380.72" type="line" smooth="yes"/>
      <point x="398.18" y="218.04"/>
      <point x="350.8" y="136.07999999999998"/>
    </contour>
  </outline>
</glyph>
<glyph name="eight" format="2">
  <advance width="1038.96"/>
  <unicode hex="0038"/>
  <outline>
    <contour>
      <point x="685.38" y="377.74" type="curve"/>
      <point x="779.24" y="356.62" type="line"/>
      <point x="899.2599999999999" y="400.14"/>
      <point x="946.1999999999999" y="464.24"/>
      <point x="946.1999999999999" y="532.56" type="curve" smooth="yes"/>
      <point x="946.1999999999999" y="647.28"/>
      <point x="800.1400000000001" y="710.0"/>
      <point x="522.14" y="710.0" type="curve" smooth="yes"/>
      <point x="245.38" y="710.0"/>
      <point x="92.33999999999999" y="644.1800000000001"/>
      <point x="92.33999999999999" y="519.6400000000001" type="curve" smooth="yes"/>
      <point x="92.33999999999999" y="209.34"/>
      <point x="890.1999999999999" y="427.74"/>
      <point x="890.1999999999999" y="199.28" type="curve" smooth="yes"/>
      <point x="890.1999999999999" y="103.75999999999999"/>
      <point x="758.02" y="58.35999999999999"/>
      <point x="522.74" y="58.35999999999999" type="curve" smooth="yes"/>
      <point x="279.1" y="58.35999999999999"/>
      <point x="147.52" y="111.86"/>
      <point x="147.52" y="207.06" type="curve" smooth="yes"/>
      <point x="147.52" y="273.36"/>
      <point x="212.05999999999997" y="327.62"/>
      <point x="335.14" y="364.66" type="curve"/>
      <point x="244.2" y="399.18" type="line"/>
      <point x="103.32" y="356.03999999999996"/>
      <point x="36.38" y="284.8"/>
      <point x="36.38" y="199.72" type="curve" smooth="yes"/>
      <point x="36.38" y="64.62"/>
      <point x="200.24" y="-10.0"/>
      <point x="509.72" y="-10.0" type="curve" smooth="yes"/>
      <point x="830.78" y="-10.0"/>
      <point x="1003.1999999999998" y="60.14000000000001"/>
      <point x="1003.1999999999998" y="211.06000000000003" type="curve" smooth="yes"/>
      <point x="1003.1999999999998" y="517.12"/>
      <point x="197.28" y="314.56000000000006"/>
      <point x="197.28" y="523.2600000000001" type="curve" smooth="yes"/>
      <point x="197.28" y="598.94"/>
      <point x="306.36" y="637.92"/>
      <point x="515.94" y="637.92" type="curve" smooth="yes"/>
      <point x="731.7199999999999" y="637.92"/>
      <point x="841.26" y="596.46"/>
      <point x="841.26" y="520.16" type="curve" smooth="yes"/>
      <point x="841.26" y="465.28"/>
      <point x="805.0400000000001" y="423.82"/>
    </contour>
  </outline>
</glyph>
<glyph name="nine" format="2">
  <advance width="1038.96"/>
  <unicode hex="0039"/>
  <outline>
    <contour>
      <point x="467.9" y="-10.0" type="curve" smooth="yes"/>
      <point x="803.64" y="-10.0"/>
      <point x="983.26" y="118.24"/>
      <point x="983.26" y="352.48" type="curve" smooth="yes"/>
      <point x="983.26" y="589.6199999999999"/>
      <point x="823.54" y="710.0"/>
      <point x="512.76" y="710.0" type="curve" smooth="yes"/>
      <point x="221.56" y="710.0"/>
      <point x="48.14" y="628.38"/>
      <point x="48.14" y="474.14" type="curve" smooth="yes"/>
      <point x="48.14" y="330.79999999999995"/>
      <point x="192.22" y="255.66000000000003"/>
      <point x="427.6" y="255.66000000000003" type="curve" smooth="yes"/>
      <point x="606.1999999999999" y="255.66000000000003"/>
      <point x="785.82" y="289.87999999999994"/>
      <point x="888.76" y="346.67999999999995" type="curve"/>
      <point x="887.14" y="419.52" type="line"/>
      <point x="787.38" y="370.4"/>
      <point x="621.02" y="329.6"/>
      <point x="466.66" y="329.6" type="curve" smooth="yes"/>
      <point x="281.79999999999995" y="329.6"/>
      <point x="158.04" y="380.62"/>
      <point x="158.04" y="476.0" type="curve" smooth="yes"/>
      <point x="158.04" y="579.18"/>
      <point x="288.36" y="632.3399999999999"/>
      <point x="502.21999999999997" y="632.3399999999999" type="curve" smooth="yes"/>
      <point x="747.54" y="632.3399999999999"/>
      <point x="874.6" y="538.8"/>
      <point x="874.6" y="355.1" type="curve" smooth="yes"/>
      <point x="874.6" y="165.72"/>
      <point x="734.22" y="69.52"/>
      <point x="456.12" y="69.52" type="curve" smooth="yes"/>
      <point x="338.8" y="69.52"/>
      <point x="233.3" y="86.9"/>
      <point x="107.54000000000002" y="110.28" type="curve"/>
      <point x="91.14" y="32.0" type="line"/>
      <point x="206.12" y="6.38"/>
      <point x="328.35999999999996" y="-10.0"/>
    </contour>
  </outline>
</glyph>
<glyph name="less" format="2">
  <advance width="628.82"/>
  <unicode hex="003C"/>
  <outline>
    <contour>
      <point x="566.75" y="54.120000000000005" type="line"/>
      <point x="566.75" y="135.33" type="line"/>
      <point x="153.51" y="297.99" type="line"/>
      <point x="566.75" y="461.72" type="line"/>
      <point x="566.75" y="542.8599999999999" type="line"/>
      <point x="62.07" y="336.2" type="line"/>
      <point x="62.07" y="258.85" type="line"/>
    </contour>
  </outline>
</glyph>
<glyph name="equal" format="2">
  <advance width="628.8199999999999"/>
  <unicode hex="003D"/>
  <outline>
    <contour>
      <point x="566.75" y="227.38" type="line"/>
      <point x="62.07" y="227.38" type="line"/>
      <point x="62.07" y="150.02999999999997" type="line"/>
      <point x="566.75" y="150.02999999999997" type="line"/>
    </contour>
    <contour>
      <point x="566.75" y="448.33" type="line"/>
      <point x="62.07" y="448.33" type="line"/>
      <point x="62.07" y="370.98" type="line"/>
      <point x="566.75" y="370.98" type="line"/>
    </contour>
  </outline>
</glyph>
<glyph name="greater" format="2">
  <advance width="628.82"/>
  <unicode hex="003E"/>
  <outline>
    <contour>
      <point x="566.75" y="258.85" type="line"/>
      <point x="566.75" y="336.2" type="line"/>
      <point x="62.07" y="542.8599999999999" type="line"/>
      <point x="62.07" y="461.03000000000003" type="line"/>
      <point x="475.31" y="297.99" type="line"/>
      <point x="62.07" y="135.33" type="line"/>
      <point x="62.07" y="54.120000000000005" type="line"/>
    </contour>
  </outline>
</glyph>
<glyph name="question" format="2">
  <advance width="698.8000000000001"/>
  <unicode hex="003F"/>
  <outline>
    <contour>
      <point x="276.92" y="260.38" type="line"/>
      <point x="368.53000000000003" y="260.38" type="line"/>
      <point x="369.15000000000003" y="319.56" type="line"/>
      <point x="570.6700000000001" y="361.56"/>
      <point x="660.34" y="423.03999999999996"/>
      <point x="660.34" y="536.01" type="curve" smooth="yes"/>
      <point x="660.34" y="700.11"/>
      <point x="498.83" y="750.0"/>
      <point x="355.64" y="750.0" type="curve" smooth="yes"/>
      <point x="243.95000000000002" y="750.0"/>
      <point x="108.47999999999999" y="721.97"/>
      <point x="15.099999999999998" y="666.9" type="curve"/>
      <point x="42.769999999999996" y="594.03" type="line"/>
      <point x="133.84" y="643.0699999999999"/>
      <point x="243.3" y="668.62"/>
      <point x="339.83" y="668.62" type="curve" smooth="yes"/>
      <point x="440.78" y="668.62"/>
      <point x="549.8199999999999" y="638.85"/>
      <point x="549.8199999999999" y="531.98" type="curve" smooth="yes"/>
      <point x="549.8199999999999" y="462.37"/>
      <point x="490.76" y="407.28000000000003"/>
      <point x="274.75" y="371.52000000000004" type="curve"/>
    </contour>
    <contour>
      <point x="264.83" y="43.66" type="curve" smooth="yes"/>
      <point x="264.83" y="9.37"/>
      <point x="280.16" y="-3.41"/>
      <point x="327.09000000000003" y="-3.41" type="curve" smooth="yes"/>
      <point x="374.71" y="-3.41"/>
      <point x="389.34999999999997" y="9.37"/>
      <point x="389.34999999999997" y="43.66" type="curve" smooth="yes"/>
      <point x="389.34999999999997" y="78.26"/>
      <point x="374.71" y="91.04"/>
      <point x="327.09000000000003" y="91.04" type="curve" smooth="yes"/>
      <point x="279.47" y="91.04"/>
      <point x="264.83" y="78.26"/>
    </contour>
  </outline>
</glyph>
<glyph name="at" format="2">
  <advance width="1165.74"/>
  <unicode hex="0040"/>
  <outline>
    <contour>
      <point x="547.2" y="-123.62" type="curve" smooth="yes"/>
      <point x="657.94" y="-123.62"/>
      <point x="767.16" y="-100.91999999999999"/>
      <point x="856.68" y="-68.32000000000001" type="curve"/>
      <point x="840.9999999999999" y="-10.640000000000002" type="line"/>
      <point x="761.92" y="-42.239999999999995"/>
      <point x="660.18" y="-63.94"/>
      <point x="556.5" y="-63.94" type="curve" smooth="yes"/>
      <point x="316.26" y="-63.94"/>
      <point x="140.42000000000002" y="44.620000000000005"/>
      <point x="140.42000000000002" y="269.52" type="curve" smooth="yes"/>
      <point x="140.42000000000002" y="480.44"/>
      <point x="304.36" y="652.18"/>
      <point x="593.8000000000001" y="652.18" type="curve" smooth="yes"/>
      <point x="873.2" y="652.18"/>
      <point x="1029.32" y="533.6800000000001"/>
      <point x="1029.32" y="333.42" type="curve" smooth="yes"/>
      <point x="1029.32" y="208.04"/>
      <point x="972.0999999999999" y="126.04"/>
      <point x="908.18" y="126.04" type="curve" smooth="yes"/>
      <point x="852.5" y="126.04"/>
      <point x="826.5999999999999" y="165.15999999999997"/>
      <point x="831.98" y="249.12" type="curve" smooth="yes"/>
      <point x="847.46" y="482.8" type="line"/>
      <point x="770.7" y="503.52"/>
      <point x="684.2400000000001" y="517.48"/>
      <point x="618.1800000000001" y="517.48" type="curve" smooth="yes"/>
      <point x="413.32" y="517.48"/>
      <point x="297.68" y="400.26"/>
      <point x="297.68" y="263.65999999999997" type="curve" smooth="yes"/>
      <point x="297.68" y="144.79999999999998"/>
      <point x="378.43999999999994" y="70.98"/>
      <point x="496.08000000000004" y="70.98" type="curve" smooth="yes"/>
      <point x="601.26" y="70.98"/>
      <point x="702.3199999999999" y="133.16000000000003"/>
      <point x="749.4999999999999" y="250.21999999999997" type="curve"/>
      <point x="753.62" y="147.74"/>
      <point x="782.22" y="64.88000000000001"/>
      <point x="892.92" y="64.88000000000001" type="curve" smooth="yes"/>
      <point x="1021.0600000000002" y="64.88000000000001"/>
      <point x="1093.5800000000002" y="193.94"/>
      <point x="1093.5800000000002" y="333.42" type="curve" smooth="yes"/>
      <point x="1093.5800000000002" y="567.1400000000001"/>
      <point x="913.1" y="709.62"/>
      <point x="601.8600000000001" y="709.62" type="curve" smooth="yes"/>
      <point x="267.8" y="709.62"/>
      <point x="73.91999999999999" y="514.0"/>
      <point x="73.91999999999999" y="268.28000000000003" type="curve" smooth="yes"/>
      <point x="73.91999999999999" y="4.100000000000001"/>
      <point x="272.26000000000005" y="-123.62"/>
    </contour>
    <contour>
      <point x="525.84" y="143.29999999999998" type="curve" smooth="yes"/>
      <point x="454.3" y="143.29999999999998"/>
      <point x="398.90000000000003" y="190.28"/>
      <point x="398.90000000000003" y="275.44" type="curve" smooth="yes"/>
      <point x="398.90000000000003" y="368.94"/>
      <point x="477.54" y="447.88"/>
      <point x="607.8800000000001" y="447.88" type="curve" smooth="yes"/>
      <point x="648.6800000000001" y="447.88"/>
      <point x="702.5" y="441.22"/>
      <point x="749.96" y="429.59999999999997" type="curve"/>
      <point x="743.24" y="347.90000000000003" type="line" smooth="yes"/>
      <point x="713.24" y="212.72"/>
      <point x="616.12" y="143.29999999999998"/>
    </contour>
  </outline>
</glyph>
<glyph name="A" format="2">
  <advance width="1004.7"/>
  <unicode hex="0041"/>
  <anchor x="996.56" y="0.0" name="ogonek"/>
  <anchor x="497.7" y="0.0" name="bottom"/>
  <anchor x="503.28000000000003" y="700.0" name="top"/>
  <outline>
    <contour>
      <point x="8.76" y="0.0" type="line"/>
      <point x="130.57999999999998" y="0.0" type="line"/>
      <point x="241.72" y="181.07999999999998" type="line"/>
      <point x="753.54" y="181.07999999999998" type="line"/>
      <point x="865.68" y="0.0" type="line"/>
      <point x="996.56" y="0.0" type="line"/>
      <point x="555.88" y="706.9" type="line"/>
      <point x="448.06" y="706.9" type="line"/>
    </contour>
    <contour>
      <point x="279.52000000000004" y="259.6" type="line"/>
      <point x="497.56" y="614.2800000000001" type="line"/>
      <point x="716.1199999999999" y="259.6" type="line"/>
    </contour>
  </outline>
</glyph>
<glyph name="B" format="2">
  <advance width="1060.8000000000002"/>
  <unicode hex="0042"/>
  <anchor x="540.1399999999999" y="700.0" name="top"/>
  <anchor x="540.1399999999999" y="0.0" name="bottom"/>
  <outline>
    <contour>
      <point x="121.54" y="5.0" type="line"/>
      <point x="348.09999999999997" y="-7.619999999999999"/>
      <point x="419.34000000000003" y="-10.0"/>
      <point x="571.8399999999999" y="-10.0" type="curve" smooth="yes"/>
      <point x="897.04" y="-10.0"/>
      <point x="1007.0400000000001" y="44.52"/>
      <point x="1007.0400000000001" y="198.95999999999998" type="curve" smooth="yes"/>
      <point x="1007.0400000000001" y="298.58000000000004"/>
      <point x="921.6600000000001" y="364.2"/>
      <point x="783.04" y="378.20000000000005" type="curve"/>
      <point x="783.04" y="380.20000000000005" type="line"/>
      <point x="888.6200000000001" y="402.53999999999996"/>
      <point x="944.42" y="458.72"/>
      <point x="944.42" y="543.1" type="curve" smooth="yes"/>
      <point x="944.42" y="666.8599999999999"/>
      <point x="844.22" y="710.0"/>
      <point x="557.04" y="710.0" type="curve" smooth="yes"/>
      <point x="442.94" y="710.0"/>
      <point x="327.58000000000004" y="706.0"/>
      <point x="121.54" y="695.0" type="curve"/>
    </contour>
    <contour>
      <point x="234.54" y="401.7" type="line"/>
      <point x="234.54" y="619.96" type="line"/>
      <point x="411.56" y="629.48"/>
      <point x="423.7" y="630.48"/>
      <point x="537.28" y="630.48" type="curve" smooth="yes"/>
      <point x="759.12" y="630.48"/>
      <point x="833.2799999999999" y="600.7800000000001"/>
      <point x="833.2799999999999" y="517.6800000000001" type="curve" smooth="yes"/>
      <point x="833.2799999999999" y="448.2"/>
      <point x="759.12" y="401.7"/>
      <point x="641.5" y="401.7" type="curve" smooth="yes"/>
    </contour>
    <contour>
      <point x="234.54" y="80.42" type="curve"/>
      <point x="234.54" y="324.66" type="line"/>
      <point x="647.9199999999998" y="324.66" type="line" smooth="yes"/>
      <point x="807.26" y="324.66"/>
      <point x="887.84" y="283.16"/>
      <point x="887.84" y="202.54" type="curve" smooth="yes"/>
      <point x="887.84" y="104.12"/>
      <point x="805.1599999999999" y="69.14"/>
      <point x="556.0199999999999" y="69.14" type="curve" smooth="yes"/>
      <point x="472.82000000000005" y="69.14"/>
      <point x="403.91999999999996" y="71.52"/>
    </contour>
  </outline>
</glyph>
<glyph name="C" format="2">
  <advance width="1065.69"/>
  <unicode hex="0043"/>
  <anchor x="586.73" y="700.0" name="top"/>
  <anchor x="580.53" y="0.0" name="bottom"/>
  <outline>
    <contour>
      <point x="74.64" y="333.9" type="curve" smooth="yes"/>
      <point x="74.64" y="103.39"/>
      <point x="256.67" y="-10.0"/>
      <point x="586.49" y="-10.0" type="curve" smooth="yes"/>
      <point x="762.29" y="-10.0"/>
      <point x="894.2" y="10.86"/>
      <point x="1010.72" y="44.07" type="curve"/>
      <point x="989.2200000000001" y="120.17999999999999" type="line"/>
      <point x="872.39" y="89.14"/>
      <point x="735.97" y="71.69"/>
      <point x="601.06" y="71.69" type="curve" smooth="yes"/>
      <point x="329.5" y="71.69"/>
      <point x="190.43" y="164.75"/>
      <point x="190.43" y="337.31" type="curve" smooth="yes"/>
      <point x="190.43" y="523.87"/>
      <point x="335.22999999999996" y="626.76"/>
      <point x="617.4100000000001" y="626.76" type="curve" smooth="yes"/>
      <point x="737.91" y="626.76"/>
      <point x="836.0100000000001" y="615.76"/>
      <point x="949.25" y="589.79" type="curve"/>
      <point x="972.6099999999999" y="669.0" type="line"/>
      <point x="856.5799999999999" y="699.0"/>
      <point x="765.8499999999999" y="710.0"/>
      <point x="612.76" y="710.0" type="curve" smooth="yes"/>
      <point x="267.05" y="710.0"/>
      <point x="74.64" y="580.89"/>
    </contour>
  </outline>
</glyph>
<glyph name="D" format="2">
  <advance width="1148.28"/>
  <unicode hex="0044"/>
  <anchor x="569.3799999999999" y="700.0" name="top"/>
  <outline>
    <contour>
      <point x="546.64" y="-10.0" type="curve" smooth="yes"/>
      <point x="877.9799999999999" y="-10.0"/>
      <point x="1073.6399999999999" y="110.86000000000001"/>
      <point x="1073.6399999999999" y="342.62" type="curve" smooth="yes"/>
      <point x="1073.6399999999999" y="593.8599999999999"/>
      <point x="896.5" y="710.0"/>
      <point x="522.54" y="710.0" type="curve" smooth="yes"/>
      <point x="394.18" y="710.0"/>
      <point x="273.46000000000004" y="707.0"/>
      <point x="121.54" y="700.0" type="curve"/>
      <point x="121.54" y="-4.440892098500626e-16" type="line"/>
      <point x="269.54" y="-4.000000000000001"/>
      <point x="413.58" y="-10.0"/>
    </contour>
    <contour>
      <point x="545.9399999999999" y="65.80000000000001" type="curve" smooth="yes"/>
      <point x="467.36" y="65.80000000000001"/>
      <point x="319.96" y="70.18"/>
      <point x="234.54" y="73.94" type="curve"/>
      <point x="234.54" y="626.68" type="line"/>
      <point x="327.98" y="632.06"/>
      <point x="451.70000000000005" y="634.82"/>
      <point x="528.4200000000001" y="634.82" type="curve" smooth="yes"/>
      <point x="815.3999999999999" y="634.82"/>
      <point x="958.4000000000001" y="538.7"/>
      <point x="958.4000000000001" y="344.24" type="curve" smooth="yes"/>
      <point x="958.4000000000001" y="164.3"/>
      <point x="803.3599999999999" y="65.80000000000001"/>
    </contour>
  </outline>
</glyph>
<glyph name="E" format="2">
  <advance width="979.42"/>
  <unicode hex="0045"/>
  <anchor x="929.5199999999999" y="0.0" name="ogonek"/>
  <anchor x="525.72" y="0.0" name="bottom"/>
  <anchor x="522.78" y="700.0" name="top"/>
  <outline>
    <contour>
      <point x="121.54" y="0.0" type="line"/>
      <point x="929.5199999999999" y="0.0" type="line"/>
      <point x="929.5199999999999" y="88.19999999999999" type="line"/>
      <point x="234.54" y="88.19999999999999" type="line"/>
      <point x="234.54" y="330.84000000000003" type="line"/>
      <point x="868.5199999999999" y="330.84000000000003" type="line"/>
      <point x="868.5199999999999" y="415.94" type="line"/>
      <point x="234.54" y="415.94" type="line"/>
      <point x="234.54" y="611.8" type="line"/>
      <point x="900.52" y="611.8" type="line"/>
      <point x="900.52" y="700.0" type="line"/>
      <point x="121.54" y="700.0" type="line"/>
    </contour>
  </outline>
</glyph>
<glyph name="F" format="2">
  <advance width="932.08"/>
  <unicode hex="0046"/>
  <outline>
    <contour>
      <point x="121.54" y="0.0" type="line"/>
      <point x="234.54" y="0.0" type="line"/>
      <point x="234.54" y="260.84" type="line"/>
      <point x="824.4200000000001" y="260.84" type="line"/>
      <point x="824.4200000000001" y="345.94" type="line"/>
      <point x="234.54" y="345.94" type="line"/>
      <point x="234.54" y="611.8" type="line"/>
      <point x="897.42" y="611.8" type="line"/>
      <point x="897.42" y="700.0" type="line"/>
      <point x="121.54" y="700.0" type="line"/>
    </contour>
  </outline>
</glyph>
<glyph name="G" format="2">
  <advance width="1114.29"/>
  <unicode hex="0047"/>
  <anchor x="572.3100000000001" y="700.0" name="top"/>
  <anchor x="573.49" y="0.0" name="bottom"/>
  <outline>
    <contour>
      <point x="74.64" y="333.9" type="curve" smooth="yes"/>
      <point x="74.64" y="112.11"/>
      <point x="248.47000000000003" y="-10.0"/>
      <point x="562.59" y="-10.0" type="curve" smooth="yes"/>
      <point x="741.0" y="-10.0"/>
      <point x="901.83" y="13.379999999999999"/>
      <point x="1017.8900000000001" y="58.0" type="curve"/>
      <point x="1017.8900000000001" y="348.44" type="line"/>
      <point x="594.83" y="348.44" type="line"/>
      <point x="594.83" y="275.74" type="line"/>
      <point x="917.29" y="275.74" type="line"/>
      <point x="917.29" y="111.67999999999999" type="line"/>
      <point x="825.64" y="81.46000000000001"/>
      <point x="713.85" y="66.73"/>
      <point x="582.43" y="66.73" type="curve" smooth="yes"/>
      <point x="332.77" y="66.73"/>
      <point x="190.43" y="161.69"/>
      <point x="190.43" y="337.31" type="curve" smooth="yes"/>
      <point x="190.43" y="517.45"/>
      <point x="335.57" y="626.76"/>
      <point x="594.64" y="626.76" type="curve" smooth="yes"/>
      <point x="712.9000000000001" y="626.76"/>
      <point x="830.3199999999999" y="612.24"/>
      <point x="951.56" y="580.8199999999999" type="curve"/>
      <point x="973.99" y="658.65" type="line"/>
      <point x="854.5500000000001" y="694.1"/>
      <point x="738.74" y="710.0"/>
      <point x="589.9899999999999" y="710.0" type="curve" smooth="yes"/>
      <point x="260.95000000000005" y="710.0"/>
      <point x="74.64" y="569.13"/>
    </contour>
  </outline>
</glyph>
<glyph name="H" format="2">
  <advance width="1178.77"/>
  <unicode hex="0048"/>
  <anchor x="589.73" y="700.0" name="top"/>
  <outline>
    <contour>
      <point x="121.23" y="0.0" type="line"/>
      <point x="234.23" y="0.0" type="line"/>
      <point x="234.23" y="265.51000000000005" type="line"/>
      <point x="944.5400000000001" y="265.51000000000005" type="line"/>
      <point x="944.5400000000001" y="0.0" type="line"/>
      <point x="1057.54" y="0.0" type="line"/>
      <point x="1057.54" y="700.0" type="line"/>
      <point x="944.5400000000001" y="700.0" type="line"/>
      <point x="944.5400000000001" y="353.71" type="line"/>
      <point x="234.23" y="353.71" type="line"/>
      <point x="234.23" y="700.0" type="line"/>
      <point x="121.23" y="700.0" type="line"/>
    </contour>
  </outline>
</glyph>
<glyph name="J" format="2">
  <advance width="817.7099999999999"/>
  <unicode hex="004A"/>
  <anchor x="406.04" y="700.0" name="top"/>
  <outline>
    <contour>
      <point x="23.73" y="40.309999999999995" type="line"/>
      <point x="137.12" y="6.45"/>
      <point x="269.87" y="-10.69"/>
      <point x="373.48" y="-10.69" type="curve" smooth="yes"/>
      <point x="602.0" y="-10.69"/>
      <point x="719.35" y="80.03"/>
      <point x="719.35" y="291.51000000000005" type="curve" smooth="yes"/>
      <point x="719.35" y="700.0" type="line"/>
      <point x="100.73" y="700.0" type="line"/>
      <point x="100.73" y="613.97" type="line"/>
      <point x="606.3499999999999" y="613.97" type="line"/>
      <point x="606.3499999999999" y="301.73999999999995" type="line" smooth="yes"/>
      <point x="606.3499999999999" y="139.6"/>
      <point x="514.6700000000001" y="72.55"/>
      <point x="351.47" y="72.55" type="curve" smooth="yes"/>
      <point x="266.36" y="72.55"/>
      <point x="152.18" y="90.61999999999999"/>
      <point x="47.4" y="120.75999999999999" type="curve"/>
    </contour>
  </outline>
</glyph>
<glyph name="K" format="2">
  <advance width="1065.2"/>
  <unicode hex="004B"/>
  <anchor x="531.86" y="700.0" name="top"/>
  <anchor x="510.5" y="0.0" name="bottom"/>
  <outline>
    <contour>
      <point x="1015.9" y="-10.0" type="curve" smooth="yes"/>
      <point x="1021.7599999999999" y="-10.0"/>
      <point x="1030.62" y="-10.0"/>
      <point x="1038.48" y="-9.0" type="curve"/>
      <point x="1038.48" y="86.64" type="line"/>
      <point x="1031.0" y="85.64"/>
      <point x="1023.7599999999999" y="85.64"/>
      <point x="1017.2800000000001" y="85.64" type="curve" smooth="yes"/>
      <point x="932.3799999999999" y="86.78"/>
      <point x="862.42" y="117.2"/>
      <point x="714.26" y="200.56" type="curve" smooth="yes"/>
      <point x="233.92" y="470.64" type="line"/>
      <point x="233.92" y="700.0" type="line"/>
      <point x="121.54" y="700.0" type="line"/>
      <point x="121.54" y="0.0" type="line"/>
      <point x="233.92" y="0.0" type="line"/>
      <point x="233.92" y="365.8" type="line"/>
      <point x="695.82" y="103.82" type="line" smooth="yes"/>
      <point x="838.98" y="23.46"/>
      <point x="926.7600000000001" y="-10.0"/>
    </contour>
    <contour>
      <point x="434.5" y="322.9" type="line"/>
      <point x="629.9399999999999" y="382.94"/>
      <point x="878.0" y="495.02"/>
      <point x="1005.64" y="649.98" type="curve"/>
      <point x="924.54" y="710.34" type="line"/>
      <point x="782.5" y="542.6"/>
      <point x="523.96" y="426.41999999999996"/>
      <point x="351.02000000000004" y="361.94" type="curve"/>
    </contour>
  </outline>
</glyph>
<glyph name="L" format="2">
  <advance width="899.07"/>
  <unicode hex="004C"/>
  <anchor x="449.88" y="350.0" name="center"/>
  <anchor x="177.73000000000002" y="700.0" name="top"/>
  <anchor x="558.76" y="700.0" name="topright"/>
  <anchor x="485.61" y="0.0" name="bottom"/>
  <outline>
    <contour>
      <point x="121.23" y="0.0" type="line"/>
      <point x="868.21" y="0.0" type="line"/>
      <point x="868.21" y="88.19999999999999" type="line"/>
      <point x="234.23" y="88.19999999999999" type="line"/>
      <point x="234.23" y="700.0" type="line"/>
      <point x="121.23" y="700.0" type="line"/>
    </contour>
  </outline>
</glyph>
<glyph name="M" format="2">
  <advance width="1317.56"/>
  <unicode hex="004D"/>
  <outline>
    <contour>
      <point x="121.23" y="0.0" type="line"/>
      <point x="226.48000000000002" y="0.0" type="line"/>
      <point x="226.48000000000002" y="573.6999999999999" type="line"/>
      <point x="633.39" y="230.38" type="line"/>
      <point x="681.3799999999999" y="230.38" type="line"/>
      <point x="1091.0800000000002" y="576.73" type="line"/>
      <point x="1091.0800000000002" y="0.0" type="line"/>
      <point x="1196.3300000000002" y="0.0" type="line"/>
      <point x="1196.3300000000002" y="700.0" type="line"/>
      <point x="1089.98" y="700.0" type="line"/>
      <point x="660.64" y="328.88" type="line"/>
      <point x="233.78" y="700.0" type="line"/>
      <point x="121.23" y="700.0" type="line"/>
    </contour>
  </outline>
</glyph>
<glyph name="N" format="2">
  <advance width="1150.56"/>
  <unicode hex="004E"/>
  <anchor x="575.7800000000001" y="700.0" name="top"/>
  <anchor x="575.7800000000001" y="0.0" name="bottom"/>
  <outline>
    <contour>
      <point x="121.23" y="0.0" type="line"/>
      <point x="224.93" y="0.0" type="line"/>
      <point x="224.93" y="569.3000000000001" type="line"/>
      <point x="932.9" y="0.0" type="line"/>
      <point x="1029.33" y="0.0" type="line"/>
      <point x="1029.33" y="700.0" type="line"/>
      <point x="925.6300000000001" y="700.0" type="line"/>
      <point x="925.6300000000001" y="127.99000000000002" type="line"/>
      <point x="217.97" y="706.9" type="line"/>
      <point x="121.23" y="706.9" type="line"/>
    </contour>
  </outline>
</glyph>
<glyph name="O" format="2">
  <advance width="1222.28"/>
  <unicode hex="004F"/>
  <anchor x="691.7500000000001" y="-0.9300000000000006" name="ogonek"/>
  <anchor x="609.95" y="700.0" name="top"/>
  <anchor x="942.08" y="666.99" name="topright"/>
  <anchor x="610.57" y="0.0" name="bottom"/>
  <outline>
    <contour>
      <point x="610.26" y="65.8" type="curve" smooth="yes"/>
      <point x="411.54" y="65.8"/>
      <point x="189.5" y="128.07999999999998"/>
      <point x="189.5" y="350.62" type="curve" smooth="yes"/>
      <point x="189.5" y="580.51"/>
      <point x="409.99" y="634.82"/>
      <point x="610.26" y="634.82" type="curve" smooth="yes"/>
      <point x="813.08" y="634.82"/>
      <point x="1031.78" y="578.1"/>
      <point x="1031.78" y="350.62" type="curve" smooth="yes"/>
      <point x="1031.78" y="122.14"/>
      <point x="812.77" y="65.8"/>
    </contour>
    <contour>
      <point x="610.57" y="-10.0" type="curve" smooth="yes"/>
      <point x="894.32" y="-10.0"/>
      <point x="1147.33" y="68.77"/>
      <point x="1147.33" y="355.0" type="curve" smooth="yes"/>
      <point x="1147.33" y="629.06"/>
      <point x="893.4799999999999" y="710.0"/>
      <point x="610.26" y="710.0" type="curve" smooth="yes"/>
      <point x="323.66" y="710.0"/>
      <point x="74.95" y="626.3"/>
      <point x="74.95" y="351.55" type="curve" smooth="yes"/>
      <point x="74.95" y="80.5"/>
      <point x="331.1" y="-10.0"/>
    </contour>
  </outline>
</glyph>
<glyph name="P" format="2">
  <advance width="1066.83"/>
  <unicode hex="0050"/>
  <outline>
    <contour>
      <point x="121.23" y="0.0" type="line"/>
      <point x="234.23" y="0.0" type="line"/>
      <point x="234.23" y="224.27" type="line"/>
      <point x="395.92" y="220.26999999999998"/>
      <point x="434.10999999999996" y="219.57999999999998"/>
      <point x="573.13" y="219.57999999999998" type="curve" smooth="yes"/>
      <point x="899.43" y="219.57999999999998"/>
      <point x="1011.5400000000001" y="278.33"/>
      <point x="1011.5400000000001" y="469.05" type="curve" smooth="yes"/>
      <point x="1011.5400000000001" y="643.24"/>
      <point x="922.89" y="710.0"/>
      <point x="528.29" y="710.0" type="curve" smooth="yes"/>
      <point x="464.6" y="710.0"/>
      <point x="352.84000000000003" y="707.6899999999999"/>
      <point x="121.23" y="700.0" type="curve"/>
    </contour>
    <contour>
      <point x="234.23" y="624.51" type="line"/>
      <point x="411.09000000000003" y="631.27"/>
      <point x="467.25" y="632.65"/>
      <point x="536.6600000000001" y="632.65" type="curve" smooth="yes"/>
      <point x="825.8699999999999" y="632.65"/>
      <point x="896.37" y="584.5"/>
      <point x="896.37" y="468.73999999999995" type="curve" smooth="yes"/>
      <point x="896.37" y="343.39000000000004"/>
      <point x="828.86" y="297.86"/>
      <point x="529.4200000000001" y="297.86" type="curve" smooth="yes"/>
      <point x="419.07" y="297.86"/>
      <point x="361.19" y="300.24"/>
      <point x="234.23" y="303.55" type="curve"/>
    </contour>
  </outline>
</glyph>
<glyph name="Q" format="2">
  <advance width="1222.28"/>
  <unicode hex="0051"/>
  <outline>
    <contour>
      <point x="765.88" y="12.259999999999998" type="curve"/>
      <point x="659.9399999999999" y="0.09999999999999987" type="line"/>
      <point x="728.9" y="-124.43999999999998"/>
      <point x="817.0600000000001" y="-208.93"/>
      <point x="945.81" y="-208.93" type="curve" smooth="yes"/>
      <point x="990.0500000000001" y="-208.93"/>
      <point x="1041.36" y="-199.48"/>
      <point x="1097.43" y="-176.89" type="curve"/>
      <point x="1081.99" y="-99.99" type="line"/>
      <point x="1039.1499999999999" y="-118.10000000000001"/>
      <point x="999.8299999999999" y="-126.62"/>
      <point x="965.6500000000001" y="-126.62" type="curve" smooth="yes"/>
      <point x="876.9699999999999" y="-126.62"/>
      <point x="816.89" y="-68.63"/>
    </contour>
    <component base="O"/>
  </outline>
</glyph>
<glyph name="R" format="2">
  <advance width="1113.3"/>
  <unicode hex="0052"/>
  <anchor x="537.08" y="700.0" name="top"/>
  <anchor x="556.4" y="0.0" name="bottom"/>
  <outline>
    <contour>
      <point x="1072.6000000000001" y="-10.0" type="curve" smooth="yes"/>
      <point x="1079.08" y="-10.0"/>
      <point x="1088.56" y="-10.0"/>
      <point x="1095.8" y="-9.0" type="curve"/>
      <point x="1095.8" y="83.54" type="line"/>
      <point x="1089.56" y="82.53999999999999"/>
      <point x="1082.3200000000002" y="82.53999999999999"/>
      <point x="1077.08" y="82.53999999999999" type="curve" smooth="yes"/>
      <point x="992.1399999999999" y="82.53999999999999"/>
      <point x="850.6" y="184.14"/>
      <point x="712.0" y="294.5" type="curve"/>
      <point x="886.54" y="311.46000000000004"/>
      <point x="991.78" y="357.32"/>
      <point x="991.78" y="504.32000000000005" type="curve" smooth="yes"/>
      <point x="991.78" y="661.32"/>
      <point x="868.4" y="709.62"/>
      <point x="504.28000000000003" y="709.62" type="curve" smooth="yes"/>
      <point x="391.84000000000003" y="709.62"/>
      <point x="287.59999999999997" y="708.0"/>
      <point x="121.54" y="701.38" type="curve"/>
      <point x="121.54" y="0.0" type="line"/>
      <point x="234.54000000000002" y="0.0" type="line"/>
      <point x="234.54000000000002" y="277.28" type="line"/>
      <point x="325.24" y="274.9"/>
      <point x="415.34000000000003" y="273.52"/>
      <point x="494.0" y="273.52" type="curve" smooth="yes"/>
      <point x="517.0799999999999" y="273.52"/>
      <point x="550.6999999999999" y="272.9"/>
      <point x="573.7800000000001" y="273.28" type="curve"/>
      <point x="749.34" y="134.88"/>
      <point x="944.38" y="-10.0"/>
    </contour>
    <contour>
      <point x="520.6600000000001" y="354.28000000000003" type="curve" smooth="yes"/>
      <point x="433.32" y="354.28000000000003"/>
      <point x="345.08" y="356.28"/>
      <point x="234.54000000000002" y="359.28" type="curve"/>
      <point x="234.54000000000002" y="630.3" type="line"/>
      <point x="355.34000000000003" y="635.68"/>
      <point x="394.32" y="635.68"/>
      <point x="511.1" y="635.68" type="curve" smooth="yes"/>
      <point x="783.72" y="635.68"/>
      <point x="875.68" y="604.4000000000001"/>
      <point x="875.68" y="493.16" type="curve" smooth="yes"/>
      <point x="875.68" y="385.54"/>
      <point x="797.5200000000001" y="354.28000000000003"/>
    </contour>
  </outline>
</glyph>
<glyph name="S" format="2">
  <advance width="989.1800000000001"/>
  <unicode hex="0053"/>
  <anchor x="496.12" y="700.0" name="top"/>
  <anchor x="492.06" y="0.0" name="bottom"/>
  <outline>
    <contour>
      <point x="870.5400000000001" y="664.0999999999999" type="line"/>
      <point x="800.1999999999999" y="680.94"/>
      <point x="654.24" y="710.0"/>
      <point x="507.88" y="710.0" type="curve" smooth="yes"/>
      <point x="218.32" y="710.0"/>
      <point x="75.26" y="647.96"/>
      <point x="75.26" y="506.78000000000003" type="curve" smooth="yes"/>
      <point x="75.26" y="365.12"/>
      <point x="236.01999999999998" y="329.23999999999995"/>
      <point x="434.62" y="309.86" type="curve" smooth="yes"/>
      <point x="649.84" y="289.0"/>
      <point x="818.0600000000001" y="279.3"/>
      <point x="818.0600000000001" y="186.44" type="curve" smooth="yes"/>
      <point x="818.0600000000001" y="103.53999999999999"/>
      <point x="713.86" y="68.9"/>
      <point x="500.21999999999997" y="68.9" type="curve" smooth="yes"/>
      <point x="335.7" y="68.9"/>
      <point x="135.76" y="113.83999999999999"/>
      <point x="58.0" y="137.52" type="curve"/>
      <point x="37.12" y="54.900000000000006" type="line"/>
      <point x="113.64" y="33.080000000000005"/>
      <point x="313.1" y="-10.0"/>
      <point x="485.34" y="-10.0" type="curve" smooth="yes"/>
      <point x="778.7" y="-10.0"/>
      <point x="934.78" y="48.620000000000005"/>
      <point x="934.78" y="196.36" type="curve" smooth="yes"/>
      <point x="934.78" y="339.22"/>
      <point x="766.2" y="371.14000000000004"/>
      <point x="552.5600000000001" y="390.62" type="curve" smooth="yes"/>
      <point x="347.16" y="409.09999999999997"/>
      <point x="191.36" y="419.7"/>
      <point x="191.36" y="516.08" type="curve" smooth="yes"/>
      <point x="191.36" y="591.94"/>
      <point x="295.56" y="632.34"/>
      <point x="499.2" y="632.34" type="curve" smooth="yes"/>
      <point x="630.4" y="632.34"/>
      <point x="786.14" y="602.66"/>
      <point x="850.9000000000001" y="583.96" type="curve"/>
    </contour>
  </outline>
</glyph>
<glyph name="T" format="2">
  <advance width="912.88"/>
  <unicode hex="0054"/>
  <anchor x="456.44" y="700.0" name="top"/>
  <anchor x="456.44" y="0.0" name="bottom"/>
  <outline>
    <contour>
      <point x="897.8900000000001" y="612.49" type="line"/>
      <point x="897.8900000000001" y="700.0" type="line"/>
      <point x="14.989999999999998" y="700.0" type="line"/>
      <point x="14.989999999999998" y="612.49" type="line"/>
      <point x="399.94" y="612.49" type="line"/>
      <point x="399.94" y="0.0" type="line"/>
      <point x="512.9399999999999" y="0.0" type="line"/>
      <point x="512.9399999999999" y="612.49" type="line"/>
    </contour>
  </outline>
</glyph>
<glyph name="U" format="2">
  <advance width="1130.6200000000001"/>
  <unicode hex="0055"/>
  <anchor x="653.15" y="0.0" name="ogonek"/>
  <anchor x="565.3100000000001" y="700.0" name="top"/>
  <anchor x="1032.26" y="700.0" name="topright"/>
  <anchor x="565.3100000000001" y="0.0" name="bottom"/>
  <outline>
    <contour>
      <point x="98.36" y="292.0" type="line"/>
      <point x="98.36" y="58.120000000000005"/>
      <point x="312.59999999999997" y="-10.0"/>
      <point x="565.3100000000001" y="-10.0" type="curve" smooth="yes"/>
      <point x="818.02" y="-10.0"/>
      <point x="1032.26" y="58.120000000000005"/>
      <point x="1032.26" y="292.0" type="curve" smooth="yes"/>
      <point x="1032.26" y="700.0" type="line"/>
      <point x="921.74" y="700.0" type="line"/>
      <point x="921.74" y="301.92" type="line" smooth="yes"/>
      <point x="921.74" y="118.75999999999999"/>
      <point x="744.16" y="71.07"/>
      <point x="566.24" y="71.07" type="curve" smooth="yes"/>
      <point x="390.49" y="71.07"/>
      <point x="208.88" y="115.97"/>
      <point x="208.88" y="301.92" type="curve" smooth="yes"/>
      <point x="208.88" y="700.0" type="line"/>
      <point x="98.36" y="700.0" type="line"/>
    </contour>
  </outline>
</glyph>
<glyph name="V" format="2">
  <advance width="1016.2099999999999"/>
  <unicode hex="0056"/>
  <outline>
    <contour>
      <point x="453.34999999999997" y="0.0" type="line"/>
      <point x="563.17" y="0.0" type="line"/>
      <point x="1009.03" y="696.17" type="line"/>
      <point x="889.18" y="704.14" type="line"/>
      <point x="508.88" y="99.3" type="line"/>
      <point x="127.96000000000001" y="704.14" type="line"/>
      <point x="7.1800000000000015" y="696.17" type="line"/>
    </contour>
  </outline>
</glyph>
<glyph name="W" format="2">
  <advance width="1350.18"/>
  <unicode hex="0057"/>
  <anchor x="675.09" y="700.0" name="top"/>
  <anchor x="675.09" y="0.0" name="bottom"/>
  <outline>
    <contour>
      <point x="1058.42" y="0.0" type="line"/>
      <point x="1341.1399999999999" y="697.55" type="line"/>
      <point x="1223.01" y="702.76" type="line"/>
      <point x="1008.88" y="123.83000000000001" type="line"/>
      <point x="733.45" y="662.0" type="line"/>
      <point x="622.6199999999999" y="662.0" type="line"/>
      <point x="341.91999999999996" y="122.59" type="line"/>
      <point x="125.31" y="702.76" type="line"/>
      <point x="9.040000000000001" y="697.55" type="line"/>
      <point x="288.03999999999996" y="0.0" type="line"/>
      <point x="389.70000000000005" y="0.0" type="line"/>
      <point x="671.99" y="532.91" type="line"/>
      <point x="947.77" y="0.0" type="line"/>
    </contour>
  </outline>
</glyph>
<glyph name="X" format="2">
  <advance width="989.66"/>
  <unicode hex="0058"/>
  <outline>
    <contour>
      <point x="15.319999999999999" y="5.52" type="line"/>
      <point x="136.67999999999998" y="-5.52" type="line"/>
      <point x="493.2800000000001" y="302.98" type="line"/>
      <point x="843.06" y="-5.52" type="line"/>
      <point x="974.3400000000001" y="5.52" type="line"/>
      <point x="569.66" y="361.86" type="line"/>
      <point x="951.0600000000001" y="694.0999999999999" type="line"/>
      <point x="836.5200000000001" y="703.9000000000001" type="line"/>
      <point x="500.7200000000001" y="418.5" type="line"/>
      <point x="175.45999999999998" y="705.14" type="line"/>
      <point x="42.32000000000001" y="694.0999999999999" type="line"/>
      <point x="431.15999999999997" y="360.61999999999995" type="line"/>
    </contour>
  </outline>
</glyph>
<glyph name="Y" format="2">
  <advance width="997.96"/>
  <unicode hex="0059"/>
  <anchor x="498.98" y="700.0" name="top"/>
  <anchor x="503.81" y="0.0" name="bottom"/>
  <outline>
    <contour>
      <point x="447.31" y="0.0" type="line"/>
      <point x="560.3100000000001" y="0.0" type="line"/>
      <point x="560.3100000000001" y="286.03" type="line"/>
      <point x="990.78" y="694.4799999999999" type="line"/>
      <point x="872.1400000000001" y="705.5200000000001" type="line"/>
      <point x="504.42999999999995" y="348.35999999999996" type="line"/>
      <point x="127.06" y="705.5200000000001" type="line"/>
      <point x="7.18" y="694.4799999999999" type="line"/>
      <point x="447.31" y="286.03" type="line"/>
    </contour>
  </outline>
</glyph>
<glyph name="Z" format="2">
  <advance width="970.14"/>
  <unicode hex="005A"/>
  <anchor x="482.74" y="350.0" name="center"/>
  <anchor x="482.74" y="0.0" name="bottom"/>
  <anchor x="487.19" y="700.0" name="top"/>
  <outline>
    <contour>
      <point x="42.83" y="0.0" type="line"/>
      <point x="933.45" y="0.0" type="line"/>
      <point x="933.45" y="79.21000000000001" type="line"/>
      <point x="211.1" y="79.21000000000001" type="line"/>
      <point x="211.1" y="80.9" type="line"/>
      <point x="886.76" y="631.06" type="line"/>
      <point x="886.76" y="700.0" type="line"/>
      <point x="71.77" y="700.0" type="line"/>
      <point x="71.77" y="621.41" type="line"/>
      <point x="721.59" y="621.41" type="line"/>
      <point x="721.59" y="619.1" type="line"/>
      <point x="42.83" y="69.56" type="line"/>
    </contour>
  </outline>
</glyph>
<glyph name="bracketleft" format="2">
  <advance width="476.53999999999996"/>
  <unicode hex="005B"/>
  <outline>
    <contour>
      <point x="199.69" y="-147.22" type="line"/>
      <point x="199.69" y="677.22" type="line"/>
      <point x="433.02000000000004" y="677.22" type="line"/>
      <point x="433.02000000000004" y="740.0" type="line"/>
      <point x="114.59" y="740.0" type="line"/>
      <point x="114.59" y="-210.0" type="line"/>
      <point x="433.02000000000004" y="-210.0" type="line"/>
      <point x="433.02000000000004" y="-147.22" type="line"/>
    </contour>
  </outline>
</glyph>
<glyph name="backslash" format="2">
  <advance width="504.93"/>
  <unicode hex="005C"/>
  <outline>
    <contour>
      <point x="94.93" y="740.0" type="line"/>
      <point x="10.0" y="740.0" type="line"/>
      <point x="409.99999999999994" y="-210.0" type="line"/>
      <point x="494.93" y="-210.0" type="line"/>
    </contour>
  </outline>
</glyph>
<glyph name="bracketright" format="2">
  <advance width="476.53999999999996"/>
  <unicode hex="005D"/>
  <outline>
    <contour>
      <point x="43.519999999999996" y="-147.22" type="line"/>
      <point x="43.519999999999996" y="-210.0" type="line"/>
      <point x="361.95" y="-210.0" type="line"/>
      <point x="361.95" y="740.0" type="line"/>
      <point x="43.519999999999996" y="740.0" type="line"/>
      <point x="43.519999999999996" y="677.22" type="line"/>
      <point x="276.84999999999997" y="677.22" type="line"/>
      <point x="276.84999999999997" y="-147.22" type="line"/>
    </contour>
  </outline>
</glyph>
<glyph name="asciicircum" format="2">
  <advance width="628.82"/>
  <unicode hex="005E"/>
  <outline>
    <contour>
      <point x="53.73" y="253.05999999999997" type="line"/>
      <point x="142.45" y="253.05999999999997" type="line"/>
      <point x="314.41" y="599.51" type="line"/>
      <point x="486.68" y="253.05999999999997" type="line"/>
      <point x="575.09" y="253.05999999999997" type="line"/>
      <point x="358.51" y="706.9" type="line"/>
      <point x="270.31" y="706.9" type="line"/>
    </contour>
  </outline>
</glyph>
<glyph name="underscore" format="2">
  <advance width="1012.4000000000001"/>
  <unicode hex="005F"/>
  <outline>
    <contour>
      <point x="6.2" y="-158.94" type="line"/>
      <point x="1006.2" y="-158.94" type="line"/>
      <point x="1006.2" y="-93.06" type="line"/>
      <point x="6.2" y="-93.06" type="line"/>
    </contour>
  </outline>
</glyph>
<glyph name="a" format="2">
  <advance width="826.3599999999999"/>
  <unicode hex="0061"/>
  <anchor x="795.72" y="2.1" name="ogonek"/>
  <anchor x="412.44" y="0.0" name="bottom"/>
  <anchor x="413.82" y="536.2" name="top"/>
  <outline>
    <contour>
      <point x="63.88000000000001" y="134.64000000000001" type="curve" smooth="yes"/>
      <point x="63.88000000000001" y="27.139999999999997"/>
      <point x="151.38" y="-10.0"/>
      <point x="257.23999999999995" y="-10.0" type="curve" smooth="yes"/>
      <point x="404.15999999999997" y="-10.0"/>
      <point x="518.2199999999999" y="40.86000000000001"/>
      <point x="603.46" y="102.9" type="curve"/>
      <point x="614.0" y="14.5"/>
      <point x="661.02" y="-10.0"/>
      <point x="732.36" y="-10.0" type="curve" smooth="yes"/>
      <point x="760.62" y="-10.0"/>
      <point x="789.88" y="-3.2800000000000002"/>
      <point x="814.32" y="10.780000000000001" type="curve"/>
      <point x="802.74" y="73.66" type="line"/>
      <point x="790.9799999999999" y="69.28"/>
      <point x="778.9799999999999" y="67.9"/>
      <point x="768.22" y="67.9" type="curve" smooth="yes"/>
      <point x="727.6200000000001" y="67.9"/>
      <point x="702.06" y="89.32"/>
      <point x="702.8199999999999" y="165.85999999999999" type="curve" smooth="yes"/>
      <point x="704.7199999999999" y="352.38" type="line" smooth="yes"/>
      <point x="705.8599999999999" y="489.85999999999996"/>
      <point x="590.58" y="546.2"/>
      <point x="393.04" y="546.2" type="curve" smooth="yes"/>
      <point x="302.74" y="546.2"/>
      <point x="204.54" y="531.58"/>
      <point x="113.53999999999999" y="509.82" type="curve"/>
      <point x="126.22" y="439.6" type="line"/>
      <point x="215.44" y="461.88"/>
      <point x="313.98" y="474.74"/>
      <point x="388.21999999999997" y="474.74" type="curve" smooth="yes"/>
      <point x="527.8000000000001" y="474.74"/>
      <point x="599.92" y="431.34000000000003"/>
      <point x="599.16" y="351.14" type="curve" smooth="yes"/>
      <point x="598.78" y="309.88" type="line"/>
      <point x="227.04000000000002" y="301.7"/>
      <point x="63.88000000000001" y="286.3"/>
    </contour>
    <contour>
      <point x="173.78" y="140.88" type="curve" smooth="yes"/>
      <point x="173.78" y="244.01999999999998"/>
      <point x="322.78000000000003" y="251.5"/>
      <point x="598.4" y="256.78000000000003" type="curve"/>
      <point x="597.26" y="160.51999999999998" type="line"/>
      <point x="507.78" y="89.75999999999999"/>
      <point x="379.8" y="52.779999999999994"/>
      <point x="293.82" y="52.779999999999994" type="curve" smooth="yes"/>
      <point x="219.66" y="52.779999999999994"/>
      <point x="173.78" y="80.72000000000001"/>
    </contour>
  </outline>
</glyph>
<glyph name="b" format="2">
  <advance width="882.0799999999999"/>
  <unicode hex="0062"/>
  <outline>
    <contour>
      <point x="102.3" y="21.619999999999997" type="line"/>
      <point x="227.58999999999997" y="0.31000000000000005"/>
      <point x="329.09" y="-10.0"/>
      <point x="418.32" y="-10.0" type="curve" smooth="yes"/>
      <point x="690.65" y="-10.0"/>
      <point x="822.0300000000001" y="85.97"/>
      <point x="822.0300000000001" y="283.14" type="curve" smooth="yes"/>
      <point x="822.0300000000001" y="447.03000000000003"/>
      <point x="714.1299999999999" y="546.2"/>
      <point x="534.9200000000001" y="546.2" type="curve" smooth="yes"/>
      <point x="426.49999999999994" y="546.2"/>
      <point x="332.08000000000004" y="514.1600000000001"/>
      <point x="209.10000000000002" y="433.79999999999995" type="curve"/>
      <point x="209.10000000000002" y="740.0" type="line"/>
      <point x="102.3" y="740.0" type="line"/>
    </contour>
    <contour>
      <point x="209.10000000000002" y="83.19" type="curve"/>
      <point x="209.10000000000002" y="366.54" type="line"/>
      <point x="320.67999999999995" y="437.67"/>
      <point x="404.18" y="466.68"/>
      <point x="494.93000000000006" y="466.68" type="curve" smooth="yes"/>
      <point x="631.0" y="466.68"/>
      <point x="713.99" y="395.90000000000003"/>
      <point x="713.99" y="278.8" type="curve" smooth="yes"/>
      <point x="713.99" y="132.93"/>
      <point x="614.79" y="59.22"/>
      <point x="419.25" y="59.22" type="curve" smooth="yes"/>
      <point x="360.24" y="59.22"/>
      <point x="288.57000000000005" y="66.98"/>
    </contour>
  </outline>
</glyph>
<glyph name="c" format="2">
  <advance width="828.89"/>
  <unicode hex="0063"/>
  <anchor x="465.96999999999997" y="536.2" name="top"/>
  <anchor x="465.04" y="0.0" name="bottom"/>
  <outline>
    <contour>
      <point x="60.36" y="252.23999999999998" type="curve" smooth="yes"/>
      <point x="60.36" y="80.9"/>
      <point x="199.81" y="-10.0"/>
      <point x="463.35" y="-10.0" type="curve" smooth="yes"/>
      <point x="568.9300000000001" y="-10.0"/>
      <point x="689.72" y="5.83"/>
      <point x="787.02" y="29.830000000000005" type="curve"/>
      <point x="774.6500000000001" y="94.16" type="line"/>
      <point x="678.07" y="72.63999999999999"/>
      <point x="575.4000000000001" y="58.669999999999995"/>
      <point x="483.46999999999997" y="58.669999999999995" type="curve" smooth="yes"/>
      <point x="283.39" y="58.669999999999995"/>
      <point x="167.16" y="117.38999999999999"/>
      <point x="167.16" y="255.65" type="curve" smooth="yes"/>
      <point x="167.16" y="407.57"/>
      <point x="285.46999999999997" y="476.29"/>
      <point x="475.58" y="476.29" type="curve" smooth="yes"/>
      <point x="557.41" y="476.29"/>
      <point x="668.66" y="462.77000000000004"/>
      <point x="759.41" y="443.32000000000005" type="curve"/>
      <point x="771.16" y="511.37" type="line"/>
      <point x="685.68" y="532.0600000000001"/>
      <point x="567.5400000000001" y="546.2"/>
      <point x="474.03000000000003" y="546.2" type="curve" smooth="yes"/>
      <point x="218.91" y="546.2"/>
      <point x="60.36" y="440.96"/>
    </contour>
  </outline>
</glyph>
<glyph name="d" format="2">
  <advance width="882.6999999999999"/>
  <unicode hex="0064"/>
  <anchor x="443.40000000000003" y="275.0" name="center"/>
  <anchor x="436.68" y="740.0" name="top"/>
  <anchor x="881.12" y="740.0" name="topright"/>
  <anchor x="443.40000000000003" y="0.0" name="bottom"/>
  <outline>
    <contour>
      <point x="692.3799999999999" y="-1.24" type="line"/>
      <point x="780.4" y="-1.24" type="line"/>
      <point x="780.4" y="740.0" type="line"/>
      <point x="673.5999999999999" y="740.0" type="line"/>
      <point x="673.5999999999999" y="527.64" type="line"/>
      <point x="603.8599999999999" y="539.6800000000001"/>
      <point x="528.98" y="546.2"/>
      <point x="463.76" y="546.2" type="curve" smooth="yes"/>
      <point x="191.74" y="546.2"/>
      <point x="60.36" y="450.53999999999996"/>
      <point x="60.36" y="253.06000000000003" type="curve" smooth="yes"/>
      <point x="60.36" y="89.48"/>
      <point x="168.26000000000002" y="-10.0"/>
      <point x="347.15999999999997" y="-10.0" type="curve" smooth="yes"/>
      <point x="455.58" y="-10.0"/>
      <point x="550.0" y="22.04"/>
      <point x="672.98" y="102.02000000000001" type="curve"/>
    </contour>
    <contour>
      <point x="672.98" y="169.66000000000003" type="line"/>
      <point x="561.4000000000001" y="98.83999999999999"/>
      <point x="477.9" y="69.52"/>
      <point x="387.46" y="69.52" type="curve" smooth="yes"/>
      <point x="251.07999999999998" y="69.52"/>
      <point x="168.4" y="139.92"/>
      <point x="168.4" y="257.4" type="curve" smooth="yes"/>
      <point x="168.4" y="403.58"/>
      <point x="267.6" y="476.97999999999996"/>
      <point x="463.14000000000004" y="476.97999999999996" type="curve" smooth="yes"/>
      <point x="522.4599999999999" y="476.97999999999996"/>
      <point x="593.8199999999999" y="469.22"/>
      <point x="672.98" y="453.32" type="curve"/>
    </contour>
  </outline>
</glyph>
<glyph name="e" format="2">
  <advance width="858.4799999999999"/>
  <unicode hex="0065"/>
  <anchor x="742.96" y="19.9" name="ogonek"/>
  <anchor x="447.18" y="0.0" name="bottom"/>
  <anchor x="450.9" y="536.2" name="top"/>
  <outline>
    <contour>
      <point x="436.26" y="-10.0" type="curve" smooth="yes"/>
      <point x="583.3000000000001" y="-10.0"/>
      <point x="711.52" y="11.04"/>
      <point x="796.4" y="30.14" type="curve"/>
      <point x="784.96" y="99.11999999999999" type="line"/>
      <point x="699.98" y="82.25999999999999"/>
      <point x="569.24" y="61.459999999999994"/>
      <point x="446.18" y="61.459999999999994" type="curve" smooth="yes"/>
      <point x="279.88" y="61.459999999999994"/>
      <point x="168.4" y="118.04"/>
      <point x="168.4" y="227.3" type="curve" smooth="yes"/>
      <point x="168.4" y="236.58"/>
      <point x="168.78" y="244.24"/>
      <point x="169.78" y="253.14000000000001" type="curve"/>
      <point x="477.96" y="254.38"/>
      <point x="720.1800000000001" y="270.28000000000003"/>
      <point x="800.3" y="273.90000000000003" type="curve"/>
      <point x="801.3" y="289.2"/>
      <point x="801.3" y="304.5"/>
      <point x="801.3" y="313.21999999999997" type="curve" smooth="yes"/>
      <point x="801.3" y="472.86"/>
      <point x="689.58" y="546.2"/>
      <point x="467.55999999999995" y="546.2" type="curve" smooth="yes"/>
      <point x="253.46" y="546.2"/>
      <point x="60.36" y="457.96"/>
      <point x="60.36" y="250.86" type="curve" smooth="yes"/>
      <point x="60.36" y="77.38"/>
      <point x="207.35999999999999" y="-10.0"/>
    </contour>
    <contour>
      <point x="172.16000000000003" y="316.53999999999996" type="curve"/>
      <point x="199.2" y="439.24"/>
      <point x="344.6" y="479.7"/>
      <point x="463.21999999999997" y="479.7" type="curve" smooth="yes"/>
      <point x="621.3399999999999" y="479.7"/>
      <point x="691.6400000000001" y="427.2"/>
      <point x="694.1200000000001" y="332.2" type="curve"/>
      <point x="643.02" y="329.20000000000005"/>
      <point x="427.88" y="317.15999999999997"/>
    </contour>
  </outline>
</glyph>
<glyph name="f" format="2">
  <advance width="577.65"/>
  <unicode hex="0066"/>
  <outline>
    <contour>
      <point x="164.23000000000002" y="0.0" type="line"/>
      <point x="269.79" y="0.0" type="line"/>
      <point x="269.79" y="414.71" type="line"/>
      <point x="561.87" y="414.71" type="line"/>
      <point x="561.87" y="484.0" type="line"/>
      <point x="269.79" y="484.0" type="line"/>
      <point x="269.79" y="497.45" type="line" smooth="yes"/>
      <point x="269.79" y="626.77"/>
      <point x="335.39" y="675.82"/>
      <point x="455.03999999999996" y="675.82" type="curve" smooth="yes"/>
      <point x="515.29" y="675.82"/>
      <point x="576.53" y="665.06"/>
      <point x="641.2" y="647.09" type="curve"/>
      <point x="654.57" y="717.0" type="line"/>
      <point x="574.15" y="740.76"/>
      <point x="507.46999999999997" y="750.69"/>
      <point x="433.37000000000006" y="750.69" type="curve" smooth="yes"/>
      <point x="265.59999999999997" y="750.69"/>
      <point x="164.23000000000002" y="677.3199999999999"/>
      <point x="164.23000000000002" y="499.31" type="curve" smooth="yes"/>
      <point x="164.23000000000002" y="484.0" type="line"/>
      <point x="35.39" y="474.34999999999997" type="line"/>
      <point x="35.39" y="414.71" type="line"/>
      <point x="164.23000000000002" y="414.71" type="line"/>
    </contour>
  </outline>
</glyph>
<glyph name="g" format="2">
  <advance width="887.86"/>
  <unicode hex="0067"/>
  <anchor x="439.7" y="536.2" name="top"/>
  <anchor x="420.7" y="-220.0" name="bottom"/>
  <outline>
    <contour>
      <point x="404.58" y="-220.0" type="curve" smooth="yes"/>
      <point x="722.1200000000001" y="-220.0"/>
      <point x="860.48" y="-149.9"/>
      <point x="860.48" y="-25.5" type="curve" smooth="yes"/>
      <point x="860.48" y="59.5"/>
      <point x="798.96" y="104.9"/>
      <point x="671.4000000000001" y="104.9" type="curve" smooth="yes"/>
      <point x="308.82" y="104.9" type="line" smooth="yes"/>
      <point x="217.96" y="104.9"/>
      <point x="169.7" y="127.83999999999999"/>
      <point x="169.7" y="174.96" type="curve" smooth="yes"/>
      <point x="169.7" y="209.28"/>
      <point x="198.88" y="232.6"/>
      <point x="247.1" y="251.26" type="curve"/>
      <point x="188.42" y="269.8" type="line"/>
      <point x="115.46000000000001" y="242.18"/>
      <point x="78.39999999999999" y="204.46"/>
      <point x="78.39999999999999" y="149.26" type="curve" smooth="yes"/>
      <point x="78.39999999999999" y="59.66000000000001"/>
      <point x="170.24" y="26.619999999999997"/>
      <point x="316.98" y="26.619999999999997" type="curve" smooth="yes"/>
      <point x="632.3399999999999" y="26.619999999999997" type="line" smooth="yes"/>
      <point x="714.0" y="26.619999999999997"/>
      <point x="756.78" y="10.26"/>
      <point x="756.78" y="-37.13999999999999" type="curve" smooth="yes"/>
      <point x="756.78" y="-109.75999999999999"/>
      <point x="659.42" y="-154.73999999999998"/>
      <point x="417.6" y="-154.73999999999998" type="curve" smooth="yes"/>
      <point x="212.42" y="-154.73999999999998"/>
      <point x="118.86" y="-122.41999999999999"/>
      <point x="118.86" y="-49.800000000000004" type="curve" smooth="yes"/>
      <point x="118.86" y="-9.820000000000002"/>
      <point x="141.74" y="28.680000000000003"/>
      <point x="242.98000000000002" y="44.34" type="curve"/>
      <point x="177.64" y="63.36" type="line"/>
      <point x="48.82" y="40.400000000000006"/>
      <point x="26.94" y="-14.64"/>
      <point x="26.94" y="-67.53999999999999" type="curve" smooth="yes"/>
      <point x="26.94" y="-173.14000000000001"/>
      <point x="151.26" y="-220.0"/>
    </contour>
    <contour>
      <point x="435.94" y="211.7" type="curve" smooth="yes"/>
      <point x="666.6200000000001" y="211.7"/>
      <point x="773.5799999999999" y="267.65999999999997"/>
      <point x="773.5799999999999" y="379.76" type="curve" smooth="yes"/>
      <point x="773.5799999999999" y="491.24"/>
      <point x="666.6200000000001" y="546.82"/>
      <point x="435.94" y="546.82" type="curve" smooth="yes"/>
      <point x="205.26" y="546.82"/>
      <point x="98.92" y="491.24"/>
      <point x="98.92" y="379.76" type="curve" smooth="yes"/>
      <point x="98.92" y="267.65999999999997"/>
      <point x="205.26" y="211.7"/>
    </contour>
    <contour>
      <point x="435.94" y="272.85999999999996" type="curve" smooth="yes"/>
      <point x="269.96000000000004" y="272.85999999999996"/>
      <point x="198.28" y="306.56"/>
      <point x="198.28" y="379.76" type="curve" smooth="yes"/>
      <point x="198.28" y="452.34000000000003"/>
      <point x="269.96000000000004" y="485.65999999999997"/>
      <point x="435.94" y="485.65999999999997" type="curve" smooth="yes"/>
      <point x="601.92" y="485.65999999999997"/>
      <point x="673.6" y="452.34000000000003"/>
      <point x="673.6" y="379.76" type="curve" smooth="yes"/>
      <point x="673.6" y="306.56"/>
      <point x="601.92" y="272.85999999999996"/>
    </contour>
    <contour>
      <point x="682.34" y="472.76" type="line"/>
      <point x="699.86" y="504.84"/>
      <point x="736.7" y="518.88"/>
      <point x="792.34" y="518.88" type="curve" smooth="yes"/>
      <point x="811.72" y="518.88"/>
      <point x="831.2" y="517.88"/>
      <point x="851.9599999999999" y="514.26" type="curve"/>
      <point x="860.78" y="583.24" type="line"/>
      <point x="834.88" y="586.24"/>
      <point x="819.02" y="587.24"/>
      <point x="797.92" y="587.24" type="curve" smooth="yes"/>
      <point x="710.3399999999999" y="587.24"/>
      <point x="654.1" y="559.52"/>
      <point x="635.58" y="501.55999999999995" type="curve"/>
    </contour>
  </outline>
</glyph>
<glyph name="h" format="2">
  <advance width="892.6899999999999"/>
  <unicode hex="0068"/>
  <anchor x="443.59000000000003" y="395.0" name="center"/>
  <anchor x="446.69" y="0.0" name="bottom"/>
  <anchor x="446.38" y="740.0" name="top"/>
  <outline>
    <contour>
      <point x="102.3" y="0.0" type="line"/>
      <point x="209.10000000000002" y="0.0" type="line"/>
      <point x="209.10000000000002" y="384.96000000000004" type="line"/>
      <point x="318.40999999999997" y="433.84"/>
      <point x="394.81000000000006" y="466.98999999999995"/>
      <point x="506.60999999999996" y="466.98999999999995" type="curve" smooth="yes"/>
      <point x="627.06" y="466.98999999999995"/>
      <point x="683.5899999999999" y="407.87"/>
      <point x="683.5899999999999" y="305.41" type="curve" smooth="yes"/>
      <point x="683.5899999999999" y="0.0" type="line"/>
      <point x="790.3900000000001" y="0.0" type="line"/>
      <point x="790.3900000000001" y="338.89" type="line" smooth="yes"/>
      <point x="790.3900000000001" y="462.38"/>
      <point x="711.7" y="546.2"/>
      <point x="544.74" y="546.2" type="curve" smooth="yes"/>
      <point x="415.82" y="546.2"/>
      <point x="328.21999999999997" y="508.57"/>
      <point x="209.10000000000002" y="453.39000000000004" type="curve"/>
      <point x="209.10000000000002" y="740.0" type="line"/>
      <point x="102.3" y="740.0" type="line"/>
    </contour>
  </outline>
</glyph>
<glyph name="i" format="2">
  <advance width="311.40000000000003"/>
  <unicode hex="0069"/>
  <anchor x="208.41000000000003" y="0.0" name="ogonek"/>
  <anchor x="155.70000000000002" y="0.0" name="bottom"/>
  <outline>
    <contour>
      <point x="155.70000000000002" y="643.8299999999999" type="curve" smooth="yes"/>
      <point x="207.04000000000002" y="643.8299999999999"/>
      <point x="223.23" y="656.3"/>
      <point x="223.23" y="689.66" type="curve" smooth="yes"/>
      <point x="223.23" y="723.02"/>
      <point x="207.04" y="735.49"/>
      <point x="155.70000000000002" y="735.49" type="curve" smooth="yes"/>
      <point x="104.36000000000001" y="735.49"/>
      <point x="88.17" y="723.02"/>
      <point x="88.17" y="689.66" type="curve" smooth="yes"/>
      <point x="88.17" y="656.3"/>
      <point x="105.05000000000001" y="643.8299999999999"/>
    </contour>
    <contour>
      <point x="102.3" y="0.0" type="line"/>
      <point x="209.10000000000002" y="0.0" type="line"/>
      <point x="209.10000000000002" y="536.2" type="line"/>
      <point x="102.3" y="536.2" type="line"/>
    </contour>
  </outline>
</glyph>
<glyph name="j" format="2">
  <advance width="321.46000000000004"/>
  <unicode hex="006A"/>
  <outline>
    <contour>
      <point x="219.85000000000002" y="536.2" type="line"/>
      <point x="113.05" y="536.2" type="line"/>
      <point x="113.05" y="36.010000000000005" type="line" smooth="yes"/>
      <point x="113.05" y="-51.86"/>
      <point x="85.43" y="-99.39"/>
      <point x="27.78" y="-121.47000000000001" type="curve" smooth="yes"/>
      <point x="19.33" y="-125.61"/>
      <point x="10.88" y="-129.06"/>
      <point x="1.740000000000002" y="-131.82" type="curve"/>
      <point x="5.539999999999998" y="-208.79000000000002" type="line"/>
      <point x="23.119999999999997" y="-206.65"/>
      <point x="49.07" y="-203.44"/>
      <point x="64.96" y="-199.3" type="curve" smooth="yes"/>
      <point x="170.94" y="-175.15"/>
      <point x="219.85000000000002" y="-97.44"/>
      <point x="219.85000000000002" y="33.84" type="curve" smooth="yes"/>
    </contour>
    <contour>
      <point x="165.07000000000002" y="643.8299999999999" type="curve" smooth="yes"/>
      <point x="216.41000000000003" y="643.8299999999999"/>
      <point x="232.6" y="656.3"/>
      <point x="232.6" y="689.66" type="curve" smooth="yes"/>
      <point x="232.6" y="723.02"/>
      <point x="216.41" y="735.49"/>
      <point x="165.07000000000002" y="735.49" type="curve" smooth="yes"/>
      <point x="113.72999999999999" y="735.49"/>
      <point x="97.54" y="723.02"/>
      <point x="97.54" y="689.66" type="curve" smooth="yes"/>
      <point x="97.54" y="656.3"/>
      <point x="114.42000000000002" y="643.8299999999999"/>
    </contour>
  </outline>
</glyph>
<glyph name="l" format="2">
  <advance width="407.87"/>
  <unicode hex="006C"/>
  <anchor x="203.97" y="395.0" name="center"/>
  <anchor x="155.70000000000002" y="740.0" name="top"/>
  <anchor x="309.82" y="740.0" name="topright"/>
  <anchor x="251.57" y="0.0" name="bottom"/>
  <outline>
    <contour>
      <point x="209.10000000000002" y="740.0" type="line"/>
      <point x="102.3" y="740.0" type="line"/>
      <point x="102.3" y="182.58999999999997" type="line" smooth="yes"/>
      <point x="102.3" y="28.09"/>
      <point x="176.43" y="-10.0"/>
      <point x="280.15000000000003" y="-10.0" type="curve" smooth="yes"/>
      <point x="330.03" y="-10.0"/>
      <point x="373.64" y="-0.8300000000000003"/>
      <point x="410.49" y="11.89" type="curve"/>
      <point x="397.19" y="86.14" type="line"/>
      <point x="367.78" y="77.14"/>
      <point x="336.95" y="70.76"/>
      <point x="308.35999999999996" y="70.76" type="curve" smooth="yes"/>
      <point x="254.94" y="70.76"/>
      <point x="209.10000000000002" y="88.73"/>
      <point x="209.10000000000002" y="186.92999999999998" type="curve" smooth="yes"/>
    </contour>
  </outline>
</glyph>
<glyph name="m" format="2">
  <advance width="1348.0900000000001"/>
  <unicode hex="006D"/>
  <outline>
    <contour>
      <point x="102.3" y="0.0" type="line"/>
      <point x="209.10000000000002" y="0.0" type="line"/>
      <point x="209.10000000000002" y="380.13" type="line"/>
      <point x="297.82" y="429.77"/>
      <point x="365.90999999999997" y="461.98999999999995"/>
      <point x="464.88" y="461.98999999999995" type="curve" smooth="yes"/>
      <point x="603.58" y="461.98999999999995"/>
      <point x="622.37" y="360.67999999999995"/>
      <point x="622.37" y="301.96" type="curve" smooth="yes"/>
      <point x="622.37" y="0.0" type="line"/>
      <point x="729.17" y="0.0" type="line"/>
      <point x="729.17" y="312.5" type="line" smooth="yes"/>
      <point x="729.17" y="331.95"/>
      <point x="727.79" y="358.61"/>
      <point x="719.89" y="385.65000000000003" type="curve"/>
      <point x="780.35" y="417.96999999999997"/>
      <point x="865.76" y="465.75"/>
      <point x="979.98" y="465.75" type="curve" smooth="yes"/>
      <point x="1121.13" y="465.75"/>
      <point x="1138.99" y="364.06"/>
      <point x="1138.99" y="304.72" type="curve" smooth="yes"/>
      <point x="1138.99" y="0.0" type="line"/>
      <point x="1245.79" y="0.0" type="line"/>
      <point x="1245.79" y="338.2" type="line" smooth="yes"/>
      <point x="1245.79" y="418.7300000000001"/>
      <point x="1205.47" y="546.2"/>
      <point x="1025.24" y="546.2" type="curve" smooth="yes"/>
      <point x="886.42" y="546.2"/>
      <point x="787.85" y="494.0799999999999"/>
      <point x="698.25" y="444.64" type="curve"/>
      <point x="669.84" y="500.81"/>
      <point x="616.4599999999999" y="542.75"/>
      <point x="506.7300000000001" y="542.75" type="curve" smooth="yes"/>
      <point x="388.81" y="542.75"/>
      <point x="298.63" y="501.81000000000006"/>
      <point x="199.49" y="445.97999999999996" type="curve"/>
      <point x="199.49" y="536.2" type="line"/>
      <point x="102.3" y="536.2" type="line"/>
    </contour>
  </outline>
</glyph>
<glyph name="n" format="2">
  <advance width="892.69"/>
  <unicode hex="006E"/>
  <anchor x="452.56" y="536.2" name="top"/>
  <anchor x="453.94" y="0.0" name="bottom"/>
  <outline>
    <contour>
      <point x="102.3" y="0.0" type="line"/>
      <point x="209.10000000000002" y="0.0" type="line"/>
      <point x="209.10000000000002" y="384.96000000000004" type="line"/>
      <point x="318.40999999999997" y="433.84"/>
      <point x="394.81" y="466.98999999999995"/>
      <point x="506.61" y="466.98999999999995" type="curve" smooth="yes"/>
      <point x="627.0600000000001" y="466.98999999999995"/>
      <point x="683.59" y="407.87"/>
      <point x="683.59" y="305.41" type="curve" smooth="yes"/>
      <point x="683.59" y="0.0" type="line"/>
      <point x="790.39" y="0.0" type="line"/>
      <point x="790.39" y="338.89" type="line" smooth="yes"/>
      <point x="790.39" y="462.38000000000005"/>
      <point x="711.7" y="546.2"/>
      <point x="544.7399999999999" y="546.2" type="curve" smooth="yes"/>
      <point x="413.03" y="546.2"/>
      <point x="323.19" y="507.02"/>
      <point x="199.49" y="448.74000000000007" type="curve"/>
      <point x="199.49" y="536.2" type="line"/>
      <point x="102.3" y="536.2" type="line"/>
    </contour>
  </outline>
</glyph>
<glyph name="o" format="2">
  <advance width="907.8000000000001"/>
  <unicode hex="006F"/>
  <anchor x="550.7399999999999" y="0.6200000000000001" name="ogonek"/>
  <anchor x="453.90000000000003" y="536.2" name="top"/>
  <anchor x="631.4399999999999" y="533.1" name="topright"/>
  <anchor x="453.90000000000003" y="0.0" name="bottom"/>
  <outline>
    <contour>
      <point x="60.36" y="270.1" type="curve" smooth="yes"/>
      <point x="60.36" y="85.24"/>
      <point x="180.46" y="-10.0"/>
      <point x="453.90000000000003" y="-10.0" type="curve" smooth="yes"/>
      <point x="727.3399999999999" y="-10.0"/>
      <point x="847.4399999999999" y="85.24"/>
      <point x="847.4399999999999" y="270.1" type="curve" smooth="yes"/>
      <point x="847.4399999999999" y="441.96"/>
      <point x="744.34" y="546.2"/>
      <point x="453.90000000000003" y="546.2" type="curve" smooth="yes"/>
      <point x="162.84" y="546.2"/>
      <point x="60.36" y="441.96"/>
    </contour>
    <contour>
      <point x="168.39999999999998" y="270.1" type="curve" smooth="yes"/>
      <point x="168.39999999999998" y="393.71999999999997"/>
      <point x="238.8" y="476.59999999999997"/>
      <point x="453.90000000000003" y="476.59999999999997" type="curve" smooth="yes"/>
      <point x="669.0" y="476.59999999999997"/>
      <point x="738.78" y="393.71999999999997"/>
      <point x="738.78" y="270.1" type="curve" smooth="yes"/>
      <point x="738.78" y="137.1"/>
      <point x="655.7199999999999" y="59.60000000000001"/>
      <point x="453.90000000000003" y="59.60000000000001" type="curve" smooth="yes"/>
      <point x="252.08" y="59.60000000000001"/>
      <point x="168.39999999999998" y="137.1"/>
    </contour>
  </outline>
</glyph>
<glyph name="p" format="2">
  <advance width="882.08"/>
  <unicode hex="0070"/>
  <outline>
    <contour>
      <point x="102.3" y="-210.0" type="line"/>
      <point x="209.41000000000003" y="-210.0" type="line"/>
      <point x="209.41000000000003" y="9.56" type="line"/>
      <point x="288.5" y="-3.48"/>
      <point x="355.48" y="-10.0"/>
      <point x="418.32" y="-10.0" type="curve" smooth="yes"/>
      <point x="690.65" y="-10.0"/>
      <point x="822.03" y="85.97"/>
      <point x="822.03" y="283.14000000000004" type="curve" smooth="yes"/>
      <point x="822.03" y="447.03"/>
      <point x="714.13" y="546.2"/>
      <point x="534.9200000000001" y="546.2" type="curve" smooth="yes"/>
      <point x="426.19" y="546.2"/>
      <point x="326.81" y="512.3"/>
      <point x="199.49" y="429.46" type="curve"/>
      <point x="199.49" y="536.2" type="line"/>
      <point x="102.3" y="536.2" type="line"/>
    </contour>
    <contour>
      <point x="419.25" y="59.22" type="curve" smooth="yes"/>
      <point x="360.24" y="59.22"/>
      <point x="288.57000000000005" y="66.97999999999999"/>
      <point x="209.10000000000002" y="83.19" type="curve"/>
      <point x="209.10000000000002" y="366.53999999999996" type="line"/>
      <point x="320.68" y="437.67"/>
      <point x="404.18" y="466.68"/>
      <point x="494.93" y="466.68" type="curve" smooth="yes"/>
      <point x="631.0" y="466.68"/>
      <point x="713.99" y="395.9"/>
      <point x="713.99" y="278.8" type="curve" smooth="yes"/>
      <point x="713.99" y="132.92999999999998"/>
      <point x="614.79" y="59.22"/>
    </contour>
  </outline>
</glyph>
<glyph name="q" format="2">
  <advance width="882.0799999999999"/>
  <unicode hex="0071"/>
  <outline>
    <contour>
      <point x="779.78" y="514.58" type="line"/>
      <point x="654.49" y="535.89"/>
      <point x="552.99" y="546.2"/>
      <point x="463.76000000000005" y="546.2" type="curve" smooth="yes"/>
      <point x="191.42999999999998" y="546.2"/>
      <point x="60.05" y="450.23"/>
      <point x="60.05" y="253.06" type="curve" smooth="yes"/>
      <point x="60.05" y="89.17"/>
      <point x="167.95" y="-10.0"/>
      <point x="347.16" y="-10.0" type="curve" smooth="yes"/>
      <point x="455.58000000000004" y="-10.0"/>
      <point x="550.0" y="22.04"/>
      <point x="672.98" y="102.39999999999999" type="curve"/>
      <point x="672.98" y="-210.0" type="line"/>
      <point x="779.78" y="-210.0" type="line"/>
    </contour>
    <contour>
      <point x="672.9799999999999" y="453.01" type="curve"/>
      <point x="672.9799999999999" y="169.66" type="line"/>
      <point x="561.4000000000001" y="98.53"/>
      <point x="477.90000000000003" y="69.52"/>
      <point x="387.15000000000003" y="69.52" type="curve" smooth="yes"/>
      <point x="251.07999999999998" y="69.52"/>
      <point x="168.09" y="140.29999999999998"/>
      <point x="168.09" y="257.4" type="curve" smooth="yes"/>
      <point x="168.09" y="403.27000000000004"/>
      <point x="267.29" y="476.98"/>
      <point x="462.83000000000004" y="476.98" type="curve" smooth="yes"/>
      <point x="522.15" y="476.98"/>
      <point x="593.5100000000001" y="469.21999999999997"/>
    </contour>
  </outline>
</glyph>
<glyph name="r" format="2">
  <advance width="628.64"/>
  <unicode hex="0072"/>
  <anchor x="346.03999999999996" y="536.2" name="top"/>
  <anchor x="155.70000000000002" y="0.0" name="bottom"/>
  <outline>
    <contour>
      <point x="199.49" y="536.2" type="line"/>
      <point x="102.3" y="536.2" type="line"/>
      <point x="102.3" y="0.0" type="line"/>
      <point x="209.10000000000002" y="0.0" type="line"/>
      <point x="209.10000000000002" y="356.68" type="line"/>
      <point x="306.12" y="434.57"/>
      <point x="393.9" y="462.65"/>
      <point x="474.29999999999995" y="462.65" type="curve" smooth="yes"/>
      <point x="515.75" y="462.65"/>
      <point x="562.86" y="455.27"/>
      <point x="603.1" y="445.58" type="curve"/>
      <point x="618.26" y="529.75" type="line"/>
      <point x="585.4000000000001" y="538.4399999999999"/>
      <point x="536.5999999999999" y="546.2"/>
      <point x="487.66" y="546.2" type="curve" smooth="yes"/>
      <point x="392.24" y="546.2"/>
      <point x="311.12" y="514.3000000000001"/>
      <point x="199.49" y="425.67" type="curve"/>
    </contour>
  </outline>
</glyph>
<glyph name="s" format="2">
  <advance width="759.7"/>
  <unicode hex="0073"/>
  <anchor x="373.32" y="536.2" name="top"/>
  <anchor x="379.84" y="0.0" name="bottom"/>
  <outline>
    <contour>
      <point x="49.08" y="35.18" type="line"/>
      <point x="122.08" y="12.620000000000001"/>
      <point x="257.6" y="-10.0"/>
      <point x="376.12" y="-10.0" type="curve" smooth="yes"/>
      <point x="571.62" y="-10.0"/>
      <point x="713.48" y="27.46"/>
      <point x="713.48" y="153.11999999999998" type="curve" smooth="yes"/>
      <point x="713.48" y="264.59999999999997"/>
      <point x="577.6" y="289.28"/>
      <point x="426.46" y="304.52" type="curve" smooth="yes"/>
      <point x="292.62000000000006" y="318.14"/>
      <point x="172.24" y="321.84"/>
      <point x="172.24" y="396.28000000000003" type="curve" smooth="yes"/>
      <point x="172.24" y="453.34000000000003"/>
      <point x="249.74" y="477.84"/>
      <point x="396.03999999999996" y="477.84" type="curve" smooth="yes"/>
      <point x="492.52" y="477.84"/>
      <point x="608.4000000000001" y="453.74"/>
      <point x="652.14" y="441.46000000000004" type="curve"/>
      <point x="664.96" y="511.06" type="line"/>
      <point x="616.88" y="523.34"/>
      <point x="512.4" y="546.2"/>
      <point x="397.9" y="546.2" type="curve" smooth="yes"/>
      <point x="179.32" y="546.2"/>
      <point x="74.74" y="495.09999999999997"/>
      <point x="74.74" y="384.5" type="curve" smooth="yes"/>
      <point x="74.74" y="276.08000000000004"/>
      <point x="195.26" y="248.68"/>
      <point x="345.72" y="234.29999999999998" type="curve" smooth="yes"/>
      <point x="481.08000000000004" y="221.54"/>
      <point x="613.5" y="211.12"/>
      <point x="613.5" y="145.06" type="curve" smooth="yes"/>
      <point x="613.5" y="86.72"/>
      <point x="532.82" y="57.74"/>
      <point x="383.56" y="57.74" type="curve" smooth="yes"/>
      <point x="274.62" y="57.74"/>
      <point x="128.08" y="83.46"/>
      <point x="61.9" y="105.39999999999999" type="curve"/>
    </contour>
  </outline>
</glyph>
<glyph name="t" format="2">
  <advance width="639.65"/>
  <unicode hex="0074"/>
  <anchor x="316.14" y="275.0" name="center"/>
  <anchor x="227.18" y="665.0" name="top"/>
  <anchor x="480.01" y="793.45" name="topright"/>
  <anchor x="369.56" y="0.0" name="bottom"/>
  <outline>
    <contour>
      <point x="380.28" y="-10.0" type="curve" smooth="yes"/>
      <point x="450.51" y="-10.0"/>
      <point x="528.72" y="2.9999999999999996"/>
      <point x="615.96" y="28.21" type="curve"/>
      <point x="601.28" y="104.86999999999999" type="line"/>
      <point x="538.45" y="85.9"/>
      <point x="478.15999999999997" y="72.0"/>
      <point x="414.65999999999997" y="72.0" type="curve" smooth="yes"/>
      <point x="316.77" y="72.0"/>
      <point x="274.55" y="113.60000000000001"/>
      <point x="274.55" y="201.66" type="curve" smooth="yes"/>
      <point x="274.55" y="466.91" type="line"/>
      <point x="586.65" y="466.91" type="line"/>
      <point x="586.65" y="536.2" type="line"/>
      <point x="274.55" y="536.2" type="line"/>
      <point x="274.55" y="665.0" type="line"/>
      <point x="179.81" y="665.0" type="line"/>
      <point x="167.75" y="536.2" type="line"/>
      <point x="9.52" y="526.5500000000001" type="line"/>
      <point x="9.52" y="466.90999999999997" type="line"/>
      <point x="167.75" y="466.90999999999997" type="line"/>
      <point x="167.75" y="197.32" type="line" smooth="yes"/>
      <point x="167.75" y="43.169999999999995"/>
      <point x="249.87999999999997" y="-10.0"/>
    </contour>
  </outline>
</glyph>
<glyph name="u" format="2">
  <advance width="884.2599999999999"/>
  <unicode hex="0075"/>
  <anchor x="872.53" y="10.780000000000001" name="ogonek"/>
  <anchor x="435.54" y="536.2" name="top"/>
  <anchor x="760.7199999999999" y="536.2" name="topright"/>
  <anchor x="442.43999999999994" y="0.0" name="bottom"/>
  <outline>
    <contour>
      <point x="336.91" y="-10.0" type="curve" smooth="yes"/>
      <point x="464.2" y="-10.0"/>
      <point x="552.93" y="29.18"/>
      <point x="667.39" y="86.91" type="curve"/>
      <point x="684.14" y="17.83"/>
      <point x="728.9699999999999" y="-10.0"/>
      <point x="784.3" y="-10.0" type="curve" smooth="yes"/>
      <point x="814.8000000000001" y="-10.0"/>
      <point x="849.64" y="-1.4200000000000004"/>
      <point x="872.53" y="10.780000000000001" type="curve"/>
      <point x="860.95" y="71.41999999999999" type="line"/>
      <point x="850.5699999999999" y="66.72999999999999"/>
      <point x="839.4300000000001" y="64.35"/>
      <point x="828.36" y="64.35" type="curve" smooth="yes"/>
      <point x="793.04" y="64.35"/>
      <point x="760.7199999999999" y="87.46"/>
      <point x="760.7199999999999" y="165.04000000000002" type="curve" smooth="yes"/>
      <point x="760.7199999999999" y="536.2" type="line"/>
      <point x="653.92" y="536.2" type="line"/>
      <point x="653.92" y="148.69" type="line"/>
      <point x="551.3399999999999" y="100.25999999999999"/>
      <point x="481.10999999999996" y="67.97"/>
      <point x="375.97" y="67.97" type="curve" smooth="yes"/>
      <point x="265.94" y="67.97"/>
      <point x="209.10000000000002" y="123.64"/>
      <point x="209.10000000000002" y="212.64999999999998" type="curve" smooth="yes"/>
      <point x="209.10000000000002" y="536.2" type="line"/>
      <point x="102.3" y="536.2" type="line"/>
      <point x="102.3" y="183.51" type="line" smooth="yes"/>
      <point x="102.3" y="68.24000000000001"/>
      <point x="184.36" y="-10.0"/>
    </contour>
  </outline>
</glyph>
<glyph name="v" format="2">
  <advance width="791.89"/>
  <unicode hex="0076"/>
  <outline>
    <contour>
      <point x="345.65000000000003" y="0.0" type="line"/>
      <point x="445.55" y="0.0" type="line"/>
      <point x="780.7499999999999" y="532.0600000000001" type="line"/>
      <point x="664.9300000000001" y="540.34" type="line"/>
      <point x="400.32" y="84.59" type="line"/>
      <point x="126.95999999999998" y="540.34" type="line"/>
      <point x="11.139999999999999" y="532.0600000000001" type="line"/>
    </contour>
  </outline>
</glyph>
<glyph name="w" format="2">
  <advance width="1160.3700000000001"/>
  <unicode hex="0077"/>
  <anchor x="580.34" y="536.2" name="top"/>
  <anchor x="580.34" y="0.0" name="bottom"/>
  <outline>
    <contour>
      <point x="259.66" y="0.0" type="line"/>
      <point x="370.38" y="0.0" type="line"/>
      <point x="576.93" y="432.91" type="line"/>
      <point x="789.37" y="0.0" type="line"/>
      <point x="895.13" y="0.0" type="line"/>
      <point x="1146.23" y="532.75" type="line"/>
      <point x="1044.22" y="539.65" type="line"/>
      <point x="846.4200000000001" y="94.48" type="line"/>
      <point x="635.91" y="536.2" type="line"/>
      <point x="524.46" y="536.2" type="line"/>
      <point x="317.33" y="94.41" type="line"/>
      <point x="119.25" y="539.65" type="line"/>
      <point x="14.139999999999999" y="532.75" type="line"/>
    </contour>
  </outline>
</glyph>
<glyph name="x" format="2">
  <advance width="828.4799999999999"/>
  <unicode hex="0078"/>
  <outline>
    <contour>
      <point x="15.939999999999998" y="5.52" type="line"/>
      <point x="142.64000000000001" y="-5.5200000000000005" type="line"/>
      <point x="413.74" y="219.84" type="line"/>
      <point x="687.7" y="-5.5200000000000005" type="line"/>
      <point x="812.54" y="5.52" type="line"/>
      <point x="481.58" y="278.72" type="line"/>
      <point x="794.02" y="530.6800000000001" type="line"/>
      <point x="678.48" y="541.72" type="line"/>
      <point x="420.56" y="329.78" type="line"/>
      <point x="163.64" y="541.72" type="line"/>
      <point x="37.559999999999995" y="530.68" type="line"/>
      <point x="354.34" y="273.14000000000004" type="line"/>
    </contour>
  </outline>
</glyph>
<glyph name="y" format="2">
  <advance width="794.4399999999999"/>
  <unicode hex="0079"/>
  <anchor x="396.84" y="536.2" name="top"/>
  <anchor x="618.74" y="0.0" name="bottom"/>
  <outline>
    <contour>
      <point x="265.5" y="-206.86" type="line"/>
      <point x="366.58" y="-213.76" type="line"/>
      <point x="783.3" y="535.82" type="line"/>
      <point x="677.26" y="542.72" type="line"/>
      <point x="424.78000000000003" y="76.13999999999999" type="line"/>
      <point x="130.06" y="543.1" type="line"/>
      <point x="11.14" y="534.82" type="line"/>
      <point x="360.94" y="0.0" type="line"/>
      <point x="379.44" y="0.0" type="line"/>
    </contour>
  </outline>
</glyph>
<glyph name="z" format="2">
  <advance width="791.9399999999999"/>
  <unicode hex="007A"/>
  <anchor x="405.44" y="536.2" name="top"/>
  <outline>
    <contour>
      <point x="42.38" y="0.0" type="line"/>
      <point x="754.08" y="0.0" type="line"/>
      <point x="754.08" y="71.46000000000001" type="line"/>
      <point x="195.42000000000002" y="71.46000000000001" type="line"/>
      <point x="716.08" y="474.18" type="line"/>
      <point x="716.08" y="536.2" type="line"/>
      <point x="74.4" y="536.2" type="line"/>
      <point x="74.4" y="464.74" type="line"/>
      <point x="566.1400000000001" y="464.74" type="line"/>
      <point x="42.38" y="62.019999999999996" type="line"/>
    </contour>
  </outline>
</glyph>
<glyph name="braceleft" format="2">
  <advance width="476.53999999999996"/>
  <unicode hex="007B"/>
  <outline>
    <contour>
      <point x="157.53000000000003" y="-57.839999999999996" type="curve" smooth="yes"/>
      <point x="157.53000000000003" y="-146.44000000000003"/>
      <point x="214.32999999999998" y="-210.0"/>
      <point x="348.15999999999997" y="-210.0" type="curve" smooth="yes"/>
      <point x="426.12000000000006" y="-210.0" type="line"/>
      <point x="426.12000000000006" y="-147.22" type="line"/>
      <point x="374.2" y="-147.22" type="line" smooth="yes"/>
      <point x="278.38" y="-147.22"/>
      <point x="253.17000000000002" y="-99.24000000000001"/>
      <point x="253.17000000000002" y="-47.61" type="curve" smooth="yes"/>
      <point x="253.17000000000002" y="14.709999999999997"/>
      <point x="289.27" y="78.72"/>
      <point x="289.27" y="143.14" type="curve" smooth="yes"/>
      <point x="289.27" y="187.0"/>
      <point x="279.41" y="246.94"/>
      <point x="210.48999999999998" y="265.0" type="curve"/>
      <point x="278.72" y="286.44"/>
      <point x="289.27" y="341.62"/>
      <point x="289.27" y="385.47999999999996" type="curve" smooth="yes"/>
      <point x="289.27" y="452.66"/>
      <point x="253.17000000000002" y="513.22"/>
      <point x="253.17000000000002" y="576.23" type="curve" smooth="yes"/>
      <point x="253.17000000000002" y="627.86"/>
      <point x="278.38" y="677.22"/>
      <point x="374.2" y="677.22" type="curve" smooth="yes"/>
      <point x="426.12000000000006" y="677.22" type="line"/>
      <point x="426.12000000000006" y="740.0" type="line"/>
      <point x="348.15999999999997" y="740.0" type="line" smooth="yes"/>
      <point x="214.32999999999998" y="740.0"/>
      <point x="157.53000000000003" y="675.06"/>
      <point x="157.53000000000003" y="586.46" type="curve" smooth="yes"/>
      <point x="157.53000000000003" y="508.43"/>
      <point x="194.87" y="447.86999999999995"/>
      <point x="194.87" y="385.17" type="curve" smooth="yes"/>
      <point x="194.87" y="344.20000000000005"/>
      <point x="181.49" y="296.08"/>
      <point x="128.45" y="296.08" type="curve" smooth="yes"/>
      <point x="108.38" y="296.08" type="line"/>
      <point x="108.38" y="233.92000000000002" type="line"/>
      <point x="128.45" y="233.92000000000002" type="line" smooth="yes"/>
      <point x="181.49" y="233.92000000000002"/>
      <point x="194.87" y="184.42"/>
      <point x="194.87" y="143.45" type="curve" smooth="yes"/>
      <point x="194.87" y="82.13000000000001"/>
      <point x="157.53000000000003" y="18.810000000000002"/>
    </contour>
  </outline>
</glyph>
<glyph name="bar" format="2">
  <advance width="321.36"/>
  <unicode hex="007C"/>
  <outline>
    <contour>
      <point x="203.23" y="790.0" type="line"/>
      <point x="118.13000000000001" y="790.0" type="line"/>
      <point x="118.13000000000001" y="-210.0" type="line"/>
      <point x="203.23" y="-210.0" type="line"/>
    </contour>
  </outline>
</glyph>
<glyph name="braceright" format="2">
  <advance width="476.53999999999996"/>
  <unicode hex="007D"/>
  <outline>
    <contour>
      <point x="50.42" y="-147.22" type="line"/>
      <point x="50.42" y="-210.0" type="line"/>
      <point x="128.38" y="-210.0" type="line" smooth="yes"/>
      <point x="262.21" y="-210.0"/>
      <point x="319.01000000000005" y="-146.44000000000003"/>
      <point x="319.01000000000005" y="-57.839999999999996" type="curve" smooth="yes"/>
      <point x="319.01000000000005" y="18.810000000000002"/>
      <point x="281.67" y="82.13000000000001"/>
      <point x="281.67" y="143.45" type="curve" smooth="yes"/>
      <point x="281.67" y="184.42"/>
      <point x="295.04999999999995" y="233.92000000000002"/>
      <point x="348.09000000000003" y="233.92000000000002" type="curve" smooth="yes"/>
      <point x="368.16" y="233.92000000000002" type="line"/>
      <point x="368.16" y="296.08" type="line"/>
      <point x="348.09000000000003" y="296.08" type="line" smooth="yes"/>
      <point x="295.05" y="296.08"/>
      <point x="281.67" y="344.20000000000005"/>
      <point x="281.67" y="385.17" type="curve" smooth="yes"/>
      <point x="281.67" y="447.86999999999995"/>
      <point x="319.01000000000005" y="508.43"/>
      <point x="319.01000000000005" y="586.46" type="curve" smooth="yes"/>
      <point x="319.01000000000005" y="675.06"/>
      <point x="262.21" y="740.0"/>
      <point x="128.38" y="740.0" type="curve" smooth="yes"/>
      <point x="50.42" y="740.0" type="line"/>
      <point x="50.42" y="677.22" type="line"/>
      <point x="102.33999999999999" y="677.22" type="line" smooth="yes"/>
      <point x="198.16000000000003" y="677.22"/>
      <point x="223.37" y="627.86"/>
      <point x="223.37" y="576.23" type="curve" smooth="yes"/>
      <point x="223.37" y="513.22"/>
      <point x="187.26999999999998" y="452.66"/>
      <point x="187.26999999999998" y="385.47999999999996" type="curve" smooth="yes"/>
      <point x="187.26999999999998" y="341.62"/>
      <point x="197.82" y="286.44"/>
      <point x="266.05" y="265.0" type="curve"/>
      <point x="197.13" y="246.94"/>
      <point x="187.26999999999998" y="187.0"/>
      <point x="187.26999999999998" y="143.14" type="curve" smooth="yes"/>
      <point x="187.26999999999998" y="78.72"/>
      <point x="223.37" y="14.709999999999997"/>
      <point x="223.37" y="-47.61" type="curve" smooth="yes"/>
      <point x="223.37" y="-99.24000000000001"/>
      <point x="198.16000000000003" y="-147.22"/>
      <point x="102.33999999999999" y="-147.22" type="curve" smooth="yes"/>
    </contour>
  </outline>
</glyph>
<glyph name="asciitilde" format="2">
  <advance width="628.82"/>
  <unicode hex="007E"/>
  <outline>
    <contour>
      <point x="558.47" y="253.94999999999996" type="curve"/>
      <point x="558.47" y="334.37" type="line"/>
      <point x="530.61" y="311.58"/>
      <point x="497.34000000000003" y="288.92"/>
      <point x="450.07" y="288.92" type="curve" smooth="yes"/>
      <point x="340.40999999999997" y="288.92"/>
      <point x="277.21999999999997" y="385.34"/>
      <point x="177.85000000000002" y="385.34" type="curve" smooth="yes"/>
      <point x="125.87" y="385.34"/>
      <point x="91.94" y="359.31"/>
      <point x="70.66" y="344.03" type="curve"/>
      <point x="70.66" y="262.92" type="line"/>
      <point x="98.24" y="282.46999999999997"/>
      <point x="127.0" y="306.44"/>
      <point x="175.82000000000002" y="306.44" type="curve" smooth="yes"/>
      <point x="273.08" y="306.44"/>
      <point x="339.99" y="209.71"/>
      <point x="451.76" y="209.71" type="curve" smooth="yes"/>
      <point x="498.48" y="209.71"/>
      <point x="533.54" y="233.09"/>
    </contour>
  </outline>
</glyph>
<glyph name="exclamdown" format="2">
  <advance width="352.73999999999995"/>
  <unicode hex="00A1"/>
  <outline>
    <contour>
      <point x="223.26" y="273.44" type="line"/>
      <point x="131.65" y="273.44" type="line"/>
      <point x="125.45" y="-204.11" type="line"/>
      <point x="229.46" y="-204.11" type="line"/>
    </contour>
    <contour>
      <point x="238.63" y="492.23" type="curve" smooth="yes"/>
      <point x="238.63" y="526.52"/>
      <point x="223.98999999999998" y="539.3"/>
      <point x="176.36999999999998" y="539.3" type="curve" smooth="yes"/>
      <point x="129.44" y="539.3"/>
      <point x="114.11" y="526.52"/>
      <point x="114.11" y="492.23" type="curve" smooth="yes"/>
      <point x="114.11" y="457.63"/>
      <point x="128.75" y="444.85"/>
      <point x="176.36999999999998" y="444.85" type="curve" smooth="yes"/>
      <point x="223.98999999999998" y="444.85"/>
      <point x="238.63" y="457.63"/>
    </contour>
  </outline>
</glyph>
<glyph name="cent" format="2">
  <advance width="1038.96"/>
  <unicode hex="00A2"/>
  <outline>
    <contour>
      <point x="528.48" y="-10.0" type="curve" smooth="yes"/>
      <point x="643.96" y="-10.0"/>
      <point x="780.38" y="4.07"/>
      <point x="873.82" y="25.69" type="curve"/>
      <point x="862.07" y="94.98" type="line"/>
      <point x="772.18" y="76.22"/>
      <point x="651.12" y="63.32"/>
      <point x="553.1800000000001" y="63.32" type="curve" smooth="yes"/>
      <point x="369.41999999999996" y="63.32"/>
      <point x="262.64" y="132.48000000000002"/>
      <point x="262.64" y="257.51" type="curve" smooth="yes"/>
      <point x="262.64" y="391.96"/>
      <point x="377.81" y="471.33"/>
      <point x="569.79" y="471.33" type="curve" smooth="yes"/>
      <point x="666.52" y="471.33"/>
      <point x="741.34" y="462.64"/>
      <point x="846.83" y="438.05" type="curve"/>
      <point x="858.5799999999999" y="511.37" type="line"/>
      <point x="760.03" y="535.8199999999999"/>
      <point x="678.06" y="546.2"/>
      <point x="566.69" y="546.2" type="curve" smooth="yes"/>
      <point x="300.40000000000003" y="546.2"/>
      <point x="158.94" y="427.21"/>
      <point x="158.94" y="255.65000000000003" type="curve" smooth="yes"/>
      <point x="158.94" y="85.86"/>
      <point x="291.97" y="-10.0"/>
    </contour>
    <contour>
      <point x="492.37999999999994" y="-105.0" type="line"/>
      <point x="568.49" y="-105.0" type="line"/>
      <point x="568.49" y="-0.28000000000000025" type="line"/>
      <point x="492.37999999999994" y="0.8900000000000001" type="line"/>
    </contour>
    <contour>
      <point x="492.37999999999994" y="533.0699999999999" type="line"/>
      <point x="568.49" y="537.48" type="line"/>
      <point x="568.49" y="641.1999999999999" type="line"/>
      <point x="492.37999999999994" y="641.1999999999999" type="line"/>
    </contour>
  </outline>
</glyph>
<glyph name="sterling" format="2">
  <advance width="1038.96"/>
  <unicode hex="00A3"/>
  <outline>
    <contour>
      <point x="112.44" y="0.0" type="line"/>
      <point x="958.84" y="0.0" type="line"/>
      <point x="958.84" y="78.9" type="line"/>
      <point x="245.5" y="78.9" type="line"/>
      <point x="343.98" y="142.82"/>
      <point x="382.44000000000005" y="189.62"/>
      <point x="382.44000000000005" y="245.35999999999999" type="curve" smooth="yes"/>
      <point x="382.44000000000005" y="337.52"/>
      <point x="287.46" y="383.82"/>
      <point x="287.46" y="478.32" type="curve" smooth="yes"/>
      <point x="287.46" y="574.94"/>
      <point x="389.70000000000005" y="629.86"/>
      <point x="569.26" y="629.86" type="curve" smooth="yes"/>
      <point x="669.08" y="629.86"/>
      <point x="815.9" y="613.34"/>
      <point x="913.08" y="589.72" type="curve"/>
      <point x="926.9999999999999" y="666.76" type="line"/>
      <point x="837.46" y="690.86"/>
      <point x="680.9399999999999" y="710.0"/>
      <point x="563.06" y="710.0" type="curve" smooth="yes"/>
      <point x="316.04" y="710.0"/>
      <point x="179.42" y="631.1"/>
      <point x="179.42" y="494.67999999999995" type="curve" smooth="yes"/>
      <point x="179.42" y="388.46"/>
      <point x="279.98" y="331.24"/>
      <point x="279.98" y="245.84" type="curve" smooth="yes"/>
      <point x="279.98" y="186.6"/>
      <point x="238.93999999999997" y="151.1"/>
      <point x="112.44" y="68.97999999999999" type="curve"/>
    </contour>
    <contour>
      <point x="109.96" y="331.9" type="line"/>
      <point x="779.8399999999999" y="331.9" type="line"/>
      <point x="779.8399999999999" y="400.88" type="line"/>
      <point x="109.96" y="400.88" type="line"/>
    </contour>
  </outline>
</glyph>
<glyph name="currency" format="2">
  <advance width="506.15000000000003"/>
  <unicode hex="00A4"/>
  <outline>
    <contour>
      <point x="57.58" y="448.52" type="line"/>
      <point x="126.62" y="378.48" type="line"/>
      <point x="111.33999999999999" y="356.41"/>
      <point x="101.82000000000001" y="329.2"/>
      <point x="101.82000000000001" y="298.61" type="curve" smooth="yes"/>
      <point x="101.82000000000001" y="267.71"/>
      <point x="111.33999999999999" y="240.19000000000003"/>
      <point x="127.62" y="218.12" type="curve"/>
      <point x="57.58" y="148.07999999999998" type="line"/>
      <point x="103.19999999999999" y="102.46" type="line"/>
      <point x="179.44" y="178.39" type="line"/>
      <point x="199.34" y="163.97"/>
      <point x="224.38" y="156.38"/>
      <point x="251.8" y="156.38" type="curve" smooth="yes"/>
      <point x="279.84" y="156.38"/>
      <point x="305.88" y="164.28"/>
      <point x="326.4" y="178.7" type="curve"/>
      <point x="402.95" y="102.46" type="line"/>
      <point x="448.57" y="148.07999999999998" type="line"/>
      <point x="376.98" y="219.67" type="line"/>
      <point x="392.64" y="241.43"/>
      <point x="402.16" y="268.33"/>
      <point x="402.16" y="298.61" type="curve" smooth="yes"/>
      <point x="402.16" y="328.58000000000004"/>
      <point x="392.95" y="355.16999999999996"/>
      <point x="376.98" y="376.93" type="curve"/>
      <point x="448.57" y="448.52" type="line"/>
      <point x="402.95" y="494.14" type="line"/>
      <point x="326.4" y="417.59" type="line"/>
      <point x="305.88000000000005" y="432.32"/>
      <point x="280.53" y="440.90999999999997"/>
      <point x="251.8" y="440.90999999999997" type="curve" smooth="yes"/>
      <point x="223.69" y="440.90999999999997"/>
      <point x="198.64999999999998" y="432.32"/>
      <point x="178.75" y="417.9" type="curve"/>
      <point x="103.19999999999999" y="494.14" type="line"/>
    </contour>
    <contour>
      <point x="251.49" y="210.48" type="curve" smooth="yes"/>
      <point x="202.51" y="210.48"/>
      <point x="163.36" y="249.32"/>
      <point x="163.36" y="298.61" type="curve" smooth="yes"/>
      <point x="163.36" y="347.66"/>
      <point x="202.2" y="386.81"/>
      <point x="251.49" y="386.81" type="curve" smooth="yes"/>
      <point x="301.47" y="386.81"/>
      <point x="340.62" y="347.66"/>
      <point x="340.62" y="298.61" type="curve" smooth="yes"/>
      <point x="340.62" y="249.32"/>
      <point x="301.16" y="210.48"/>
    </contour>
  </outline>
</glyph>
<glyph name="yen" format="2">
  <advance width="1038.96"/>
  <unicode hex="00A5"/>
  <outline>
    <contour>
      <point x="146.34" y="338.72" type="line"/>
      <point x="466.88" y="338.72" type="line"/>
      <point x="466.88" y="235.68" type="line"/>
      <point x="146.34" y="235.68" type="line"/>
      <point x="146.34" y="181.58" type="line"/>
      <point x="466.88" y="181.58" type="line"/>
      <point x="466.88" y="0.0" type="line"/>
      <point x="582.36" y="0.0" type="line"/>
      <point x="582.36" y="181.58" type="line"/>
      <point x="907.62" y="181.58" type="line"/>
      <point x="907.62" y="235.68" type="line"/>
      <point x="582.36" y="235.68" type="line"/>
      <point x="582.36" y="338.72" type="line"/>
      <point x="907.62" y="338.72" type="line"/>
      <point x="907.62" y="393.44" type="line"/>
      <point x="582.36" y="393.44" type="line"/>
      <point x="944.62" y="694.48" type="line"/>
      <point x="834.04" y="705.52" type="line"/>
      <point x="524.62" y="451.12" type="line"/>
      <point x="204.92000000000002" y="705.52" type="line"/>
      <point x="94.96000000000001" y="694.48" type="line"/>
      <point x="466.88" y="393.44" type="line"/>
      <point x="146.34" y="393.44" type="line"/>
    </contour>
  </outline>
</glyph>
<glyph name="brokenbar" format="2">
  <advance width="321.35999999999996"/>
  <unicode hex="00A6"/>
  <outline>
    <contour>
      <point x="203.23" y="391.0" type="line"/>
      <point x="203.23" y="790.0" type="line"/>
      <point x="118.13000000000001" y="790.0" type="line"/>
      <point x="118.13000000000001" y="391.0" type="line"/>
    </contour>
    <contour>
      <point x="118.13000000000001" y="190.0" type="line"/>
      <point x="118.13000000000001" y="-210.0" type="line"/>
      <point x="203.23" y="-210.0" type="line"/>
      <point x="203.23" y="190.0" type="line"/>
    </contour>
  </outline>
</glyph>
<glyph name="section" format="2">
  <advance width="747.74"/>
  <unicode hex="00A7"/>
  <outline>
    <contour>
      <point x="334.83" y="-220.0" type="curve" smooth="yes"/>
      <point x="551.6600000000001" y="-220.0"/>
      <point x="687.23" y="-114.72999999999999"/>
      <point x="687.23" y="55.699999999999996" type="curve" smooth="yes"/>
      <point x="687.23" y="151.35"/>
      <point x="649.33" y="232.67"/>
      <point x="539.0799999999999" y="380.76" type="curve" smooth="yes"/>
      <point x="460.40999999999997" y="487.50999999999993"/>
      <point x="434.89" y="532.21"/>
      <point x="434.89" y="575.98" type="curve" smooth="yes"/>
      <point x="434.89" y="627.82"/>
      <point x="475.45" y="661.0"/>
      <point x="541.12" y="661.0" type="curve" smooth="yes"/>
      <point x="568.92" y="661.0"/>
      <point x="600.86" y="655.55"/>
      <point x="647.46" y="641.27" type="curve"/>
      <point x="661.21" y="719.7199999999999" type="line"/>
      <point x="588.8" y="741.17"/>
      <point x="519.35" y="750.0"/>
      <point x="451.0" y="750.0" type="curve" smooth="yes"/>
      <point x="221.89999999999998" y="750.0"/>
      <point x="90.04" y="638.83"/>
      <point x="89.35" y="462.84" type="curve" smooth="yes"/>
      <point x="89.35" y="352.65999999999997"/>
      <point x="129.79999999999998" y="265.1"/>
      <point x="232.26" y="134.95" type="curve" smooth="yes"/>
      <point x="294.92" y="54.980000000000004"/>
      <point x="328.58" y="17.009999999999998"/>
      <point x="329.27" y="-43.87" type="curve" smooth="yes"/>
      <point x="329.96" y="-88.95"/>
      <point x="285.95" y="-126.96"/>
      <point x="227.83999999999997" y="-126.96" type="curve" smooth="yes"/>
      <point x="180.59" y="-126.96"/>
      <point x="145.17000000000002" y="-112.68"/>
      <point x="79.5" y="-69.87" type="curve"/>
      <point x="58.959999999999994" y="-142.6" type="line"/>
      <point x="157.41" y="-200.72"/>
      <point x="228.20000000000002" y="-220.0"/>
    </contour>
    <contour>
      <point x="345.68" y="-167.21" type="curve" smooth="yes"/>
      <point x="303.02000000000004" y="-167.21"/>
      <point x="268.4" y="-163.89999999999998"/>
      <point x="238.64" y="-153.73" type="curve"/>
      <point x="257.59999999999997" y="-169.24" type="line"/>
      <point x="344.62" y="-176.41"/>
      <point x="418.33" y="-119.17"/>
      <point x="418.33" y="-44.489999999999995" type="curve" smooth="yes"/>
      <point x="418.33" y="17.480000000000004"/>
      <point x="396.06" y="59.78"/>
      <point x="308.95" y="171.68" type="curve" smooth="yes"/>
      <point x="211.9" y="296.42"/>
      <point x="176.62" y="378.36"/>
      <point x="176.62" y="470.59000000000003" type="curve" smooth="yes"/>
      <point x="176.62" y="603.96"/>
      <point x="279.64000000000004" y="691.9399999999999"/>
      <point x="434.57" y="691.9399999999999" type="curve" smooth="yes"/>
      <point x="459.01000000000005" y="691.9399999999999"/>
      <point x="479.18" y="689.39"/>
      <point x="502.90000000000003" y="682.4300000000001" type="curve"/>
      <point x="489.57" y="698.4200000000001" type="line"/>
      <point x="408.26" y="702.28"/>
      <point x="350.17" y="648.87"/>
      <point x="349.48" y="575.22" type="curve" smooth="yes"/>
      <point x="349.48" y="516.29"/>
      <point x="376.99999999999994" y="467.49"/>
      <point x="462.39" y="345.58000000000004" type="curve" smooth="yes"/>
      <point x="567.09" y="195.73999999999998"/>
      <point x="603.99" y="121.07000000000001"/>
      <point x="603.99" y="43.3" type="curve" smooth="yes"/>
      <point x="604.6800000000001" y="-72.73"/>
      <point x="515.0" y="-166.51999999999998"/>
    </contour>
  </outline>
</glyph>
<glyph name="copyright" format="2">
  <advance width="1034.02"/>
  <unicode hex="00A9"/>
  <outline>
    <contour>
      <point x="517.3199999999999" y="38.52" type="curve" smooth="yes"/>
      <point x="290.91999999999996" y="38.52"/>
      <point x="121.52000000000001" y="127.78"/>
      <point x="121.52000000000001" y="349.38" type="curve" smooth="yes"/>
      <point x="121.52000000000001" y="571.6"/>
      <point x="291.53999999999996" y="659.0"/>
      <point x="517.3199999999999" y="659.0" type="curve" smooth="yes"/>
      <point x="742.48" y="659.0"/>
      <point x="912.5000000000002" y="571.6"/>
      <point x="912.5000000000002" y="349.38" type="curve" smooth="yes"/>
      <point x="912.5000000000002" y="127.78"/>
      <point x="743.0999999999999" y="38.52"/>
    </contour>
    <contour>
      <point x="517.3199999999999" y="710.0" type="curve" smooth="yes"/>
      <point x="262.94" y="710.0"/>
      <point x="66.17999999999999" y="601.24"/>
      <point x="66.17999999999999" y="349.38" type="curve" smooth="yes"/>
      <point x="66.17999999999999" y="97.52000000000001"/>
      <point x="262.32" y="-10.0"/>
      <point x="517.3199999999999" y="-10.0" type="curve" smooth="yes"/>
      <point x="771.7" y="-10.0"/>
      <point x="967.84" y="97.52000000000001"/>
      <point x="967.84" y="349.38" type="curve" smooth="yes"/>
      <point x="967.84" y="601.24"/>
      <point x="771.7" y="710.0"/>
    </contour>
    <contour>
      <point x="293.26" y="337.09999999999997" type="curve" smooth="yes"/>
      <point x="293.26" y="215.08"/>
      <point x="387.04" y="169.70000000000002"/>
      <point x="513.28" y="169.70000000000002" type="curve" smooth="yes"/>
      <point x="607.74" y="169.70000000000002"/>
      <point x="686.3199999999999" y="187.56"/>
      <point x="731.14" y="204.0" type="curve"/>
      <point x="718.94" y="256.86" type="line"/>
      <point x="681.1800000000001" y="246.23999999999998"/>
      <point x="612.8000000000001" y="230.62"/>
      <point x="528.78" y="230.62" type="curve" smooth="yes"/>
      <point x="426.76" y="230.62"/>
      <point x="371.5400000000001" y="261.18"/>
      <point x="371.5400000000001" y="339.58" type="curve" smooth="yes"/>
      <point x="371.5400000000001" y="433.63999999999993"/>
      <point x="441.84" y="463.58000000000004"/>
      <point x="549.0000000000001" y="463.58000000000004" type="curve" smooth="yes"/>
      <point x="603.8000000000001" y="463.58000000000004"/>
      <point x="651.8600000000001" y="455.48"/>
      <point x="698.28" y="442.71999999999997" type="curve"/>
      <point x="711.7199999999999" y="498.06" type="line"/>
      <point x="659.1" y="517.02"/>
      <point x="603.94" y="525.12"/>
      <point x="540.32" y="525.12" type="curve" smooth="yes"/>
      <point x="402.98" y="525.12"/>
      <point x="293.26" y="473.91999999999996"/>
    </contour>
  </outline>
</glyph>
<glyph name="ordfeminine" format="2">
  <advance width="558.79"/>
  <unicode hex="00AA"/>
  <outline>
    <contour>
      <point x="73.9" y="233.45999999999998" type="line"/>
      <point x="510.02" y="233.45999999999998" type="line"/>
      <point x="510.02" y="292.24" type="line"/>
      <point x="73.9" y="292.24" type="line"/>
    </contour>
    <component base="a.superior" xOffset="12.83"/>
  </outline>
</glyph>
<glyph name="logicalnot" format="2">
  <advance width="628.82"/>
  <unicode hex="00AC"/>
  <outline>
    <contour>
      <point x="62.07" y="352.07" type="line"/>
      <point x="489.40000000000003" y="352.07" type="line"/>
      <point x="489.40000000000003" y="169.25" type="line"/>
      <point x="566.75" y="169.25" type="line"/>
      <point x="566.75" y="429.41999999999996" type="line"/>
      <point x="62.07" y="429.41999999999996" type="line"/>
    </contour>
  </outline>
</glyph>
<glyph name="registered" format="2">
  <advance width="991.6"/>
  <unicode hex="00AE"/>
  <outline>
    <contour>
      <point x="490.84000000000003" y="207.76" type="curve" smooth="yes"/>
      <point x="738.42" y="207.76"/>
      <point x="925.4200000000001" y="307.56"/>
      <point x="925.4200000000001" y="550.38" type="curve" smooth="yes"/>
      <point x="925.4200000000001" y="790.1"/>
      <point x="739.0400000000001" y="893.6199999999999"/>
      <point x="490.84000000000003" y="893.6199999999999" type="curve" smooth="yes"/>
      <point x="249.45999999999998" y="893.6199999999999"/>
      <point x="66.17999999999999" y="790.1"/>
      <point x="66.17999999999999" y="550.38" type="curve" smooth="yes"/>
      <point x="66.17999999999999" y="311.28"/>
      <point x="248.22000000000003" y="207.76"/>
    </contour>
    <contour>
      <point x="490.84000000000003" y="254.04" type="curve" smooth="yes"/>
      <point x="275.82" y="254.04"/>
      <point x="118.66" y="339.92"/>
      <point x="118.66" y="550.38" type="curve" smooth="yes"/>
      <point x="118.66" y="761.4599999999999"/>
      <point x="275.82" y="844.86"/>
      <point x="490.84000000000003" y="844.86" type="curve" smooth="yes"/>
      <point x="711.4399999999999" y="844.86"/>
      <point x="872.9399999999998" y="761.46"/>
      <point x="872.9399999999998" y="550.38" type="curve" smooth="yes"/>
      <point x="872.9399999999998" y="339.3"/>
      <point x="710.8199999999999" y="254.04"/>
    </contour>
    <contour>
      <point x="733.92" y="396.38" type="curve" smooth="yes"/>
      <point x="736.3000000000001" y="396.38"/>
      <point x="738.3" y="396.38"/>
      <point x="740.6800000000001" y="396.38" type="curve"/>
      <point x="740.68" y="452.58" type="line"/>
      <point x="739.3" y="452.58"/>
      <point x="737.3" y="452.58"/>
      <point x="735.92" y="452.58" type="curve" smooth="yes"/>
      <point x="699.8399999999999" y="452.58"/>
      <point x="634.82" y="486.84"/>
      <point x="576.56" y="532.28" type="curve"/>
      <point x="648.7800000000001" y="536.6600000000001"/>
      <point x="693.78" y="556.4200000000001"/>
      <point x="693.78" y="621.04" type="curve" smooth="yes"/>
      <point x="693.78" y="689.0400000000001"/>
      <point x="639.16" y="711.62"/>
      <point x="476.86000000000007" y="711.62" type="curve" smooth="yes"/>
      <point x="431.5" y="711.62"/>
      <point x="381.9" y="711.0"/>
      <point x="303.20000000000005" y="708.0" type="curve"/>
      <point x="303.20000000000005" y="398.62" type="line"/>
      <point x="371.79999999999995" y="398.62" type="line"/>
      <point x="371.79999999999995" y="518.3999999999999" type="line"/>
      <point x="408.1" y="518.02"/>
      <point x="434.22" y="517.0199999999999"/>
      <point x="465.62" y="517.0199999999999" type="curve" smooth="yes"/>
      <point x="473.38000000000005" y="517.0199999999999"/>
      <point x="481.14000000000004" y="517.0199999999999"/>
      <point x="488.9000000000001" y="517.02" type="curve"/>
      <point x="569.86" y="458.32"/>
      <point x="665.8000000000001" y="396.38"/>
    </contour>
    <contour>
      <point x="480.5000000000001" y="559.58" type="curve" smooth="yes"/>
      <point x="446.0" y="559.58"/>
      <point x="417.4" y="560.58"/>
      <point x="371.79999999999995" y="560.96" type="curve"/>
      <point x="371.79999999999995" y="661.3399999999999" type="line"/>
      <point x="423.84000000000003" y="663.7199999999999"/>
      <point x="433.36000000000007" y="664.1"/>
      <point x="481.20000000000005" y="664.1" type="curve" smooth="yes"/>
      <point x="593.72" y="664.1"/>
      <point x="623.32" y="654.34"/>
      <point x="623.32" y="614.2199999999999" type="curve" smooth="yes"/>
      <point x="623.32" y="562.0600000000001"/>
      <point x="573.6" y="559.58"/>
    </contour>
  </outline>
</glyph>
<glyph name="degree" format="2">
  <advance width="339.92"/>
  <unicode hex="00B0"/>
  <outline>
    <contour>
      <point x="169.58" y="455.52" type="curve" smooth="yes"/>
      <point x="254.48" y="455.52"/>
      <point x="307.44000000000005" y="519.5"/>
      <point x="307.44000000000005" y="588.2800000000001" type="curve" smooth="yes"/>
      <point x="307.44000000000005" y="655.2"/>
      <point x="256.96000000000004" y="722.42"/>
      <point x="169.58" y="722.42" type="curve" smooth="yes"/>
      <point x="81.58" y="722.42"/>
      <point x="32.48" y="655.2"/>
      <point x="32.48" y="588.2800000000001" type="curve" smooth="yes"/>
      <point x="32.48" y="519.5"/>
      <point x="84.68" y="455.52"/>
    </contour>
    <contour>
      <point x="169.58" y="518.92" type="curve" smooth="yes"/>
      <point x="131.01999999999998" y="518.92"/>
      <point x="101.46" y="549.1"/>
      <point x="101.46" y="588.28" type="curve" smooth="yes"/>
      <point x="101.46" y="626.22"/>
      <point x="130.4" y="658.4000000000001"/>
      <point x="169.58" y="658.4000000000001" type="curve" smooth="yes"/>
      <point x="208.14000000000001" y="658.4000000000001"/>
      <point x="239.08" y="626.22"/>
      <point x="239.08" y="588.28" type="curve" smooth="yes"/>
      <point x="239.08" y="549.1"/>
      <point x="208.14" y="518.92"/>
    </contour>
  </outline>
</glyph>
<glyph name="plusminus" format="2">
  <advance width="628.8199999999999"/>
  <unicode hex="00B1"/>
  <outline>
    <contour>
      <point x="62.07" y="49.37" type="line"/>
      <point x="566.75" y="49.37" type="line"/>
      <point x="566.75" y="126.72" type="line"/>
      <point x="359.13" y="126.72" type="line"/>
      <point x="359.13" y="301.40999999999997" type="line"/>
      <point x="566.75" y="301.40999999999997" type="line"/>
      <point x="566.75" y="378.76" type="line"/>
      <point x="359.13" y="378.76" type="line"/>
      <point x="359.13" y="561.27" type="line"/>
      <point x="269.38" y="561.27" type="line"/>
      <point x="269.38" y="378.76" type="line"/>
      <point x="62.07" y="378.76" type="line"/>
      <point x="62.07" y="301.40999999999997" type="line"/>
      <point x="269.38" y="301.40999999999997" type="line"/>
      <point x="269.38" y="126.72" type="line"/>
      <point x="62.07" y="126.72" type="line"/>
    </contour>
  </outline>
</glyph>
<glyph name="uni00B2" format="2">
  <advance width="642.74"/>
  <unicode hex="00B2"/>
  <outline>
    <contour>
      <point x="71.64000000000001" y="370.0" type="line"/>
      <point x="572.79" y="370.0" type="line"/>
      <point x="572.79" y="419.79" type="line"/>
      <point x="212.22" y="419.79" type="line"/>
      <point x="444.70000000000005" y="523.4100000000001"/>
      <point x="487.88" y="566.1700000000001"/>
      <point x="487.88" y="641.11" type="curve" smooth="yes"/>
      <point x="487.88" y="721.59"/>
      <point x="416.1" y="770.9300000000001"/>
      <point x="293.49" y="770.9300000000001" type="curve" smooth="yes"/>
      <point x="226.98000000000002" y="770.9300000000001"/>
      <point x="144.2" y="753.45"/>
      <point x="90.65" y="728.59" type="curve"/>
      <point x="109.98" y="678.5600000000001" type="line"/>
      <point x="166.11" y="701.73"/>
      <point x="221.95" y="713.49"/>
      <point x="275.06" y="713.49" type="curve" smooth="yes"/>
      <point x="356.59999999999997" y="713.49"/>
      <point x="399.06000000000006" y="681.62"/>
      <point x="399.06000000000006" y="628.57" type="curve" smooth="yes"/>
      <point x="399.06000000000006" y="561.9"/>
      <point x="332.06" y="523.03"/>
      <point x="69.57" y="413.76" type="curve"/>
    </contour>
  </outline>
</glyph>
<glyph name="uni00B3" format="2">
  <advance width="611.2"/>
  <unicode hex="00B3"/>
  <outline>
    <contour>
      <point x="23.689999999999998" y="406.18" type="line"/>
      <point x="100.48" y="373.21000000000004"/>
      <point x="183.13000000000002" y="360.93"/>
      <point x="284.86" y="360.93" type="curve" smooth="yes"/>
      <point x="459.27000000000004" y="360.93"/>
      <point x="569.64" y="403.28000000000003"/>
      <point x="569.64" y="486.24" type="curve" smooth="yes"/>
      <point x="569.64" y="539.1400000000001"/>
      <point x="521.18" y="570.66"/>
      <point x="430.03000000000003" y="578.24" type="curve"/>
      <point x="494.42" y="584.86"/>
      <point x="535.9399999999999" y="617.31"/>
      <point x="535.9399999999999" y="667.38" type="curve" smooth="yes"/>
      <point x="535.9399999999999" y="732.38"/>
      <point x="451.42" y="772.31"/>
      <point x="286.44" y="772.31" type="curve" smooth="yes"/>
      <point x="178.1" y="772.31"/>
      <point x="96.87" y="758.1700000000001"/>
      <point x="55.84" y="748.62" type="curve"/>
      <point x="66.9" y="697.76" type="line"/>
      <point x="100.02" y="703.97"/>
      <point x="154.99" y="720.52"/>
      <point x="266.84" y="720.52" type="curve" smooth="yes"/>
      <point x="381.07" y="720.52"/>
      <point x="456.72999999999996" y="695.27"/>
      <point x="456.72999999999996" y="654.1500000000001" type="curve" smooth="yes"/>
      <point x="456.72999999999996" y="614.79"/>
      <point x="408.75" y="594.4699999999999"/>
      <point x="321.0" y="594.4699999999999" type="curve" smooth="yes"/>
      <point x="165.17999999999998" y="594.4699999999999" type="line"/>
      <point x="165.17999999999998" y="550.33" type="line"/>
      <point x="308.84000000000003" y="550.33" type="line" smooth="yes"/>
      <point x="435.55" y="550.33"/>
      <point x="487.02" y="533.2199999999999"/>
      <point x="487.02" y="489.96" type="curve" smooth="yes"/>
      <point x="487.02" y="439.63"/>
      <point x="412.78999999999996" y="408.86"/>
      <point x="278.35" y="408.86" type="curve" smooth="yes"/>
      <point x="166.22000000000003" y="408.86"/>
      <point x="99.07000000000001" y="422.38"/>
      <point x="38.37" y="451.63" type="curve"/>
    </contour>
  </outline>
</glyph>
<glyph name="uni00B5" format="2">
  <advance width="884.26"/>
  <unicode hex="00B5"/>
  <outline>
    <contour>
      <point x="102.3" y="-210.0" type="line"/>
      <point x="209.1" y="-210.0" type="line"/>
      <point x="209.1" y="58.86" type="line"/>
      <point x="235.45" y="15.84"/>
      <point x="287.33" y="-10.0"/>
      <point x="365.74" y="-10.0" type="curve" smooth="yes"/>
      <point x="484.03999999999996" y="-10.0"/>
      <point x="563.78" y="29.18"/>
      <point x="667.39" y="86.91" type="curve"/>
      <point x="684.14" y="17.83"/>
      <point x="728.97" y="-10.0"/>
      <point x="784.3" y="-10.0" type="curve" smooth="yes"/>
      <point x="814.8" y="-10.0"/>
      <point x="849.64" y="-1.4200000000000004"/>
      <point x="872.53" y="10.780000000000001" type="curve"/>
      <point x="860.95" y="71.42" type="line"/>
      <point x="850.5699999999999" y="66.73"/>
      <point x="839.43" y="64.35"/>
      <point x="828.36" y="64.35" type="curve" smooth="yes"/>
      <point x="793.04" y="64.35"/>
      <point x="760.72" y="87.46"/>
      <point x="760.72" y="165.04000000000002" type="curve" smooth="yes"/>
      <point x="760.72" y="536.2" type="line"/>
      <point x="653.92" y="536.2" type="line"/>
      <point x="653.92" y="148.69000000000003" type="line"/>
      <point x="551.3399999999999" y="100.26"/>
      <point x="481.10999999999996" y="67.97"/>
      <point x="375.97" y="67.97" type="curve" smooth="yes"/>
      <point x="265.94" y="67.97"/>
      <point x="209.10000000000002" y="123.64"/>
      <point x="209.10000000000002" y="212.65" type="curve" smooth="yes"/>
      <point x="209.10000000000002" y="536.2" type="line"/>
      <point x="102.3" y="536.2" type="line"/>
    </contour>
  </outline>
</glyph>
<glyph name="paragraph" format="2">
  <advance width="847.17"/>
  <unicode hex="00B6"/>
  <outline>
    <contour>
      <point x="640.2" y="-210.0" type="line"/>
      <point x="725.3000000000001" y="-210.0" type="line"/>
      <point x="725.3000000000001" y="740.0" type="line"/>
      <point x="640.2" y="740.0" type="line"/>
    </contour>
    <contour>
      <point x="349.13" y="246.61" type="line"/>
      <point x="219.01" y="257.99"/>
      <point x="159.09" y="328.63"/>
      <point x="159.09" y="458.46000000000004" type="curve" smooth="yes"/>
      <point x="159.09" y="602.5600000000001"/>
      <point x="237.73999999999998" y="660.5799999999999"/>
      <point x="423.50000000000006" y="662.65" type="curve"/>
      <point x="423.50000000000006" y="-210.0" type="line"/>
      <point x="508.6" y="-210.0" type="line"/>
      <point x="508.6" y="740.0" type="line"/>
      <point x="446.92999999999995" y="740.0" type="line" smooth="yes"/>
      <point x="176.76000000000002" y="740.0"/>
      <point x="68.1" y="655.86"/>
      <point x="68.1" y="469.0" type="curve" smooth="yes"/>
      <point x="68.1" y="295.86"/>
      <point x="154.17000000000002" y="202.79"/>
      <point x="340.31" y="189.1" type="curve"/>
    </contour>
  </outline>
</glyph>
<glyph name="periodcentered" format="2">
  <advance width="273.7"/>
  <unicode hex="00B7"/>
  <outline>
    <contour>
      <point x="74.78" y="296.29999999999995" type="curve" smooth="yes"/>
      <point x="74.78" y="261.7"/>
      <point x="90.42000000000002" y="248.92000000000002"/>
      <point x="137.04000000000002" y="248.92000000000002" type="curve" smooth="yes"/>
      <point x="184.66000000000003" y="248.92000000000002"/>
      <point x="199.29999999999998" y="261.7"/>
      <point x="199.29999999999998" y="296.29999999999995" type="curve" smooth="yes"/>
      <point x="199.29999999999998" y="330.90000000000003"/>
      <point x="184.66000000000003" y="343.68"/>
      <point x="137.04000000000002" y="343.68" type="curve" smooth="yes"/>
      <point x="89.42000000000002" y="343.68"/>
      <point x="74.78" y="330.90000000000003"/>
    </contour>
  </outline>
</glyph>
<glyph name="uni00B9" format="2">
  <advance width="581.8199999999999"/>
  <unicode hex="00B9"/>
  <outline>
    <contour>
      <point x="49.019999999999996" y="370.0" type="line"/>
      <point x="552.2299999999999" y="370.0" type="line"/>
      <point x="552.2299999999999" y="421.34" type="line"/>
      <point x="362.99" y="421.34" type="line"/>
      <point x="362.99" y="766.7600000000001" type="line"/>
      <point x="318.82" y="766.7600000000001" type="line"/>
      <point x="31.38" y="657.75" type="line"/>
      <point x="53.5" y="603.0" type="line"/>
      <point x="275.48" y="689.51" type="line"/>
      <point x="275.48" y="421.34" type="line"/>
      <point x="49.019999999999996" y="421.34" type="line"/>
    </contour>
  </outline>
</glyph>
<glyph name="ordmasculine" format="2">
  <advance width="579.7"/>
  <unicode hex="00BA"/>
  <outline>
    <contour>
      <point x="74.57" y="234.14999999999998" type="line"/>
      <point x="516.2099999999999" y="234.14999999999998" type="line"/>
      <point x="516.2099999999999" y="292.93" type="line"/>
      <point x="74.57" y="292.93" type="line"/>
    </contour>
    <component base="o.superior" xOffset="8.0"/>
  </outline>
</glyph>
<glyph name="questiondown" format="2">
  <advance width="714.9"/>
  <unicode hex="00BF"/>
  <outline>
    <contour>
      <point x="421.87" y="275.51" type="line"/>
      <point x="330.26" y="275.51" type="line"/>
      <point x="329.64" y="216.32999999999998" type="line"/>
      <point x="128.12" y="174.33"/>
      <point x="38.45" y="112.85000000000001"/>
      <point x="38.45" y="-0.11999999999999877" type="curve" smooth="yes"/>
      <point x="38.45" y="-164.22"/>
      <point x="199.96" y="-214.11"/>
      <point x="343.15" y="-214.11" type="curve" smooth="yes"/>
      <point x="454.84000000000003" y="-214.11"/>
      <point x="590.31" y="-186.08"/>
      <point x="683.69" y="-131.01" type="curve"/>
      <point x="656.02" y="-58.140000000000015" type="line"/>
      <point x="564.9499999999999" y="-107.18"/>
      <point x="455.49" y="-132.73000000000002"/>
      <point x="358.96" y="-132.73000000000002" type="curve" smooth="yes"/>
      <point x="258.01" y="-132.73000000000002"/>
      <point x="148.97" y="-102.96000000000001"/>
      <point x="148.97" y="3.91" type="curve" smooth="yes"/>
      <point x="148.97" y="73.52000000000001"/>
      <point x="208.02999999999997" y="128.60999999999999"/>
      <point x="424.03999999999996" y="164.37" type="curve"/>
    </contour>
    <contour>
      <point x="433.96" y="492.22999999999996" type="curve" smooth="yes"/>
      <point x="433.96" y="526.52"/>
      <point x="418.63" y="539.3"/>
      <point x="371.7" y="539.3" type="curve" smooth="yes"/>
      <point x="324.08000000000004" y="539.3"/>
      <point x="309.43999999999994" y="526.52"/>
      <point x="309.43999999999994" y="492.22999999999996" type="curve" smooth="yes"/>
      <point x="309.43999999999994" y="457.63"/>
      <point x="324.08000000000004" y="444.84999999999997"/>
      <point x="371.7" y="444.84999999999997" type="curve" smooth="yes"/>
      <point x="419.32" y="444.84999999999997"/>
      <point x="433.96" y="457.63"/>
    </contour>
  </outline>
</glyph>
<glyph name="AE" format="2">
  <advance width="1587.34"/>
  <unicode hex="00C6"/>
  <anchor x="800.02" y="700.0" name="top"/>
  <outline>
    <contour>
      <point x="0.9999999999999996" y="0.0" type="line"/>
      <point x="134.39999999999998" y="5.551115123125783e-17" type="line"/>
      <point x="389.42" y="254.52" type="line"/>
      <point x="738.76" y="254.52" type="line"/>
      <point x="738.76" y="0.0" type="line"/>
      <point x="1537.44" y="0.0" type="line"/>
      <point x="1537.44" y="88.19999999999999" type="line"/>
      <point x="851.76" y="88.19999999999999" type="line"/>
      <point x="851.76" y="310.32" type="line"/>
      <point x="1476.4399999999998" y="310.32" type="line"/>
      <point x="1476.4399999999998" y="395.42" type="line"/>
      <point x="851.76" y="395.42" type="line"/>
      <point x="851.76" y="611.8" type="line"/>
      <point x="1508.4399999999998" y="611.8" type="line"/>
      <point x="1508.4399999999998" y="700.0" type="line"/>
      <point x="695.7" y="700.0" type="line"/>
    </contour>
    <contour>
      <point x="460.02000000000004" y="339.62" type="line"/>
      <point x="738.76" y="617.86" type="line"/>
      <point x="738.76" y="339.62" type="line"/>
    </contour>
  </outline>
</glyph>
<glyph name="multiply" format="2">
  <advance width="597.82"/>
  <unicode hex="00D7"/>
  <outline>
    <contour>
      <point x="112.66" y="70.00999999999999" type="line"/>
      <point x="299.59999999999997" y="246.71999999999997" type="line"/>
      <point x="484.46999999999997" y="72.07999999999998" type="line"/>
      <point x="534.1199999999999" y="131.34" type="line"/>
      <point x="359.79" y="297.3" type="line"/>
      <point x="535.5" y="464.95" type="line"/>
      <point x="485.85" y="524.21" type="line"/>
      <point x="299.59999999999997" y="347.88" type="line"/>
      <point x="111.97" y="525.59" type="line"/>
      <point x="62.32" y="466.33" type="line"/>
      <point x="239.1" y="297.3" type="line"/>
      <point x="63.010000000000005" y="129.27" type="line"/>
    </contour>
  </outline>
</glyph>
<glyph name="Oslash" format="2">
  <advance width="1222.28"/>
  <unicode hex="00D8"/>
  <anchor x="609.95" y="700.0" name="top"/>
  <outline>
    <contour>
      <point x="183.8" y="-13.1" type="line"/>
      <point x="309.84" y="67.36" type="line"/>
      <point x="310.77" y="64.57000000000001" type="line"/>
      <point x="980.0799999999999" y="576.83" type="line"/>
      <point x="981.01" y="574.35" type="line"/>
      <point x="1150.7399999999998" y="713.1" type="line"/>
      <point x="1037.5500000000002" y="713.1" type="line"/>
      <point x="914.7199999999999" y="623.3100000000001" type="line"/>
      <point x="913.79" y="626.1" type="line"/>
      <point x="241.31" y="120.66" type="line"/>
      <point x="241.0" y="121.89999999999999" type="line"/>
      <point x="71.53999999999999" y="-13.1" type="line"/>
    </contour>
    <contour>
      <point x="610.26" y="62.39" type="curve" smooth="yes"/>
      <point x="409.37" y="62.39"/>
      <point x="186.4" y="126.22"/>
      <point x="186.4" y="350.62" type="curve" smooth="yes"/>
      <point x="186.4" y="582.37"/>
      <point x="409.06" y="637.61"/>
      <point x="610.26" y="637.61" type="curve" smooth="yes"/>
      <point x="810.91" y="637.61"/>
      <point x="1034.8799999999999" y="582.75"/>
      <point x="1034.8799999999999" y="350.62" type="curve" smooth="yes"/>
      <point x="1034.8799999999999" y="117.18"/>
      <point x="810.91" y="62.39"/>
    </contour>
    <contour>
      <point x="610.57" y="-10.0" type="curve" smooth="yes"/>
      <point x="894.3199999999999" y="-10.0"/>
      <point x="1147.33" y="68.77"/>
      <point x="1147.33" y="355.0" type="curve" smooth="yes"/>
      <point x="1147.33" y="629.06"/>
      <point x="893.48" y="710.0"/>
      <point x="610.26" y="710.0" type="curve" smooth="yes"/>
      <point x="323.66" y="710.0"/>
      <point x="74.94999999999999" y="626.3"/>
      <point x="74.94999999999999" y="351.55" type="curve" smooth="yes"/>
      <point x="74.94999999999999" y="80.5"/>
      <point x="331.1" y="-10.0"/>
    </contour>
  </outline>
</glyph>
<glyph name="Thorn" format="2">
  <advance width="1078.3799999999999"/>
  <unicode hex="00DE"/>
  <outline>
    <contour>
      <point x="121.23" y="0.0" type="line"/>
      <point x="234.23" y="0.0" type="line"/>
      <point x="234.23" y="146.37" type="line"/>
      <point x="395.92" y="142.37"/>
      <point x="434.10999999999996" y="141.68"/>
      <point x="573.13" y="141.68" type="curve" smooth="yes"/>
      <point x="899.43" y="141.68"/>
      <point x="1011.5400000000001" y="200.43"/>
      <point x="1011.5400000000001" y="391.15" type="curve" smooth="yes"/>
      <point x="1011.5400000000001" y="565.34"/>
      <point x="922.89" y="632.1"/>
      <point x="528.29" y="632.1" type="curve" smooth="yes"/>
      <point x="474.65999999999997" y="632.1"/>
      <point x="396.38" y="630.41"/>
      <point x="234.23" y="624.58" type="curve"/>
      <point x="234.23" y="700.0" type="line"/>
      <point x="121.23" y="700.0" type="line"/>
    </contour>
    <contour>
      <point x="529.4200000000001" y="219.96" type="curve" smooth="yes"/>
      <point x="419.07" y="219.96"/>
      <point x="361.19" y="222.34"/>
      <point x="234.23" y="225.65" type="curve"/>
      <point x="234.23" y="546.61" type="line"/>
      <point x="411.09000000000003" y="553.37"/>
      <point x="467.25" y="554.75"/>
      <point x="536.6600000000001" y="554.75" type="curve" smooth="yes"/>
      <point x="825.8699999999999" y="554.75"/>
      <point x="896.37" y="506.59999999999997"/>
      <point x="896.37" y="390.84" type="curve" smooth="yes"/>
      <point x="896.37" y="265.48999999999995"/>
      <point x="828.86" y="219.96"/>
    </contour>
  </outline>
</glyph>
<glyph name="germandbls" format="2">
  <advance width="984.76"/>
  <unicode hex="00DF"/>
  <outline>
    <contour>
      <point x="163.54" y="0.0" type="line"/>
      <point x="270.34000000000003" y="0.0" type="line"/>
      <point x="270.34000000000003" y="475.93999999999994" type="line" smooth="yes"/>
      <point x="270.34000000000003" y="613.0"/>
      <point x="366.52" y="679.78"/>
      <point x="552.0" y="679.78" type="curve" smooth="yes"/>
      <point x="711.88" y="679.78"/>
      <point x="755.58" y="661.64"/>
      <point x="755.58" y="606.48" type="curve" smooth="yes"/>
      <point x="755.58" y="565.36"/>
      <point x="717.36" y="548.56"/>
      <point x="606.9200000000001" y="532.52" type="curve" smooth="yes"/>
      <point x="457.71999999999997" y="511.76"/>
      <point x="403.96" y="465.5"/>
      <point x="403.96" y="385.26" type="curve" smooth="yes"/>
      <point x="403.96" y="289.1"/>
      <point x="468.28" y="248.23999999999998"/>
      <point x="693.26" y="225.62" type="curve" smooth="yes"/>
      <point x="835.6999999999999" y="210.82000000000002"/>
      <point x="881.26" y="191.36"/>
      <point x="881.26" y="137.82" type="curve" smooth="yes"/>
      <point x="881.26" y="83.9"/>
      <point x="794.34" y="56.739999999999995"/>
      <point x="690.02" y="56.739999999999995" type="curve" smooth="yes"/>
      <point x="597.98" y="56.739999999999995"/>
      <point x="463.74" y="76.5"/>
      <point x="369.18" y="104.78" type="curve"/>
      <point x="356.36" y="34.56" type="line"/>
      <point x="459.6" y="5.660000000000001"/>
      <point x="583.82" y="-11.0"/>
      <point x="681.96" y="-11.0" type="curve" smooth="yes"/>
      <point x="837.1" y="-11.0"/>
      <point x="981.24" y="31.22"/>
      <point x="981.24" y="145.26" type="curve" smooth="yes"/>
      <point x="981.24" y="241.18"/>
      <point x="912.9" y="283.90000000000003"/>
      <point x="702.64" y="305.14" type="curve" smooth="yes"/>
      <point x="551.38" y="320.18"/>
      <point x="497.74" y="336.44"/>
      <point x="497.74" y="390.84" type="curve" smooth="yes"/>
      <point x="497.74" y="437.85999999999996"/>
      <point x="543.06" y="453.22"/>
      <point x="643.5999999999999" y="468.5" type="curve" smooth="yes"/>
      <point x="786.4" y="490.26"/>
      <point x="851.84" y="519.5"/>
      <point x="851.84" y="603.14" type="curve" smooth="yes"/>
      <point x="851.84" y="706.36"/>
      <point x="756.66" y="750.0"/>
      <point x="550.28" y="750.0" type="curve" smooth="yes"/>
      <point x="290.8" y="750.0"/>
      <point x="164.68" y="668.44"/>
      <point x="163.54" y="495.47999999999996" type="curve" smooth="yes"/>
      <point x="163.54" y="484.0" type="line"/>
      <point x="35.7" y="474.65999999999997" type="line"/>
      <point x="35.7" y="415.02" type="line"/>
      <point x="163.54" y="415.02" type="line"/>
    </contour>
  </outline>
</glyph>
<glyph name="ae" format="2">
  <advance width="1357.92"/>
  <unicode hex="00E6"/>
  <anchor x="696.74" y="536.2" name="top"/>
  <outline>
    <contour>
      <point x="257.23999999999995" y="-10.0" type="curve" smooth="yes"/>
      <point x="412.97999999999996" y="-10.0"/>
      <point x="509.81999999999994" y="30.259999999999998"/>
      <point x="629.9000000000001" y="112.6" type="curve"/>
      <point x="630.9" y="112.6" type="line"/>
      <point x="685.3" y="31.78"/>
      <point x="797.9599999999999" y="-10.0"/>
      <point x="963.3" y="-10.0" type="curve" smooth="yes"/>
      <point x="1117.24" y="-10.0"/>
      <point x="1210.96" y="7.28"/>
      <point x="1296.46" y="25.76" type="curve"/>
      <point x="1283.78" y="95.98" type="line"/>
      <point x="1204.3799999999999" y="79.74"/>
      <point x="1102.5600000000002" y="61.46"/>
      <point x="968.8799999999998" y="61.46" type="curve" smooth="yes"/>
      <point x="802.0600000000001" y="61.46"/>
      <point x="709.0600000000001" y="125.17999999999999"/>
      <point x="704.1999999999999" y="230.35999999999999" type="curve" smooth="yes"/>
      <point x="703.58" y="239.64000000000001"/>
      <point x="703.58" y="242.02"/>
      <point x="704.96" y="256.82" type="curve"/>
      <point x="1013.1400000000001" y="258.68"/>
      <point x="1219.62" y="274.58"/>
      <point x="1299.12" y="278.2" type="curve"/>
      <point x="1300.1200000000001" y="285.54"/>
      <point x="1300.74" y="295.12"/>
      <point x="1300.74" y="309.46" type="curve" smooth="yes"/>
      <point x="1300.74" y="462.96"/>
      <point x="1182.74" y="546.2"/>
      <point x="966.9999999999999" y="546.2" type="curve" smooth="yes"/>
      <point x="811.88" y="546.2"/>
      <point x="712.4399999999999" y="491.46000000000004"/>
      <point x="668.62" y="403.35999999999996" type="curve"/>
      <point x="667.6199999999999" y="403.35999999999996" type="line"/>
      <point x="642.48" y="497.18"/>
      <point x="559.12" y="546.2"/>
      <point x="393.03999999999996" y="546.2" type="curve" smooth="yes"/>
      <point x="310.21999999999997" y="546.2"/>
      <point x="213.02" y="533.8199999999999"/>
      <point x="113.53999999999999" y="509.82" type="curve"/>
      <point x="126.22" y="439.6" type="line"/>
      <point x="215.16" y="461.12"/>
      <point x="314.70000000000005" y="474.74"/>
      <point x="388.22" y="474.74" type="curve" smooth="yes"/>
      <point x="528.1400000000001" y="474.74"/>
      <point x="599.1599999999999" y="431.86"/>
      <point x="599.1599999999999" y="350.52" type="curve" smooth="yes"/>
      <point x="599.1599999999999" y="313.64" type="line"/>
      <point x="172.12" y="304.36"/>
      <point x="63.88" y="267.87999999999994"/>
      <point x="63.88" y="134.64000000000001" type="curve" smooth="yes"/>
      <point x="63.88" y="40.96"/>
      <point x="132.08" y="-10.0"/>
    </contour>
    <contour>
      <point x="295.68" y="54.019999999999996" type="curve" smooth="yes"/>
      <point x="217.0" y="54.019999999999996"/>
      <point x="173.78" y="81.38000000000001"/>
      <point x="173.78" y="139.01999999999998" type="curve" smooth="yes"/>
      <point x="173.78" y="226.46"/>
      <point x="256.88" y="250.01999999999998"/>
      <point x="597.78" y="259.54" type="curve"/>
      <point x="597.4" y="253.16000000000003"/>
      <point x="597.4" y="247.54"/>
      <point x="597.4" y="232.88" type="curve" smooth="yes"/>
      <point x="597.4" y="210.70000000000002"/>
      <point x="599.1600000000001" y="191.66"/>
      <point x="604.3" y="176.00000000000003" type="curve"/>
      <point x="524.5799999999999" y="100.42"/>
      <point x="400.44" y="54.019999999999996"/>
    </contour>
    <contour>
      <point x="707.34" y="314.64" type="curve"/>
      <point x="729.2399999999999" y="421.91999999999996"/>
      <point x="821.7199999999999" y="479.08"/>
      <point x="960.8" y="479.08" type="curve" smooth="yes"/>
      <point x="1099.4" y="479.08"/>
      <point x="1185.5" y="422.53999999999996"/>
      <point x="1190.46" y="329.68" type="curve"/>
      <point x="1131.9199999999998" y="326.68"/>
      <point x="958.72" y="314.64"/>
    </contour>
  </outline>
</glyph>
<glyph name="eth" format="2">
  <advance width="895.7"/>
  <unicode hex="00F0"/>
  <outline>
    <contour>
      <point x="751.76" y="381.06" type="curve"/>
      <point x="752.38" y="442.84000000000003" type="line"/>
      <point x="666.3399999999999" y="499.2"/>
      <point x="566.18" y="523.58"/>
      <point x="437.61999999999995" y="523.58" type="curve" smooth="yes"/>
      <point x="178.64" y="523.58"/>
      <point x="59.120000000000005" y="424.38"/>
      <point x="59.120000000000005" y="253.93999999999997" type="curve" smooth="yes"/>
      <point x="59.120000000000005" y="80.86"/>
      <point x="186.36" y="-10.0"/>
      <point x="425.94" y="-10.0" type="curve" smooth="yes"/>
      <point x="707.52" y="-10.0"/>
      <point x="839.9599999999999" y="103.24"/>
      <point x="839.9599999999999" y="361.78000000000003" type="curve" smooth="yes"/>
      <point x="839.9599999999999" y="612.86"/>
      <point x="667.1800000000001" y="727.98"/>
      <point x="374.5" y="727.98" type="curve" smooth="yes"/>
      <point x="278.98" y="727.98"/>
      <point x="192.68" y="719.5999999999999"/>
      <point x="80.96000000000001" y="697.46" type="curve"/>
      <point x="88.30000000000001" y="637.54" type="line"/>
      <point x="194.12" y="656.4399999999999"/>
      <point x="266.20000000000005" y="666.1999999999999"/>
      <point x="353.28000000000003" y="666.1999999999999" type="curve" smooth="yes"/>
      <point x="615.5999999999999" y="666.1999999999999"/>
      <point x="737.5" y="573.1"/>
      <point x="737.5" y="353.96" type="curve" smooth="yes"/>
      <point x="737.5" y="146.0"/>
      <point x="645.4" y="59.599999999999994"/>
      <point x="438.34000000000003" y="59.599999999999994" type="curve" smooth="yes"/>
      <point x="261.74" y="59.599999999999994"/>
      <point x="167.77999999999997" y="126.47999999999999"/>
      <point x="167.77999999999997" y="259.28" type="curve" smooth="yes"/>
      <point x="167.77999999999997" y="390.58"/>
      <point x="264.26" y="459.32"/>
      <point x="453.46000000000004" y="459.32" type="curve" smooth="yes"/>
      <point x="573.76" y="459.32"/>
      <point x="666.98" y="433.08000000000004"/>
    </contour>
    <contour>
      <point x="257.62" y="545.66" type="line"/>
      <point x="586.8599999999999" y="655.66" type="line"/>
      <point x="581.66" y="658.6600000000001" type="line"/>
      <point x="819.48" y="741.0799999999999" type="line"/>
      <point x="685.42" y="741.0799999999999" type="line"/>
      <point x="515.32" y="682.54" type="line"/>
      <point x="527.76" y="682.1600000000001" type="line"/>
      <point x="123.56" y="545.66" type="line"/>
    </contour>
  </outline>
</glyph>
<glyph name="divide" format="2">
  <advance width="628.82"/>
  <unicode hex="00F7"/>
  <outline>
    <contour>
      <point x="264.24" y="103.5" type="curve" smooth="yes"/>
      <point x="264.24" y="74.48"/>
      <point x="276.78000000000003" y="64.80000000000001"/>
      <point x="314.72" y="64.80000000000001" type="curve" smooth="yes"/>
      <point x="353.65999999999997" y="64.80000000000001"/>
      <point x="365.2" y="74.48"/>
      <point x="365.2" y="103.5" type="curve" smooth="yes"/>
      <point x="365.2" y="132.52"/>
      <point x="353.65999999999997" y="142.82"/>
      <point x="314.72" y="142.82" type="curve" smooth="yes"/>
      <point x="275.78000000000003" y="142.82"/>
      <point x="264.24" y="132.52"/>
    </contour>
    <contour>
      <point x="264.24" y="493.1" type="curve" smooth="yes"/>
      <point x="264.24" y="464.7"/>
      <point x="276.78" y="454.40000000000003"/>
      <point x="314.72" y="454.40000000000003" type="curve" smooth="yes"/>
      <point x="353.65999999999997" y="454.40000000000003"/>
      <point x="365.2" y="464.7"/>
      <point x="365.2" y="493.1" type="curve" smooth="yes"/>
      <point x="365.2" y="522.7399999999999"/>
      <point x="353.65999999999997" y="532.42"/>
      <point x="314.72" y="532.42" type="curve" smooth="yes"/>
      <point x="275.78000000000003" y="532.42"/>
      <point x="264.24" y="522.7399999999999"/>
    </contour>
    <contour>
      <point x="62.38000000000001" y="259.78" type="line"/>
      <point x="567.06" y="259.78" type="line"/>
      <point x="567.06" y="336.82000000000005" type="line"/>
      <point x="62.38000000000001" y="336.82000000000005" type="line"/>
    </contour>
  </outline>
</glyph>
<glyph name="oslash" format="2">
  <advance width="907.8"/>
  <unicode hex="00F8"/>
  <anchor x="453.90000000000003" y="536.2" name="top"/>
  <outline>
    <contour>
      <point x="453.90000000000003" y="-10.0" type="curve" smooth="yes"/>
      <point x="180.46" y="-10.0"/>
      <point x="60.36" y="85.24000000000001"/>
      <point x="60.36" y="270.1" type="curve" smooth="yes"/>
      <point x="60.36" y="441.96"/>
      <point x="162.84" y="546.2"/>
      <point x="453.90000000000003" y="546.2" type="curve" smooth="yes"/>
      <point x="744.34" y="546.2"/>
      <point x="847.44" y="441.96"/>
      <point x="847.44" y="270.1" type="curve" smooth="yes"/>
      <point x="847.44" y="85.24000000000001"/>
      <point x="727.34" y="-10.0"/>
    </contour>
    <contour>
      <point x="453.9" y="54.63999999999999" type="curve" smooth="yes"/>
      <point x="657.58" y="54.63999999999999"/>
      <point x="741.88" y="133.38"/>
      <point x="741.88" y="270.1" type="curve" smooth="yes"/>
      <point x="741.88" y="398.06"/>
      <point x="671.48" y="481.56"/>
      <point x="453.9" y="481.56" type="curve" smooth="yes"/>
      <point x="236.32" y="481.56"/>
      <point x="165.92" y="398.06"/>
      <point x="165.92" y="270.1" type="curve" smooth="yes"/>
      <point x="165.92" y="133.38"/>
      <point x="249.6" y="54.63999999999999"/>
    </contour>
    <contour>
      <point x="60.36" y="-10.0" type="line"/>
      <point x="189.78" y="95.28000000000002" type="line"/>
      <point x="189.78" y="95.28" type="line"/>
      <point x="672.1600000000001" y="481.96" type="line"/>
      <point x="672.16" y="481.96" type="line"/>
      <point x="752.44" y="546.2" type="line"/>
      <point x="847.44" y="546.2" type="line"/>
      <point x="724.12" y="446.64" type="line"/>
      <point x="724.1199999999999" y="446.64" type="line"/>
      <point x="238.74" y="57.959999999999994" type="line"/>
      <point x="238.74" y="57.96000000000001" type="line"/>
      <point x="154.12" y="-10.0" type="line"/>
    </contour>
  </outline>
</glyph>
<glyph name="thorn" format="2">
  <advance width="882.0799999999999"/>
  <unicode hex="00FE"/>
  <outline>
    <contour>
      <point x="102.3" y="-210.0" type="line"/>
      <point x="209.41" y="-210.0" type="line"/>
      <point x="209.41" y="8.87" type="line"/>
      <point x="278.84000000000003" y="-3.479999999999999"/>
      <point x="353.41" y="-10.0"/>
      <point x="418.32" y="-10.0" type="curve" smooth="yes"/>
      <point x="697.55" y="-10.0"/>
      <point x="822.0300000000001" y="76.31"/>
      <point x="822.0300000000001" y="269.34" type="curve" smooth="yes"/>
      <point x="822.0300000000001" y="446.34000000000003"/>
      <point x="696.8799999999999" y="546.2"/>
      <point x="472.13" y="546.2" type="curve" smooth="yes"/>
      <point x="388.58" y="546.2"/>
      <point x="301.96000000000004" y="533.1700000000001"/>
      <point x="209.41000000000003" y="506.87" type="curve"/>
      <point x="209.41000000000003" y="740.0" type="line"/>
      <point x="102.3" y="740.0" type="line"/>
    </contour>
    <contour>
      <point x="419.25" y="59.22" type="curve" smooth="yes"/>
      <point x="360.24" y="59.22"/>
      <point x="288.57" y="66.98"/>
      <point x="209.10000000000002" y="83.19" type="curve"/>
      <point x="209.10000000000002" y="439.68" type="line"/>
      <point x="286.87" y="457.68"/>
      <point x="365.53999999999996" y="467.37"/>
      <point x="427.31" y="467.37" type="curve" smooth="yes"/>
      <point x="616.51" y="467.37"/>
      <point x="713.99" y="398.66"/>
      <point x="713.99" y="265.0" type="curve" smooth="yes"/>
      <point x="713.99" y="123.27"/>
      <point x="621.69" y="59.22"/>
    </contour>
  </outline>
</glyph>
<glyph name="Dcroat" format="2">
  <advance width="1150.76"/>
  <unicode hex="0110"/>
  <outline>
    <contour>
      <point x="1.92" y="322.71999999999997" type="line"/>
      <point x="458.26" y="322.71999999999997" type="line"/>
      <point x="458.26" y="393.56" type="line"/>
      <point x="1.92" y="393.56" type="line"/>
    </contour>
    <component base="D" xOffset="2.4800000000000004"/>
  </outline>
</glyph>
<glyph name="dcroat" format="2">
  <advance width="885.8"/>
  <unicode hex="0111"/>
  <outline>
    <contour>
      <point x="411.48" y="608.0799999999999" type="line"/>
      <point x="898.08" y="608.0799999999999" type="line"/>
      <point x="898.08" y="660.18" type="line"/>
      <point x="411.48" y="660.18" type="line"/>
    </contour>
    <component base="d"/>
  </outline>
</glyph>
<glyph name="Hbar" format="2">
  <advance width="1175.98"/>
  <unicode hex="0126"/>
  <outline>
    <contour>
      <point x="37.04" y="495.66" type="line"/>
      <point x="121.54000000000002" y="495.66" type="line"/>
      <point x="121.54000000000002" y="0.0" type="line"/>
      <point x="234.54" y="0.0" type="line"/>
      <point x="234.54" y="265.82000000000005" type="line"/>
      <point x="944.5400000000001" y="265.82000000000005" type="line"/>
      <point x="944.5400000000001" y="0.0" type="line"/>
      <point x="1054.44" y="0.0" type="line"/>
      <point x="1054.44" y="495.66" type="line"/>
      <point x="1138.94" y="495.66" type="line"/>
      <point x="1138.94" y="560.9200000000001" type="line"/>
      <point x="1054.44" y="560.9200000000001" type="line"/>
      <point x="1054.44" y="700.0" type="line"/>
      <point x="944.5400000000001" y="700.0" type="line"/>
      <point x="944.5400000000001" y="560.9200000000001" type="line"/>
      <point x="234.54" y="560.9200000000001" type="line"/>
      <point x="234.54" y="700.0" type="line"/>
      <point x="121.54000000000002" y="700.0" type="line"/>
      <point x="121.54000000000002" y="560.9200000000001" type="line"/>
      <point x="37.04" y="560.9200000000001" type="line"/>
    </contour>
    <contour>
      <point x="234.54" y="354.02" type="line"/>
      <point x="234.54" y="495.66" type="line"/>
      <point x="944.5400000000001" y="495.66" type="line"/>
      <point x="944.5400000000001" y="354.02" type="line"/>
    </contour>
  </outline>
</glyph>
<glyph name="hbar" format="2">
  <advance width="892.6899999999999"/>
  <unicode hex="0127"/>
  <outline>
    <contour>
      <point x="-12.9" y="607.77" type="line"/>
      <point x="515.41" y="607.77" type="line"/>
      <point x="515.41" y="652.43" type="line"/>
      <point x="-12.9" y="652.43" type="line"/>
    </contour>
    <component base="h"/>
  </outline>
</glyph>
<glyph name="Idotaccent" format="2">
  <advance width="355.46"/>
  <unicode hex="0130"/>
  <outline>
    <contour>
      <point x="177.73000000000002" y="800.73" type="curve" smooth="yes"/>
      <point x="229.07" y="800.73"/>
      <point x="245.26000000000002" y="813.2"/>
      <point x="245.26000000000002" y="846.56" type="curve" smooth="yes"/>
      <point x="245.26000000000002" y="879.9200000000001"/>
      <point x="229.07000000000002" y="892.3900000000001"/>
      <point x="177.73000000000002" y="892.3900000000001" type="curve" smooth="yes"/>
      <point x="126.38999999999999" y="892.3900000000001"/>
      <point x="110.19999999999999" y="879.9200000000001"/>
      <point x="110.19999999999999" y="846.56" type="curve" smooth="yes"/>
      <point x="110.19999999999999" y="813.2"/>
      <point x="127.07999999999998" y="800.73"/>
    </contour>
    <component base="I"/>
  </outline>
</glyph>
<glyph name="dotlessi" format="2">
  <advance width="311.40000000000003"/>
  <unicode hex="0131"/>
  <anchor x="199.11" y="3.1" name="ogonek"/>
  <anchor x="155.70000000000002" y="0.0" name="bottom"/>
  <anchor x="155.70000000000002" y="536.2" name="top"/>
  <outline>
    <contour>
      <point x="102.3" y="0.0" type="line"/>
      <point x="209.1" y="0.0" type="line"/>
      <point x="209.1" y="536.2" type="line"/>
      <point x="102.3" y="536.2" type="line"/>
    </contour>
  </outline>
</glyph>
<glyph name="kgreenlandic" format="2">
  <advance width="825.1800000000001"/>
  <unicode hex="0138"/>
  <anchor x="410.3" y="536.2" name="top"/>
  <anchor x="410.3" y="0.0" name="bottom"/>
  <outline>
    <contour>
      <point x="775.34" y="-10.0" type="curve" smooth="yes"/>
      <point x="787.4000000000001" y="-10.0"/>
      <point x="796.2600000000001" y="-10.0"/>
      <point x="803.12" y="-9.0" type="curve"/>
      <point x="800.36" y="84.78" type="line"/>
      <point x="793.5" y="83.78"/>
      <point x="786.64" y="83.78"/>
      <point x="781.54" y="83.78" type="curve" smooth="yes"/>
      <point x="732.3000000000001" y="83.78"/>
      <point x="661.88" y="117.1"/>
      <point x="495.24" y="221.5" type="curve" smooth="yes"/>
      <point x="206.0" y="403.26" type="line"/>
      <point x="206.0" y="536.2" type="line"/>
      <point x="102.3" y="536.2" type="line"/>
      <point x="102.3" y="0.0" type="line"/>
      <point x="206.0" y="0.0" type="line"/>
      <point x="206.0" y="303.00000000000006" type="line"/>
      <point x="483.84" y="125.2" type="line" smooth="yes"/>
      <point x="678.7" y="0.6200000000000006"/>
      <point x="725.38" y="-10.0"/>
    </contour>
    <contour>
      <point x="375.82" y="264.0" type="line"/>
      <point x="497.42" y="316.9"/>
      <point x="683.88" y="406.29999999999995"/>
      <point x="759.0999999999999" y="534.82" type="curve"/>
      <point x="643.9" y="546.2" type="line"/>
      <point x="577.26" y="440.42"/>
      <point x="426.94" y="364.52000000000004"/>
      <point x="265.3" y="283.2" type="curve"/>
    </contour>
  </outline>
</glyph>
<glyph name="Ldot" format="2">
  <advance width="899.07"/>
  <unicode hex="013F"/>
  <outline>
    <contour>
      <point x="557.04" y="396.28" type="curve" smooth="yes"/>
      <point x="557.04" y="361.99"/>
      <point x="572.3699999999999" y="349.21000000000004"/>
      <point x="619.3" y="349.21000000000004" type="curve" smooth="yes"/>
      <point x="666.9200000000001" y="349.21000000000004"/>
      <point x="681.56" y="361.99"/>
      <point x="681.56" y="396.28" type="curve" smooth="yes"/>
      <point x="681.56" y="430.88"/>
      <point x="666.9200000000001" y="443.65999999999997"/>
      <point x="619.3" y="443.65999999999997" type="curve" smooth="yes"/>
      <point x="571.68" y="443.65999999999997"/>
      <point x="557.04" y="430.88"/>
    </contour>
    <component base="L"/>
  </outline>
</glyph>
<glyph name="ldot" format="2">
  <advance width="421.93"/>
  <unicode hex="0140"/>
  <outline>
    <contour>
      <point x="379.96999999999997" y="341.48" type="curve" smooth="yes"/>
      <point x="409.29999999999995" y="341.48"/>
      <point x="416.81000000000006" y="350.54"/>
      <point x="416.81000000000006" y="378.01" type="curve" smooth="yes"/>
      <point x="416.81000000000006" y="405.48"/>
      <point x="409.29999999999995" y="414.54"/>
      <point x="379.96999999999997" y="414.54" type="curve" smooth="yes"/>
      <point x="350.64" y="414.54"/>
      <point x="343.13" y="405.48"/>
      <point x="343.13" y="378.01" type="curve" smooth="yes"/>
      <point x="343.13" y="350.54"/>
      <point x="351.33" y="341.48"/>
    </contour>
    <component base="l"/>
  </outline>
</glyph>
<glyph name="Lslash" format="2">
  <advance width="899.0699999999999"/>
  <unicode hex="0141"/>
  <outline>
    <contour>
      <point x="17.32" y="165.22" type="line"/>
      <point x="121.22999999999999" y="221.37" type="line"/>
      <point x="121.22999999999999" y="0.0" type="line"/>
      <point x="868.21" y="0.0" type="line"/>
      <point x="868.21" y="88.19999999999999" type="line"/>
      <point x="234.23000000000002" y="88.19999999999999" type="line"/>
      <point x="234.23000000000002" y="271.12" type="line"/>
      <point x="576.95" y="455.98" type="line"/>
      <point x="576.95" y="543.22" type="line"/>
      <point x="234.23000000000002" y="358.35999999999996" type="line"/>
      <point x="234.23000000000002" y="700.0" type="line"/>
      <point x="121.22999999999999" y="700.0" type="line"/>
      <point x="121.22999999999999" y="308.61" type="line"/>
      <point x="17.32" y="252.45999999999998" type="line"/>
    </contour>
  </outline>
</glyph>
<glyph name="lslash" format="2">
  <advance width="421.93"/>
  <unicode hex="0142"/>
  <outline>
    <contour>
      <point x="277.75" y="-10.0" type="curve" smooth="yes"/>
      <point x="333.8" y="-10.0"/>
      <point x="389.09000000000003" y="-0.14000000000000012"/>
      <point x="433.59" y="11.200000000000001" type="curve"/>
      <point x="420.29" y="87.61999999999999" type="line"/>
      <point x="384.78" y="80.0"/>
      <point x="348.09" y="72.93"/>
      <point x="315.26" y="72.93" type="curve" smooth="yes"/>
      <point x="260.56" y="72.93"/>
      <point x="212.2" y="95.35"/>
      <point x="212.2" y="190.45" type="curve" smooth="yes"/>
      <point x="212.2" y="283.88" type="line"/>
      <point x="364.38" y="412.19" type="line"/>
      <point x="364.38" y="492.58" type="line"/>
      <point x="212.2" y="364.27" type="line"/>
      <point x="212.2" y="740.0" type="line"/>
      <point x="105.4" y="740.0" type="line"/>
      <point x="105.4" y="309.86" type="line"/>
      <point x="24.36" y="241.91000000000003" type="line"/>
      <point x="24.36" y="161.52" type="line"/>
      <point x="106.02" y="229.78" type="line"/>
      <point x="106.64" y="164.1" type="line" smooth="yes"/>
      <point x="111.91" y="26.960000000000004"/>
      <point x="182.98" y="-10.0"/>
    </contour>
  </outline>
</glyph>
<glyph name="Eng" format="2">
  <advance width="1150.56"/>
  <unicode hex="014A"/>
  <outline>
    <contour>
      <point x="121.23" y="0.0" type="line"/>
      <point x="224.93" y="0.0" type="line"/>
      <point x="224.93" y="569.3000000000001" type="line"/>
      <point x="925.6299999999999" y="0.3699999999999992" type="line"/>
      <point x="925.6299999999999" y="-6.799999999999999" type="line" smooth="yes"/>
      <point x="921.4899999999999" y="-106.98"/>
      <point x="828.63" y="-145.44"/>
      <point x="705.0100000000001" y="-145.44" type="curve" smooth="yes"/>
      <point x="642.1999999999999" y="-145.44"/>
      <point x="572.22" y="-135.23"/>
      <point x="512.32" y="-123.16" type="curve"/>
      <point x="496.16" y="-197.41" type="line"/>
      <point x="560.09" y="-209.79"/>
      <point x="638.27" y="-220.0"/>
      <point x="712.45" y="-220.0" type="curve" smooth="yes"/>
      <point x="891.3" y="-220.0"/>
      <point x="1029.33" y="-161.52"/>
      <point x="1029.33" y="-10.0" type="curve" smooth="yes"/>
      <point x="1029.33" y="700.0" type="line"/>
      <point x="925.6300000000001" y="700.0" type="line"/>
      <point x="925.6300000000001" y="121.08999999999999" type="line"/>
      <point x="217.97" y="706.9" type="line"/>
      <point x="121.23" y="706.9" type="line"/>
    </contour>
  </outline>
</glyph>
<glyph name="eng" format="2">
  <advance width="892.69"/>
  <unicode hex="014B"/>
  <outline>
    <contour>
      <point x="790.39" y="21.05" type="curve"/>
      <point x="790.39" y="338.89000000000004" type="line" smooth="yes"/>
      <point x="790.39" y="462.38"/>
      <point x="711.6999999999999" y="546.2"/>
      <point x="544.7399999999999" y="546.2" type="curve" smooth="yes"/>
      <point x="413.03" y="546.2"/>
      <point x="323.19" y="507.02000000000004"/>
      <point x="199.49" y="448.74000000000007" type="curve"/>
      <point x="199.49" y="536.2" type="line"/>
      <point x="102.3" y="536.2" type="line"/>
      <point x="102.3" y="0.0" type="line"/>
      <point x="209.10000000000002" y="0.0" type="line"/>
      <point x="209.10000000000002" y="384.96000000000004" type="line"/>
      <point x="318.40999999999997" y="433.84"/>
      <point x="394.81000000000006" y="466.98999999999995"/>
      <point x="506.61" y="466.98999999999995" type="curve" smooth="yes"/>
      <point x="627.06" y="466.98999999999995"/>
      <point x="683.59" y="407.87"/>
      <point x="683.59" y="305.41" type="curve" smooth="yes"/>
      <point x="683.59" y="19.53" type="line" smooth="yes"/>
      <point x="683.59" y="-57.269999999999996"/>
      <point x="658.07" y="-101.01"/>
      <point x="609.7900000000001" y="-123.08999999999999" type="curve" smooth="yes"/>
      <point x="598.8599999999999" y="-127.23000000000002"/>
      <point x="586.69" y="-130.06"/>
      <point x="573.83" y="-132.2" type="curve"/>
      <point x="574.84" y="-207.55" type="line"/>
      <point x="594.5899999999999" y="-206.65"/>
      <point x="613.72" y="-203.44"/>
      <point x="630.85" y="-199.3" type="curve" smooth="yes"/>
      <point x="730.01" y="-175.15"/>
      <point x="790.39" y="-97.44"/>
    </contour>
  </outline>
</glyph>
<glyph name="OE" format="2">
  <advance width="1771.62"/>
  <unicode hex="0152"/>
  <outline>
    <contour>
      <point x="1721.72" y="0.0" type="line"/>
      <point x="1721.72" y="88.19999999999999" type="line"/>
      <point x="1026.74" y="88.19999999999999" type="line"/>
      <point x="1026.74" y="330.84000000000003" type="line"/>
      <point x="1660.72" y="330.84000000000003" type="line"/>
      <point x="1660.72" y="415.94" type="line"/>
      <point x="1026.74" y="415.94" type="line"/>
      <point x="1026.74" y="611.8" type="line"/>
      <point x="1692.72" y="611.8" type="line"/>
      <point x="1692.72" y="700.0" type="line"/>
      <point x="1026.7399999999998" y="700.0" type="line"/>
      <point x="878.74" y="704.0"/>
      <point x="734.0800000000002" y="710.0"/>
      <point x="601.64" y="710.0" type="curve" smooth="yes"/>
      <point x="296.68" y="710.0"/>
      <point x="74.64" y="605.68"/>
      <point x="74.64" y="356.0" type="curve" smooth="yes"/>
      <point x="74.64" y="55.38000000000001"/>
      <point x="330.79999999999995" y="-10.0"/>
      <point x="632.64" y="-10.0" type="curve" smooth="yes"/>
      <point x="776.3000000000001" y="-10.0"/>
      <point x="890.5" y="-4.62"/>
      <point x="1026.7399999999998" y="0.0" type="curve"/>
    </contour>
    <contour>
      <point x="913.74" y="73.32" type="line"/>
      <point x="854.28" y="71.32"/>
      <point x="737.32" y="65.17999999999999"/>
      <point x="626.1400000000001" y="65.17999999999999" type="curve" smooth="yes"/>
      <point x="416.16" y="65.17999999999999"/>
      <point x="189.88" y="108.38"/>
      <point x="189.88" y="354.38" type="curve" smooth="yes"/>
      <point x="189.88" y="579.3399999999999"/>
      <point x="418.3" y="634.8199999999999"/>
      <point x="602.34" y="634.8199999999999" type="curve" smooth="yes"/>
      <point x="663.7400000000001" y="634.8199999999999"/>
      <point x="868.72" y="626.68"/>
      <point x="913.74" y="626.0600000000001" type="curve"/>
    </contour>
  </outline>
</glyph>
<glyph name="oe" format="2">
  <advance width="1537.52"/>
  <unicode hex="0153"/>
  <outline>
    <contour>
      <point x="60.05" y="270.1" type="curve" smooth="yes"/>
      <point x="60.05" y="85.24"/>
      <point x="180.15" y="-10.0"/>
      <point x="453.9" y="-10.0" type="curve" smooth="yes"/>
      <point x="639.42" y="-10.0"/>
      <point x="747.8100000000001" y="40.050000000000004"/>
      <point x="792.1099999999999" y="136.84000000000003" type="curve"/>
      <point x="839.58" y="39.74"/>
      <point x="958.4200000000001" y="-10.0"/>
      <point x="1107.78" y="-10.0" type="curve" smooth="yes"/>
      <point x="1262.03" y="-10.0"/>
      <point x="1389.94" y="10.73"/>
      <point x="1475.4399999999998" y="28.9" type="curve"/>
      <point x="1463.07" y="99.12" type="line"/>
      <point x="1378.4" y="82.25999999999999"/>
      <point x="1243.3200000000002" y="60.53"/>
      <point x="1113.05" y="60.53" type="curve" smooth="yes"/>
      <point x="948.0699999999999" y="60.53"/>
      <point x="847.6800000000001" y="122.69000000000001"/>
      <point x="847.6800000000001" y="234.12" type="curve" smooth="yes"/>
      <point x="847.6800000000001" y="243.71"/>
      <point x="848.37" y="251.68"/>
      <point x="849.0600000000001" y="260.27" type="curve"/>
      <point x="1155.69" y="261.82"/>
      <point x="1398.6" y="277.72"/>
      <point x="1478.4099999999999" y="281.34000000000003" type="curve"/>
      <point x="1479.7199999999998" y="291.37"/>
      <point x="1479.7199999999998" y="304.19"/>
      <point x="1479.7199999999998" y="312.91" type="curve" smooth="yes"/>
      <point x="1479.7199999999998" y="472.54999999999995"/>
      <point x="1368.0" y="546.2"/>
      <point x="1145.98" y="546.2" type="curve" smooth="yes"/>
      <point x="994.6400000000001" y="546.2"/>
      <point x="855.89" y="496.91"/>
      <point x="801.1400000000001" y="386.84000000000003" type="curve"/>
      <point x="761.74" y="486.94000000000005"/>
      <point x="659.01" y="546.2"/>
      <point x="453.9" y="546.2" type="curve" smooth="yes"/>
      <point x="162.84" y="546.2"/>
      <point x="60.05" y="441.96"/>
    </contour>
    <contour>
      <point x="168.39999999999998" y="269.79" type="curve" smooth="yes"/>
      <point x="168.39999999999998" y="396.2"/>
      <point x="238.48999999999998" y="480.01"/>
      <point x="453.59" y="480.01" type="curve" smooth="yes"/>
      <point x="669.0" y="480.01"/>
      <point x="738.78" y="396.2"/>
      <point x="738.78" y="269.79" type="curve" smooth="yes"/>
      <point x="738.78" y="134.93"/>
      <point x="655.4100000000001" y="56.19"/>
      <point x="453.59" y="56.19" type="curve" smooth="yes"/>
      <point x="251.76999999999998" y="56.19"/>
      <point x="168.39999999999998" y="134.93"/>
    </contour>
    <contour>
      <point x="852.13" y="317.78000000000003" type="curve"/>
      <point x="879.1700000000001" y="440.17"/>
      <point x="1023.02" y="478.77"/>
      <point x="1140.0900000000001" y="478.77" type="curve" smooth="yes"/>
      <point x="1295.42" y="478.77"/>
      <point x="1365.1000000000001" y="427.51"/>
      <point x="1369.75" y="333.13" type="curve"/>
      <point x="1318.6499999999999" y="330.44"/>
      <point x="1107.23" y="318.09000000000003"/>
    </contour>
  </outline>
</glyph>
<glyph name="uni0162" format="2">
  <advance width="906.6800000000001"/>
  <unicode hex="0162"/>
  <outline>
    <contour>
      <point x="307.38" y="-129.82999999999998" type="curve"/>
      <point x="300.0" y="-189.37" type="line"/>
      <point x="358.49" y="-210.48"/>
      <point x="408.91" y="-220.0"/>
      <point x="450.5" y="-220.0" type="curve" smooth="yes"/>
      <point x="558.65" y="-220.0"/>
      <point x="607.37" y="-170.15"/>
      <point x="607.37" y="-102.36" type="curve" smooth="yes"/>
      <point x="607.37" y="-56.8"/>
      <point x="570.39" y="-21.590000000000003"/>
      <point x="502.26" y="6.55" type="curve"/>
      <point x="414.51" y="3.0999999999999996" type="line"/>
      <point x="468.22" y="-21.009999999999998"/>
      <point x="517.0" y="-46.5"/>
      <point x="517.0" y="-87.48" type="curve" smooth="yes"/>
      <point x="517.0" y="-131.49"/>
      <point x="485.75000000000006" y="-155.98"/>
      <point x="423.21999999999997" y="-155.98" type="curve" smooth="yes"/>
      <point x="392.31" y="-155.98"/>
      <point x="351.4" y="-147.39"/>
    </contour>
    <component base="T"/>
  </outline>
</glyph>
<glyph name="Tbar" format="2">
  <advance width="912.88"/>
  <unicode hex="0166"/>
  <outline>
    <contour>
      <point x="136.33" y="310.48" type="line"/>
      <point x="399.94" y="310.48" type="line"/>
      <point x="399.94" y="0.0" type="line"/>
      <point x="512.9399999999999" y="0.0" type="line"/>
      <point x="512.9399999999999" y="310.48" type="line"/>
      <point x="776.5500000000001" y="310.48" type="line"/>
      <point x="776.5500000000001" y="389.38" type="line"/>
      <point x="512.9399999999999" y="389.38" type="line"/>
      <point x="512.9399999999999" y="613.1800000000001" type="line"/>
      <point x="897.8900000000001" y="613.1800000000001" type="line"/>
      <point x="897.8900000000001" y="700.0" type="line"/>
      <point x="14.989999999999998" y="700.0" type="line"/>
      <point x="14.989999999999998" y="613.1800000000001" type="line"/>
      <point x="399.94" y="613.1800000000001" type="line"/>
      <point x="399.94" y="389.38" type="line"/>
      <point x="136.33" y="389.38" type="line"/>
    </contour>
  </outline>
</glyph>
<glyph name="tbar" format="2">
  <advance width="639.96"/>
  <unicode hex="0167"/>
  <outline>
    <contour>
      <point x="274.86" y="289.82" type="line"/>
      <point x="534.4" y="289.82" type="line"/>
      <point x="534.4" y="346.88" type="line"/>
      <point x="274.86" y="346.88" type="line"/>
      <point x="274.86" y="467.21999999999997" type="line"/>
      <point x="586.9599999999999" y="467.21999999999997" type="line"/>
      <point x="586.9599999999999" y="536.2" type="line"/>
      <point x="274.86" y="536.2" type="line"/>
      <point x="274.86" y="665.0" type="line"/>
      <point x="180.12" y="665.0" type="line"/>
      <point x="168.06" y="536.2" type="line"/>
      <point x="9.52" y="526.86" type="line"/>
      <point x="9.52" y="467.21999999999997" type="line"/>
      <point x="168.06" y="467.21999999999997" type="line"/>
      <point x="168.06" y="346.88" type="line"/>
      <point x="64.72" y="346.88" type="line"/>
      <point x="64.72" y="289.82" type="line"/>
      <point x="168.06" y="289.82" type="line"/>
      <point x="168.06" y="192.36" type="line" smooth="yes"/>
      <point x="168.06" y="45.96"/>
      <point x="249.88000000000002" y="-10.0"/>
      <point x="380.28" y="-10.0" type="curve" smooth="yes"/>
      <point x="450.82" y="-10.0"/>
      <point x="528.72" y="3.0"/>
      <point x="615.96" y="28.519999999999996" type="curve"/>
      <point x="601.28" y="105.17999999999999" type="line"/>
      <point x="540.6199999999999" y="85.28"/>
      <point x="478.78" y="72.0"/>
      <point x="415.9" y="72.0" type="curve" smooth="yes"/>
      <point x="317.08" y="72.0"/>
      <point x="274.86" y="112.98"/>
      <point x="274.86" y="192.36" type="curve" smooth="yes"/>
    </contour>
  </outline>
</glyph>
<glyph name="uogonek" format="2">
  <advance width="884.2599999999999"/>
  <unicode hex="0173"/>
  <outline>
    <contour>
      <point x="808.28" y="-209.22" type="curve" smooth="yes"/>
      <point x="837.2" y="-209.22"/>
      <point x="858.9499999999999" y="-206.6"/>
      <point x="875.6" y="-201.36" type="curve"/>
      <point x="873.74" y="-145.85000000000002" type="line"/>
      <point x="863.6" y="-148.23000000000002"/>
      <point x="852.46" y="-149.92000000000002"/>
      <point x="837.94" y="-149.92000000000002" type="curve" smooth="yes"/>
      <point x="799.97" y="-149.92000000000002"/>
      <point x="765.96" y="-136.4"/>
      <point x="765.96" y="-90.87" type="curve" smooth="yes"/>
      <point x="765.96" y="-38.75"/>
      <point x="816.08" y="-2.9800000000000004"/>
      <point x="872.53" y="10.780000000000001" type="curve"/>
      <point x="860.95" y="71.41999999999999" type="line"/>
      <point x="850.5699999999999" y="66.72999999999999"/>
      <point x="839.4300000000001" y="64.35"/>
      <point x="828.36" y="64.35" type="curve" smooth="yes"/>
      <point x="793.04" y="64.35"/>
      <point x="760.7199999999999" y="87.46"/>
      <point x="760.7199999999999" y="165.04000000000002" type="curve" smooth="yes"/>
      <point x="760.7199999999999" y="536.2" type="line"/>
      <point x="653.92" y="536.2" type="line"/>
      <point x="653.92" y="148.69" type="line"/>
      <point x="551.3399999999999" y="100.25999999999999"/>
      <point x="481.10999999999996" y="67.97"/>
      <point x="375.97" y="67.97" type="curve" smooth="yes"/>
      <point x="265.94" y="67.97"/>
      <point x="209.10000000000002" y="123.64"/>
      <point x="209.10000000000002" y="212.64999999999998" type="curve" smooth="yes"/>
      <point x="209.10000000000002" y="536.2" type="line"/>
      <point x="102.3" y="536.2" type="line"/>
      <point x="102.3" y="183.51" type="line" smooth="yes"/>
      <point x="102.3" y="68.24000000000001"/>
      <point x="184.36" y="-10.0"/>
      <point x="336.91" y="-10.0" type="curve" smooth="yes"/>
      <point x="464.2" y="-10.0"/>
      <point x="552.93" y="29.18"/>
      <point x="667.39" y="86.91" type="curve"/>
      <point x="684.14" y="17.83"/>
      <point x="728.9699999999999" y="-10.0"/>
      <point x="784.3" y="-10.0" type="curve" smooth="yes"/>
      <point x="798.5" y="-10.0"/>
      <point x="810.77" y="-7.31"/>
      <point x="824.66" y="-3.76" type="curve"/>
      <point x="816.86" y="14.719999999999999" type="line"/>
      <point x="748.9200000000001" y="0.1999999999999993"/>
      <point x="685.6800000000001" y="-50.6"/>
      <point x="685.6800000000001" y="-115.81" type="curve" smooth="yes"/>
      <point x="685.6800000000001" y="-183.02"/>
      <point x="744.85" y="-209.22"/>
    </contour>
  </outline>
</glyph>
<glyph name="longs" format="2">
  <advance width="461.15"/>
  <unicode hex="017F"/>
  <outline>
    <contour>
      <point x="271.03000000000003" y="497.13999999999993" type="line"/>
      <point x="271.03000000000003" y="626.63"/>
      <point x="345.0" y="672.72"/>
      <point x="455.65999999999997" y="672.72" type="curve" smooth="yes"/>
      <point x="524.4599999999999" y="672.72"/>
      <point x="590.91" y="659.2700000000001"/>
      <point x="657.62" y="641.92" type="curve"/>
      <point x="670.99" y="714.93" type="line"/>
      <point x="585.9799999999999" y="738.38"/>
      <point x="513.78" y="750.69"/>
      <point x="434.61" y="750.69" type="curve" smooth="yes"/>
      <point x="276.76000000000005" y="750.69"/>
      <point x="164.23" y="684.76"/>
      <point x="164.23" y="499.31" type="curve" smooth="yes"/>
      <point x="164.23" y="484.0" type="line"/>
      <point x="35.39" y="474.34999999999997" type="line"/>
      <point x="35.39" y="414.71" type="line"/>
      <point x="164.23" y="414.71" type="line"/>
      <point x="164.23" y="0.0" type="line"/>
      <point x="271.03000000000003" y="0.0" type="line"/>
    </contour>
  </outline>
</glyph>
